<svg width="1920" height="1080" viewBox="0 0 1920 1080" fill="none" xmlns="http://www.w3.org/2000/svg">
  <path d="M8.99304 0H10.9915V1078H8.99304V0Z" fill="url(#paint0_linear_2481_11269)" />
  <path d="M108.916 0H110.914V1078H108.916V0Z" fill="url(#paint1_linear_2481_11269)" />
  <path d="M208.838 0H210.837V1078H208.838V0Z" fill="url(#paint2_linear_2481_11269)" />
  <path d="M308.761 0H310.759V1078H308.761V0Z" fill="url(#paint3_linear_2481_11269)" />
  <path d="M408.684 0H410.682V1078H408.684V0Z" fill="url(#paint4_linear_2481_11269)" />
  <path d="M508.606 0H510.605V1078H508.606V0Z" fill="url(#paint5_linear_2481_11269)" />
  <path d="M608.529 0H610.527V1078H608.529V0Z" fill="url(#paint6_linear_2481_11269)" />
  <path d="M0 0H1918.52V1.9963H0V0Z" fill="url(#paint7_linear_2481_11269)" />
  <path d="M708.452 0H710.45V1078H708.452V0Z" fill="url(#paint8_linear_2481_11269)" />
  <path d="M808.374 0H810.373V1078H808.374V0Z" fill="url(#paint9_linear_2481_11269)" />
  <path d="M908.297 0H910.295V1078H908.297V0Z" fill="url(#paint10_linear_2481_11269)" />
  <path d="M1008.22 0H1010.22V1078H1008.22V0Z" fill="url(#paint11_linear_2481_11269)" />
  <path d="M1108.14 0H1110.14V1078H1108.14V0Z" fill="url(#paint12_linear_2481_11269)" />
  <path d="M1208.06 0H1210.06V1078H1208.06V0Z" fill="url(#paint13_linear_2481_11269)" />
  <path d="M1307.99 0H1309.99V1078H1307.99V0Z" fill="url(#paint14_linear_2481_11269)" />
  <path d="M1407.91 0H1409.91V1078H1407.91V0Z" fill="url(#paint15_linear_2481_11269)" />
  <path d="M1507.83 0H1509.83V1078H1507.83V0Z" fill="url(#paint16_linear_2481_11269)" />
  <path d="M1607.76 0H1609.75V1078H1607.76V0Z" fill="url(#paint17_linear_2481_11269)" />
  <path d="M1707.68 0H1709.68V1078H1707.68V0Z" fill="url(#paint18_linear_2481_11269)" />
  <path d="M1807.6 0H1809.6V1078H1807.6V0Z" fill="url(#paint19_linear_2481_11269)" />
  <path d="M1907.52 0H1909.52V1078H1907.52V0Z" fill="url(#paint20_linear_2481_11269)" />
  <path d="M0 97.8189H1918.52V99.8152H0V97.8189Z" fill="url(#paint21_linear_2481_11269)" />
  <path d="M0 197.634H1918.52V199.63H0V197.634Z" fill="url(#paint22_linear_2481_11269)" />
  <path d="M0 297.449H1918.52V299.445H0V297.449Z" fill="url(#paint23_linear_2481_11269)" />
  <path d="M0 397.264H1918.52V399.261H0V397.264Z" fill="url(#paint24_linear_2481_11269)" />
  <path d="M0 497.08H1918.52V499.076H0V497.08Z" fill="url(#paint25_linear_2481_11269)" />
  <path d="M0 596.895H1918.52V598.891H0V596.895Z" fill="url(#paint26_linear_2481_11269)" />
  <path d="M0 696.71H1918.52V698.706H0V696.71Z" fill="url(#paint27_linear_2481_11269)" />
  <path d="M0 796.525H1918.52V798.521H0V796.525Z" fill="url(#paint28_linear_2481_11269)" />
  <path d="M0 896.34H1918.52V898.336H0V896.34Z" fill="url(#paint29_linear_2481_11269)" />
  <path d="M0 996.155H1918.52V998.152H0V996.155Z" fill="url(#paint30_linear_2481_11269)" />
  <defs>
    <linearGradient id="paint0_linear_2481_11269" x1="959.258" y1="0" x2="959.258" y2="1097.97" gradientUnits="userSpaceOnUse">
      <stop stop-color="#FFC01F" />
      <stop offset="1" stop-color="#FFC01F" />
    </linearGradient>
    <linearGradient id="paint1_linear_2481_11269" x1="959.258" y1="0" x2="959.258" y2="1097.97" gradientUnits="userSpaceOnUse">
      <stop stop-color="#FFC01F" />
      <stop offset="1" stop-color="#FFC01F" />
    </linearGradient>
    <linearGradient id="paint2_linear_2481_11269" x1="959.258" y1="0" x2="959.258" y2="1097.97" gradientUnits="userSpaceOnUse">
      <stop stop-color="#FFC01F" />
      <stop offset="1" stop-color="#FFC01F" />
    </linearGradient>
    <linearGradient id="paint3_linear_2481_11269" x1="959.258" y1="0" x2="959.258" y2="1097.97" gradientUnits="userSpaceOnUse">
      <stop stop-color="#FFC01F" />
      <stop offset="1" stop-color="#FFC01F" />
    </linearGradient>
    <linearGradient id="paint4_linear_2481_11269" x1="959.258" y1="0" x2="959.258" y2="1097.97" gradientUnits="userSpaceOnUse">
      <stop stop-color="#FFC01F" />
      <stop offset="1" stop-color="#FFC01F" />
    </linearGradient>
    <linearGradient id="paint5_linear_2481_11269" x1="959.258" y1="0" x2="959.258" y2="1097.97" gradientUnits="userSpaceOnUse">
      <stop stop-color="#FFC01F" />
      <stop offset="1" stop-color="#FFC01F" />
    </linearGradient>
    <linearGradient id="paint6_linear_2481_11269" x1="959.258" y1="0" x2="959.258" y2="1097.97" gradientUnits="userSpaceOnUse">
      <stop stop-color="#FFC01F" />
      <stop offset="1" stop-color="#FFC01F" />
    </linearGradient>
    <linearGradient id="paint7_linear_2481_11269" x1="959.258" y1="0" x2="959.258" y2="1097.97" gradientUnits="userSpaceOnUse">
      <stop stop-color="#FFC01F" />
      <stop offset="1" stop-color="#FFC01F" />
    </linearGradient>
    <linearGradient id="paint8_linear_2481_11269" x1="959.258" y1="0" x2="959.258" y2="1097.97" gradientUnits="userSpaceOnUse">
      <stop stop-color="#FFC01F" />
      <stop offset="1" stop-color="#FFC01F" />
    </linearGradient>
    <linearGradient id="paint9_linear_2481_11269" x1="959.258" y1="0" x2="959.258" y2="1097.97" gradientUnits="userSpaceOnUse">
      <stop stop-color="#FFC01F" />
      <stop offset="1" stop-color="#FFC01F" />
    </linearGradient>
    <linearGradient id="paint10_linear_2481_11269" x1="959.258" y1="0" x2="959.258" y2="1097.97" gradientUnits="userSpaceOnUse">
      <stop stop-color="#FFC01F" />
      <stop offset="1" stop-color="#FFC01F" />
    </linearGradient>
    <linearGradient id="paint11_linear_2481_11269" x1="959.258" y1="0" x2="959.258" y2="1097.97" gradientUnits="userSpaceOnUse">
      <stop stop-color="#FFC01F" />
      <stop offset="1" stop-color="#FFC01F" />
    </linearGradient>
    <linearGradient id="paint12_linear_2481_11269" x1="959.258" y1="0" x2="959.258" y2="1097.97" gradientUnits="userSpaceOnUse">
      <stop stop-color="#FFC01F" />
      <stop offset="1" stop-color="#FFC01F" />
    </linearGradient>
    <linearGradient id="paint13_linear_2481_11269" x1="959.258" y1="0" x2="959.258" y2="1097.97" gradientUnits="userSpaceOnUse">
      <stop stop-color="#FFC01F" />
      <stop offset="1" stop-color="#FFC01F" />
    </linearGradient>
    <linearGradient id="paint14_linear_2481_11269" x1="959.258" y1="0" x2="959.258" y2="1097.97" gradientUnits="userSpaceOnUse">
      <stop stop-color="#FFC01F" />
      <stop offset="1" stop-color="#FFC01F" />
    </linearGradient>
    <linearGradient id="paint15_linear_2481_11269" x1="959.258" y1="0" x2="959.258" y2="1097.97" gradientUnits="userSpaceOnUse">
      <stop stop-color="#FFC01F" />
      <stop offset="1" stop-color="#FFC01F" />
    </linearGradient>
    <linearGradient id="paint16_linear_2481_11269" x1="959.258" y1="0" x2="959.258" y2="1097.97" gradientUnits="userSpaceOnUse">
      <stop stop-color="#FFC01F" />
      <stop offset="1" stop-color="#FFC01F" />
    </linearGradient>
    <linearGradient id="paint17_linear_2481_11269" x1="959.258" y1="0" x2="959.258" y2="1097.97" gradientUnits="userSpaceOnUse">
      <stop stop-color="#FFC01F" />
      <stop offset="1" stop-color="#FFC01F" />
    </linearGradient>
    <linearGradient id="paint18_linear_2481_11269" x1="959.258" y1="0" x2="959.258" y2="1097.97" gradientUnits="userSpaceOnUse">
      <stop stop-color="#FFC01F" />
      <stop offset="1" stop-color="#FFC01F" />
    </linearGradient>
    <linearGradient id="paint19_linear_2481_11269" x1="959.258" y1="0" x2="959.258" y2="1097.97" gradientUnits="userSpaceOnUse">
      <stop stop-color="#FFC01F" />
      <stop offset="1" stop-color="#FFC01F" />
    </linearGradient>
    <linearGradient id="paint20_linear_2481_11269" x1="959.258" y1="0" x2="959.258" y2="1097.97" gradientUnits="userSpaceOnUse">
      <stop stop-color="#FFC01F" />
      <stop offset="1" stop-color="#FFC01F" />
    </linearGradient>
    <linearGradient id="paint21_linear_2481_11269" x1="959.258" y1="0" x2="959.258" y2="1097.97" gradientUnits="userSpaceOnUse">
      <stop stop-color="#FFC01F" />
      <stop offset="1" stop-color="#FFC01F" />
    </linearGradient>
    <linearGradient id="paint22_linear_2481_11269" x1="959.258" y1="0" x2="959.258" y2="1097.97" gradientUnits="userSpaceOnUse">
      <stop stop-color="#FFC01F" />
      <stop offset="1" stop-color="#FFC01F" />
    </linearGradient>
    <linearGradient id="paint23_linear_2481_11269" x1="959.258" y1="0" x2="959.258" y2="1097.97" gradientUnits="userSpaceOnUse">
      <stop stop-color="#FFC01F" />
      <stop offset="1" stop-color="#FFC01F" />
    </linearGradient>
    <linearGradient id="paint24_linear_2481_11269" x1="959.258" y1="0" x2="959.258" y2="1097.97" gradientUnits="userSpaceOnUse">
      <stop stop-color="#FFC01F" />
      <stop offset="1" stop-color="#FFC01F" />
    </linearGradient>
    <linearGradient id="paint25_linear_2481_11269" x1="959.258" y1="0" x2="959.258" y2="1097.97" gradientUnits="userSpaceOnUse">
      <stop stop-color="#FFC01F" />
      <stop offset="1" stop-color="#FFC01F" />
    </linearGradient>
    <linearGradient id="paint26_linear_2481_11269" x1="959.258" y1="0" x2="959.258" y2="1097.97" gradientUnits="userSpaceOnUse">
      <stop stop-color="#FFC01F" />
      <stop offset="1" stop-color="#FFC01F" />
    </linearGradient>
    <linearGradient id="paint27_linear_2481_11269" x1="959.258" y1="0" x2="959.258" y2="1097.97" gradientUnits="userSpaceOnUse">
      <stop stop-color="#FFC01F" />
      <stop offset="1" stop-color="#FFC01F" />
    </linearGradient>
    <linearGradient id="paint28_linear_2481_11269" x1="959.258" y1="0" x2="959.258" y2="1097.97" gradientUnits="userSpaceOnUse">
      <stop stop-color="#FFC01F" />
      <stop offset="1" stop-color="#FFC01F" />
    </linearGradient>
    <linearGradient id="paint29_linear_2481_11269" x1="959.258" y1="0" x2="959.258" y2="1097.97" gradientUnits="userSpaceOnUse">
      <stop stop-color="#FFC01F" />
      <stop offset="1" stop-color="#FFC01F" />
    </linearGradient>
    <linearGradient id="paint30_linear_2481_11269" x1="959.258" y1="0" x2="959.258" y2="1097.97" gradientUnits="userSpaceOnUse">
      <stop stop-color="#FFC01F" />
      <stop offset="1" stop-color="#FFC01F" />
    </linearGradient>
  </defs>
</svg>
