<svg viewBox="0 0 121 124" fill="none" xmlns="http://www.w3.org/2000/svg">
  <path d="M55.2433 114.634C45.2533 113.6 35.9178 109.625 28.1315 103.089L18.0837 105.853L20.7775 95.5451C14.4067 87.5574 10.5319 77.9803 9.52434 67.7318L0.544922 62.414L9.51825 57.0993C10.5136 46.8352 14.3885 37.2394 20.7654 29.2392L18.0837 18.972L28.0828 21.7199C35.8873 15.1499 45.2533 11.1592 55.2798 10.1287L60.43 0.976318L65.5772 10.1225C75.619 11.1405 85.0002 15.1312 92.8168 21.7074L102.773 18.9689L100.104 29.183C106.514 37.2019 110.404 46.8258 111.397 57.1274L120.312 62.4078L111.391 67.6912C110.386 77.9772 106.496 87.5855 100.095 95.5919L102.773 105.85L92.7651 103.099C84.9667 109.641 75.6129 113.616 65.6077 114.637L60.427 123.842L55.2433 114.631V114.634ZM24.7528 80.5003L25.179 81.3371C29.1056 89.0469 35.2116 95.1516 42.8395 98.9893L43.6674 99.4078L44.2854 103.808L47.6914 101.056L48.5711 101.341C52.449 102.593 56.4547 103.227 60.4787 103.227C64.8071 103.227 69.099 102.493 73.2295 101.05L74.1031 100.744L77.5488 103.389L78.0571 99.008L78.8759 98.5709C86.4064 94.5458 92.3694 88.2787 96.1194 80.444L96.5273 79.5947L100.78 78.967L98.1253 75.5072L98.4054 74.6016C100.974 66.2611 100.877 57.4865 98.1284 49.2271L97.8301 48.331L100.375 44.843L96.162 44.3277L95.7359 43.4878C91.8063 35.7343 85.6729 29.6014 78.0054 25.7481L77.1744 25.3328L76.5686 21.0111L73.2265 23.709L72.3438 23.4249C68.4537 22.1665 64.4358 21.5263 60.3996 21.5263C56.0438 21.5263 51.7307 22.2664 47.5788 23.7278L46.7052 24.0338L43.3083 21.4264L42.806 25.7512L41.9872 26.1884C34.4445 30.2228 28.4785 36.5118 24.7315 44.3683L24.3267 45.2208L20.0774 45.8485L22.7347 49.3115L22.4578 50.2139C19.907 58.5419 20.0135 67.3009 22.7621 75.5415L23.0604 76.4377L20.4853 79.9694L24.7589 80.4909L24.7528 80.5003Z" fill="url(#paint0_linear_6900_4409)" />
  <g style="mix-blend-mode:screen" opacity="0.5">
    <path d="M21.9614 95.8672C22.0649 95.4737 21.9736 95.0553 21.7209 94.7399C15.5206 86.9646 11.725 77.5842 10.7448 67.6105C10.7053 67.2046 10.4831 66.8455 10.1391 66.6425L2.99522 62.4114L10.133 58.1833C10.477 57.9804 10.6992 57.6181 10.7388 57.2122C11.7097 47.2229 15.5054 37.8269 21.7088 30.0391C21.9584 29.7237 22.0497 29.3053 21.9492 28.9118L19.8155 20.7462L27.766 22.932C28.1465 23.0382 28.5544 22.9476 28.8588 22.6884C36.4562 16.2933 45.6334 12.3807 55.3919 11.3783C55.7876 11.3377 56.1377 11.1097 56.3386 10.7569L60.2073 3.88399C60.3625 3.60607 60.2895 3.25322 60.0368 3.06273C59.7416 2.84415 59.3276 2.93471 59.148 3.25634L55.2793 10.1292C45.2529 11.1597 35.887 15.1504 28.0826 21.7204L18.0835 18.9725L20.7652 29.2397C14.3883 37.2399 10.5135 46.8357 9.51817 57.0998L0.544922 62.4145L9.52426 67.7323C10.5318 77.9808 14.4066 87.5579 20.7773 95.5456L18.6497 103.696C18.5432 104.108 18.8597 104.511 19.2767 104.486C19.5385 104.47 19.7638 104.283 19.8307 104.02L21.9584 95.8703L21.9614 95.8672Z" fill="#FFE46B" />
  </g>
  <path d="M120.314 62.4114L111.398 57.131C110.406 46.8295 106.516 37.2055 100.106 29.1866L101.774 22.804C102.005 21.9234 101.256 21.0959 100.383 21.2677C99.9291 21.3551 99.5669 21.7017 99.4451 22.1576L97.4149 29.7987C104.029 37.8675 108.251 48.1566 109.073 58.6517L114.829 62.4114L109.067 66.1741C108.09 76.1853 103.636 87.1863 97.4027 94.9835L98.7816 101.641L92.1734 100.339C84.582 106.709 73.8099 111.024 64.0696 112.021L60.3622 118.06C60.0791 118.522 60.0669 119.109 60.3348 119.584C60.8888 120.567 62.2707 120.567 62.8246 119.584L65.6128 114.637C75.6179 113.616 84.9716 109.641 92.77 103.099L102.778 105.85L100.1 95.5924C106.504 87.586 110.394 77.9777 111.395 67.6917L120.317 62.4083L120.314 62.4114Z" fill="url(#paint1_linear_6900_4409)" />
  <path d="M99.4936 75.2551L99.5758 74.9834C102.224 66.3868 102.124 57.3406 99.2897 48.8252L99.2014 48.5566L100.434 46.8267C100.629 46.555 100.571 46.171 100.309 45.9711C100.045 45.7681 99.6671 45.8243 99.4693 46.096L97.8348 48.3381L98.133 49.2343C100.882 57.4936 100.979 66.2682 98.41 74.6087L98.13 75.5143L100.784 78.9741L96.532 79.6018L96.1241 80.4511C92.3741 88.2858 86.4112 94.556 78.8807 98.578L78.0619 99.0151L77.5536 103.396L74.108 100.751L73.2344 101.057C69.1039 102.5 64.8151 103.234 60.4838 103.234C56.4598 103.234 52.4541 102.6 48.5762 101.348L47.6966 101.064L45.5841 102.769C45.3193 102.984 45.2737 103.377 45.4807 103.649C45.6907 103.921 46.0742 103.968 46.339 103.755L47.9462 102.459L48.211 102.544C52.2075 103.833 56.338 104.486 60.4838 104.486C64.9491 104.486 69.3718 103.73 73.6271 102.241L73.8888 102.15L76.7866 104.374C77.0331 104.564 77.3375 104.673 77.6449 104.645C78.2507 104.592 78.7012 104.121 78.7681 103.54L79.2003 99.8177L79.4469 99.6865C87.2087 95.5397 93.3573 89.0758 97.2229 80.9976L97.3447 80.7415L100.936 80.2107C101.201 80.1732 101.454 80.0577 101.643 79.8641C102.102 79.3863 102.117 78.6712 101.746 78.1904L99.4906 75.252L99.4936 75.2551Z" fill="url(#paint2_linear_6900_4409)" />
  <path d="M21.371 49.5762L21.2888 49.8478C18.6589 58.4319 18.7685 67.4626 21.6023 75.9561L21.6906 76.2247L20.5491 77.7891C20.5491 77.7891 20.54 77.8016 20.5369 77.8047C20.0743 78.4605 21.0696 79.1693 21.5414 78.5229L23.0572 76.4432L22.7589 75.547C20.0104 67.3064 19.9069 58.5475 22.4546 50.2194L22.7315 49.317L20.0743 45.854L24.3235 45.2264L24.7283 44.3739C28.4753 36.5174 34.4412 30.2284 41.9839 26.1939L42.8027 25.7568L43.3049 21.4319L46.7018 24.0393L47.5754 23.7333C51.7272 22.2719 56.0403 21.5319 60.3961 21.5319C64.4322 21.5319 68.4501 22.1689 72.3401 23.4304L73.2228 23.7146L75.0917 22.2063C75.7127 21.7067 74.9943 20.7044 74.3673 21.1946C74.3612 21.1977 74.3551 21.204 74.3521 21.2071L72.9763 22.3188L72.7115 22.2345C68.7027 20.9354 64.56 20.2797 60.3991 20.2797C55.9094 20.2797 51.4624 21.0447 47.1827 22.5498L46.921 22.6435L44.075 20.4577C43.8284 20.2672 43.524 20.1579 43.2166 20.186C42.6109 20.2391 42.1604 20.7106 42.0934 21.2914L41.6673 24.9605L41.4208 25.0917C33.6437 29.251 27.4921 35.7336 23.6325 43.8337L23.5108 44.0897L19.9251 44.6206C19.6603 44.6612 19.4077 44.7736 19.219 44.9672C18.7593 45.4449 18.7441 46.1569 19.1155 46.6409L21.374 49.5855L21.371 49.5762Z" fill="url(#paint3_linear_6900_4409)" />
  <path d="M15.6338 43.6112C17.5362 38.843 20.1722 34.3807 23.493 30.365L23.8491 29.9341L22.0441 23.0269L28.771 24.8755L29.1911 24.5101C32.8011 21.3625 36.7794 18.8082 41.0194 16.894L40.2037 23.9168C32.5241 28.1574 26.409 34.5993 22.4672 42.6026L15.6338 43.6143V43.6112Z" fill="url(#paint4_linear_6900_4409)" />
  <path d="M23.5081 30.0284C23.5507 30.1877 23.6908 30.2939 23.846 30.2939C23.8764 30.2939 23.9069 30.2907 23.9373 30.2814C24.123 30.2314 24.2356 30.0347 24.1839 29.8411L22.3788 22.9338C22.3301 22.7433 22.1383 22.6278 21.9496 22.6809C21.7639 22.7309 21.6513 22.9276 21.703 23.1212L23.5081 30.0284Z" fill="#FFE46B" />
  <path d="M40.5136 23.7476C40.4223 23.5727 40.2092 23.5071 40.0388 23.6008C32.3591 27.8382 26.2075 34.2927 22.2384 42.2741L15.5845 43.2577C15.3928 43.2858 15.2619 43.467 15.2893 43.6637C15.3136 43.8417 15.4628 43.9697 15.6363 43.9697C15.6515 43.9697 15.6697 43.9697 15.688 43.9666L22.701 42.9299L22.7832 42.7644C26.6854 34.8391 32.767 28.4315 40.3736 24.2347C40.544 24.141 40.608 23.9224 40.5166 23.7476H40.5136Z" fill="#FFE46B" />
  <path d="M17.2501 42.5993L21.758 41.9342C25.7455 33.9496 31.8758 27.492 39.5371 23.2015L40.0728 18.5769C36.3228 20.4193 32.8285 22.7612 29.6629 25.5591L29.2429 25.9307L23.2708 24.2882L24.8719 30.421L24.5127 30.8519C21.5389 34.4055 19.1008 38.3525 17.2471 42.5993H17.2501Z" fill="#6B1789" />
  <g style="mix-blend-mode:screen">
    <path d="M18.5035 40.6808C20.193 37.2053 22.2994 33.9515 24.7833 30.985L25.5047 30.1232L24.2293 25.2426L28.981 26.5478L29.8211 25.8046C32.4207 23.5095 35.2547 21.5204 38.2713 19.8748L38.0277 21.9607C30.5699 26.2543 24.5398 32.6057 20.543 40.381L18.5005 40.6839L18.5035 40.6808Z" fill="#6B1789" />
  </g>
  <g style="mix-blend-mode:screen">
    <path d="M22.3946 37.1312C23.4326 35.4606 24.568 33.868 25.7978 32.3598L25.1068 30.5986L24.7871 30.9796C23.6578 32.3286 22.6107 33.7431 21.6396 35.2045L22.3946 37.1281V37.1312Z" fill="#3C7DCF" />
  </g>
  <g style="mix-blend-mode:screen">
    <path d="M34.0784 22.4741C33.083 23.1673 32.115 23.898 31.1714 24.6693L31.8137 26.2993C32.7482 25.5218 33.7162 24.7849 34.7146 24.0854L34.0814 22.4741H34.0784Z" fill="#3C7DCF" />
  </g>
  <path d="M15.8329 81.5954C13.8878 76.8458 12.6732 71.7872 12.2501 66.5537L12.2044 65.9916L6.16211 62.4131L12.2014 58.8346L12.2471 58.2725C12.6306 53.4418 13.6869 48.7609 15.3732 44.3362L19.647 49.9101C17.1388 58.4786 17.2484 67.4561 19.9575 75.9403L15.8298 81.5985L15.8329 81.5954Z" fill="url(#paint5_linear_6900_4409)" />
  <path d="M18.6651 49.8882L15.8464 46.2129C14.4614 50.2317 13.5999 54.4129 13.2864 58.6722L13.2438 59.2374L7.8833 62.4131L13.2499 65.5919L13.2925 66.1571C13.6395 70.8161 14.6379 75.3689 16.2604 79.7124L18.9787 75.984C16.3152 67.478 16.2056 58.4786 18.6651 49.8914V49.8882Z" fill="#6B1789" />
  <g style="mix-blend-mode:screen">
    <path d="M16.0654 76.8949C14.8631 73.2133 14.1051 69.3912 13.8159 65.5035L13.7307 64.3732L9.45996 61.8438L13.7276 59.3176L13.8098 58.1841C14.0655 54.6868 14.7048 51.23 15.7062 47.8826L16.9878 49.5532C14.6774 57.9967 14.7839 66.8463 17.2952 75.2118L16.0654 76.898V76.8949Z" fill="#6B1789" />
  </g>
  <path d="M12.1773 66.3723C12.3173 66.4567 12.4908 66.4285 12.6004 66.3161C12.6217 66.2943 12.64 66.2693 12.6552 66.2412C12.7526 66.0695 12.6948 65.8509 12.5273 65.7509L6.49109 62.1755C6.32367 62.0756 6.11058 62.1349 6.01318 62.3067C5.91577 62.4784 5.9736 62.697 6.14102 62.7969L12.1773 66.3723Z" fill="#FFE46B" />
  <path d="M19.8662 49.5975C19.6805 49.5413 19.4857 49.6475 19.4309 49.838C16.9226 58.4065 17.02 67.4308 19.714 75.9525L15.6868 81.4764C15.5711 81.6357 15.6015 81.8605 15.7568 81.9792C15.8968 82.0885 16.0916 82.0697 16.2134 81.9448C16.2255 81.9323 16.2347 81.9199 16.2469 81.9042L20.4902 76.0837L20.4324 75.9057C17.7293 67.4715 17.6136 58.5283 20.0975 50.0441C20.1523 49.8536 20.0488 49.6538 19.8631 49.5975H19.8662Z" fill="url(#paint6_linear_6900_4409)" />
  <g style="mix-blend-mode:screen">
    <path d="M15.5236 57.6092L13.8981 57.1533C13.8646 57.4968 13.8342 57.8372 13.8098 58.1807L13.7276 59.3142L9.45996 61.8404L13.7307 64.3697L13.8159 65.5001C13.889 66.4587 13.9894 67.4143 14.1173 68.3667L15.8645 68.8569C15.2953 65.1316 15.1827 61.3564 15.5267 57.6061L15.5236 57.6092Z" fill="#3C7DCF" />
  </g>
  <path d="M41.6772 16.603C46.3282 14.5889 51.2867 13.3399 56.4216 12.9058L56.9695 12.859L60.4243 6.7168L63.879 12.8528L64.4269 12.8996C69.1662 13.293 73.7563 14.3828 78.0938 16.1284L72.6514 20.5251C68.6548 19.2885 64.5365 18.664 60.3969 18.664C55.9164 18.664 51.4784 19.3947 47.1988 20.8404L41.6803 16.6061L41.6772 16.603Z" fill="url(#paint7_linear_6900_4409)" />
  <path d="M78.4402 16.0744C78.422 15.9464 78.3398 15.8402 78.2211 15.7933C73.8349 14.0291 69.2052 12.9362 64.4568 12.5427L64.0915 12.5115L60.7311 6.53788C60.6337 6.36614 60.4207 6.30681 60.2533 6.40674C60.0858 6.50666 60.028 6.72525 60.1254 6.89699L63.5802 13.0329C63.638 13.136 63.7415 13.2016 63.8541 13.2109L64.402 13.2578C68.8765 13.6294 73.2444 14.6317 77.3962 16.2368L72.5778 20.1276C68.6056 18.916 64.5055 18.3039 60.3963 18.3039C55.8823 18.3039 51.4048 19.0409 47.0886 20.496C46.906 20.5585 46.8056 20.7615 46.8664 20.9488C46.9151 21.0987 47.0521 21.1955 47.1982 21.1955C47.2347 21.1955 47.2713 21.1892 47.3078 21.1768C51.554 19.7466 55.9584 19.019 60.3994 19.019C64.4994 19.019 68.5903 19.6404 72.5534 20.8645C72.663 20.8988 72.7817 20.8739 72.87 20.802L78.3154 16.4054C78.4128 16.3273 78.4646 16.1993 78.4463 16.0713L78.4402 16.0744Z" fill="url(#paint8_linear_6900_4409)" />
  <path d="M60.3908 17.7052C64.5335 17.7052 68.6579 18.3204 72.6636 19.532L76.2614 16.6279C72.3227 15.1915 68.2165 14.3047 64.0373 13.983L63.4834 13.9393L60.4212 8.49658L57.3561 13.9424L56.8052 13.9862C52.2333 14.3421 47.771 15.3726 43.5127 17.0526L47.1501 19.8442C51.451 18.4234 55.9042 17.7021 60.3939 17.7021L60.3908 17.7052Z" fill="#6B1789" />
  <g style="mix-blend-mode:screen">
    <path d="M45.1709 16.8214C48.7839 15.5724 52.537 14.7917 56.357 14.4951L57.4619 14.4108L59.894 10.0859L62.326 14.4045L63.4309 14.4888C66.8705 14.7511 70.2674 15.41 73.5547 16.453L71.9141 17.7801C67.9754 16.6403 63.9271 16.0626 59.8666 16.0626C55.45 16.0626 51.0638 16.7434 46.8207 18.0861L45.1739 16.8214H45.1709Z" fill="#6B1789" />
  </g>
  <g style="mix-blend-mode:screen">
    <path d="M70.7369 15.6622C68.3443 15.0751 65.906 14.6786 63.4434 14.4912L63.2334 14.4756L63.6657 16.2367C66.2043 16.4616 68.7278 16.9112 71.2056 17.5857L70.7338 15.6622H70.7369Z" fill="#3C7DCF" />
  </g>
  <g style="mix-blend-mode:screen">
    <path d="M52.6895 14.9383L53.0974 16.6027C54.2602 16.4184 55.4291 16.2779 56.601 16.1873L56.1901 14.5105C55.0151 14.6073 53.8492 14.7509 52.6895 14.9383Z" fill="#3C7DCF" />
  </g>
  <path d="M97.9608 41.6624C93.8333 33.7653 87.5478 27.4794 79.7373 23.4294L78.748 16.3972C83.4173 18.3551 87.7852 21.078 91.7179 24.5067L92.1379 24.872L98.8222 23.0328L97.0324 29.8901L97.3885 30.321C100.466 34.0369 102.962 38.1338 104.828 42.5024L97.9608 41.6624Z" fill="#BD6018" />
  <path d="M104.827 42.8611C104.827 42.8611 104.799 42.8611 104.784 42.8611L97.9167 42.0211C97.7249 41.9961 97.588 41.8181 97.6093 41.6214C97.6336 41.4247 97.8071 41.2841 97.9989 41.306L104.254 42.071C102.422 37.9336 100.023 34.0615 97.1161 30.5517L96.76 30.1207C96.6869 30.0302 96.6595 29.9084 96.69 29.796L98.4799 22.9387C98.5286 22.7482 98.7234 22.6327 98.9091 22.6858C99.0947 22.7357 99.2074 22.9325 99.1556 23.1261L97.4114 29.8022L97.6488 30.0895C100.732 33.8117 103.256 37.9429 105.143 42.3614C105.195 42.4801 105.18 42.6144 105.104 42.7205C105.037 42.8111 104.933 42.8642 104.824 42.8642L104.827 42.8611Z" fill="url(#paint9_linear_6900_4409)" />
  <path d="M91.7179 24.8616C91.6387 24.8616 91.5565 24.8335 91.4926 24.7773C88.1746 21.8826 84.5127 19.4751 80.6103 17.6202C80.4337 17.5359 80.3576 17.3236 80.4398 17.1456C80.522 16.9645 80.729 16.8864 80.9025 16.9707C84.8628 18.8537 88.5764 21.2987 91.9462 24.234C92.0923 24.362 92.1105 24.5899 91.9857 24.7398C91.9157 24.8241 91.8183 24.8647 91.7179 24.8647V24.8616Z" fill="url(#paint10_linear_6900_4409)" />
  <path d="M98.6531 40.9737L103.182 41.5264C101.383 37.6606 99.0944 34.0602 96.361 30.8033L95.9988 30.3724L97.5877 24.2895L91.6583 25.9195L91.2383 25.5479C87.7591 22.4752 83.8935 19.9584 79.7295 18.0474L80.3809 22.6938C88.1731 26.7938 94.4739 33.0953 98.65 40.9737H98.6531Z" fill="#6B1789" />
  <g style="mix-blend-mode:screen">
    <path d="M98.7939 39.4044C94.6084 31.7384 88.4139 25.54 80.8252 21.4306L80.5269 19.3135C83.9361 21.0559 87.1293 23.2355 90.0363 25.7992L90.8764 26.5423L95.5855 25.2465L94.3223 30.0772L95.0467 30.939C97.2962 33.6182 99.2414 36.5441 100.849 39.6574L98.7908 39.4044H98.7939Z" fill="#6B1789" />
  </g>
  <g style="mix-blend-mode:screen">
    <path d="M90.0401 25.8C88.4207 24.3699 86.71 23.0646 84.9231 21.8843L84.0708 23.3769C87.0783 25.3535 89.827 27.6767 92.2683 30.3122L95.0779 25.3847L90.8772 26.5401L90.037 25.7969L90.0401 25.8Z" fill="#3C7DCF" />
  </g>
  <path d="M56.9488 111.907L56.4009 111.86C51.6981 111.46 47.1415 110.373 42.8345 108.643L48.2769 104.25C52.2613 105.477 56.3674 106.099 60.4918 106.099C64.945 106.099 69.3585 105.374 73.6169 103.95L79.1567 108.203C74.5209 110.199 69.5807 111.438 64.4701 111.866L63.9222 111.913L60.437 118.108L56.9488 111.91V111.907Z" fill="#BD6018" />
  <path d="M56.4305 111.499C51.7854 111.105 47.2559 110.031 42.9639 108.304C42.7843 108.232 42.5803 108.323 42.5103 108.507C42.4403 108.691 42.5286 108.901 42.7082 108.972C47.0642 110.721 51.6606 111.811 56.3727 112.214C56.3818 112.214 56.391 112.214 56.4031 112.214C56.5827 112.214 56.7349 112.073 56.7502 111.886C56.7654 111.689 56.6223 111.514 56.4305 111.499Z" fill="url(#paint11_linear_6900_4409)" />
  <path d="M79.3716 107.913L73.8315 103.66C73.6763 103.541 73.4571 103.575 73.3415 103.731C73.2258 103.891 73.2562 104.115 73.4115 104.234L78.4584 108.106C74.002 109.955 69.2899 111.098 64.4469 111.504L63.899 111.55C63.7833 111.56 63.6829 111.625 63.625 111.728L60.1396 117.924C60.0422 118.095 60.1001 118.314 60.2675 118.414C60.3223 118.445 60.3832 118.461 60.441 118.461C60.5628 118.461 60.6784 118.395 60.7454 118.283L64.1395 112.25L64.5047 112.219C69.6278 111.791 74.6047 110.548 79.2986 108.528C79.4142 108.478 79.4964 108.368 79.5116 108.24C79.5269 108.112 79.4751 107.988 79.3747 107.909L79.3716 107.913Z" fill="url(#paint12_linear_6900_4409)" />
  <path d="M60.4916 107.054C56.3641 107.054 52.2519 106.442 48.2584 105.239L44.6636 108.14C48.5719 109.564 52.6445 110.448 56.7902 110.773L57.3412 110.816L60.4398 116.322L63.5354 110.823L64.0863 110.779C68.6338 110.426 73.0779 109.408 77.321 107.744L73.6623 104.937C69.3857 106.342 64.9569 107.054 60.4946 107.054H60.4916Z" fill="#6B1789" />
  <g style="mix-blend-mode:screen">
    <path d="M57.4475 109.221L56.3456 109.134C52.9426 108.865 49.5792 108.21 46.3223 107.182L47.9629 105.858C51.8864 106.989 55.9256 107.563 59.9709 107.563C64.3601 107.563 68.7219 106.892 72.9407 105.562L74.6056 106.839C71.0109 108.072 67.2791 108.843 63.4834 109.137L62.3785 109.221L59.9161 113.599L57.4506 109.218L57.4475 109.221Z" fill="#6B1789" />
  </g>
  <g style="mix-blend-mode:screen">
    <path d="M68.0167 106.797C65.3623 107.302 62.6683 107.559 59.9653 107.559C59.1586 107.559 58.352 107.53 57.5483 107.484L57.6884 109.651L59.9105 113.598L62.3731 109.22L63.4781 109.135C65.0396 109.014 66.5921 108.808 68.1262 108.527L68.0136 106.797H68.0167Z" fill="#3C7DCF" />
  </g>
  <path d="M42.1142 108.344C37.4815 106.393 33.1501 103.692 29.2479 100.297L28.8278 99.9319L22.0522 101.793L23.8664 94.842L23.5102 94.4111C20.4603 90.7233 17.9857 86.6607 16.1289 82.3328L22.9745 83.1696C27.0989 91.0199 33.354 97.2745 41.125 101.312L42.1142 108.344Z" fill="#BD6018" />
  <path d="M42.4684 108.295L41.4791 101.263C41.4517 101.066 41.2721 100.932 41.0834 100.96C40.8916 100.988 40.7607 101.169 40.7881 101.366L41.6891 107.771C37.2845 105.847 33.1811 103.243 29.4827 100.023L29.0626 99.6581C28.9743 99.5832 28.8556 99.5551 28.746 99.5863L21.9701 101.447C21.7844 101.497 21.6718 101.694 21.7235 101.888C21.7753 102.081 21.964 102.194 22.1527 102.141L28.7521 100.326L29.0322 100.57C32.9468 103.974 37.3058 106.703 41.9935 108.676C42.0361 108.695 42.0818 108.704 42.1275 108.704C42.2036 108.704 42.2797 108.679 42.3436 108.629C42.444 108.551 42.4927 108.423 42.4745 108.295H42.4684Z" fill="url(#paint13_linear_6900_4409)" />
  <path d="M22.2847 83.8567L17.7798 83.3071C19.5665 87.1323 21.8342 90.6984 24.5402 93.9272L24.9024 94.3581L23.2891 100.532L29.3068 98.8765L29.7269 99.2481C33.1786 102.29 37.0077 104.788 41.1321 106.686L40.4808 102.046C32.7311 97.9585 26.4547 91.6883 22.2847 83.8567Z" fill="#6B1789" />
  <g style="mix-blend-mode:screen">
    <path d="M39.2799 104.288C35.9102 102.558 32.7535 100.403 29.8739 97.8646L29.0338 97.1246L24.2334 98.4423L25.518 93.5179L24.7965 92.6561C22.5775 90.005 20.6536 87.1166 19.0586 84.0408L21.0889 84.2906C25.2653 91.9098 31.4355 98.077 38.9816 102.174L39.2768 104.285L39.2799 104.288Z" fill="#6B1789" />
  </g>
  <g style="mix-blend-mode:screen">
    <path d="M38.9871 102.177C37.4164 101.324 35.9065 100.375 34.4606 99.3474L33.7666 100.934C35.5291 102.183 37.3707 103.304 39.2854 104.287L38.9901 102.177H38.9871Z" fill="#3C7DCF" />
  </g>
  <g style="mix-blend-mode:screen">
    <path d="M22.2394 86.2454L21.0522 87.5038C22.1877 89.3024 23.4387 91.0261 24.8055 92.6561L25.189 93.1151L26.3366 91.8973C24.8359 90.133 23.4661 88.2438 22.2394 86.2454Z" fill="#3C7DCF" />
  </g>
  <path d="M80.6728 100.854C88.3402 96.629 94.4492 90.2026 98.3941 82.2243L105.27 81.2063C103.362 85.9808 100.713 90.4462 97.3805 94.465L97.0243 94.8959L98.8263 101.797L92.0933 99.9452L91.6733 100.311C88.0663 103.449 84.091 105.991 79.854 107.899L80.6728 100.857V100.854Z" fill="#BD6018" />
  <path d="M104.84 83.13C104.919 82.9489 104.843 82.7365 104.667 82.6553C104.493 82.5741 104.283 82.6553 104.204 82.8333C102.378 86.9271 99.9945 90.7617 97.115 94.234L96.7589 94.665C96.6858 94.7555 96.6585 94.8773 96.6889 94.9897L98.3356 101.291L92.1871 99.6018C92.0775 99.5706 91.9588 99.5987 91.8705 99.6736L91.4504 100.039C88.2361 102.834 84.6992 105.176 80.934 107.002C80.7605 107.087 80.6844 107.302 80.7666 107.48C80.8274 107.608 80.9522 107.686 81.0831 107.686C81.1318 107.686 81.1836 107.674 81.2323 107.652C85.0492 105.8 88.641 103.424 91.9009 100.589L92.181 100.345L98.7374 102.147C98.8561 102.181 98.987 102.147 99.0753 102.053C99.1635 101.963 99.197 101.831 99.1666 101.706L97.4103 94.9866L97.6477 94.6993C100.567 91.177 102.987 87.2862 104.837 83.1331L104.84 83.13Z" fill="url(#paint14_linear_6900_4409)" />
  <path d="M103.65 82.218L99.1025 82.8893C95.109 90.852 88.9848 97.2909 81.3356 101.566L80.7969 106.212C84.5438 104.376 88.0321 102.044 91.1946 99.2581L91.6147 98.8897L97.5928 100.532L95.9917 94.4056L96.354 93.9746C99.34 90.418 101.787 86.4679 103.65 82.2148V82.218Z" fill="#6B1789" />
  <g style="mix-blend-mode:screen">
    <path d="M81.7974 101.675C89.2399 97.3934 95.264 91.0607 99.2669 83.3104L101.349 83.0012C99.6504 86.4829 97.5348 89.7399 95.0448 92.7063L94.3204 93.5682L95.5927 98.4426L90.835 97.1342L89.9948 97.8743C87.3983 100.16 84.5643 102.143 81.5508 103.782L81.7943 101.675H81.7974Z" fill="#6B1789" />
  </g>
  <g style="mix-blend-mode:screen">
    <path d="M85.1914 99.4992C84.0925 100.271 82.9632 101.001 81.7943 101.673L81.5508 103.78C83.0515 102.965 84.5065 102.063 85.9128 101.079L85.1944 99.4961L85.1914 99.4992Z" fill="#3C7DCF" />
  </g>
  <g style="mix-blend-mode:screen">
    <path d="M95.9367 91.6112L94.6674 90.4871C93.538 91.9328 92.3235 93.3068 91.0298 94.5964L95.2822 98.3561L95.5927 98.4404L94.3203 93.566L95.0448 92.7041C95.3492 92.3419 95.6445 91.9765 95.9367 91.6081V91.6112Z" fill="#3C7DCF" />
  </g>
  <path d="M101.237 74.9228C103.764 66.3387 103.666 57.3486 100.951 48.8457L105.097 43.1594C107.057 47.937 108.275 53.0332 108.692 58.3073L108.738 58.8694L114.719 62.4135L108.732 65.9577L108.686 66.5198C108.296 71.3723 107.231 76.075 105.529 80.5185L101.237 74.9228Z" fill="#BD6018" />
  <path d="M114.895 62.1013L109.071 58.6539L109.041 58.2792C108.703 54.0106 107.839 49.82 106.472 45.8231C106.408 45.6357 106.207 45.5389 106.027 45.6045C105.845 45.6701 105.75 45.8761 105.814 46.0604C107.16 50.0011 108.012 54.1324 108.344 58.3385L108.39 58.9006C108.399 59.0193 108.463 59.1223 108.563 59.1817L114.021 62.4136L108.56 65.6486C108.46 65.7079 108.396 65.8141 108.387 65.9296L108.341 66.4917C107.957 71.2849 106.904 75.9595 105.209 80.3874C105.139 80.5716 105.227 80.7808 105.406 80.8527C105.449 80.8683 105.492 80.8777 105.534 80.8777C105.674 80.8777 105.805 80.7902 105.86 80.6497C107.58 76.1563 108.651 71.413 109.041 66.5479L109.071 66.1732L114.901 62.7227C115.01 62.6571 115.074 62.5416 115.074 62.4136C115.074 62.2855 115.007 62.1669 114.901 62.1044L114.895 62.1013Z" fill="url(#paint15_linear_6900_4409)" />
  <path d="M107.675 59.2689L107.632 58.7006C107.291 54.0042 106.29 49.4202 104.652 45.0422L101.913 48.7988C104.579 57.3235 104.677 66.3385 102.199 74.9414L105.039 78.6417C106.439 74.6073 107.31 70.4011 107.626 66.12L107.669 65.5548L112.978 62.4103L107.672 59.2689H107.675Z" fill="#6B1789" />
  <g style="mix-blend-mode:screen">
    <path d="M102.829 74.1429C105.158 65.6837 105.06 56.8186 102.546 48.4343L103.794 46.72C105.008 50.4328 105.769 54.2892 106.056 58.2144L106.138 59.3479L110.348 61.8429L106.132 64.3378L106.05 65.4714C105.788 68.9937 105.142 72.4723 104.129 75.8385L102.826 74.1397L102.829 74.1429Z" fill="#6B1789" />
  </g>
  <g style="mix-blend-mode:screen">
    <path d="M104.675 49.7258L103.147 50.6345C103.424 51.7587 103.658 52.8859 103.853 54.0226L105.412 53.0983C105.208 51.9648 104.964 50.8406 104.678 49.729L104.675 49.7258Z" fill="#3C7DCF" />
  </g>
  <g style="mix-blend-mode:screen">
    <path d="M105.691 68.822C105.853 67.7104 105.978 66.5956 106.063 65.4745L106.145 64.341L110.361 61.8461L108.991 61.0342L104.468 63.7196C104.379 65.8055 104.151 67.8883 103.78 69.9555L105.691 68.822Z" fill="#3C7DCF" />
  </g>
  <defs>
    <linearGradient id="paint0_linear_6900_4409" x1="88.7387" y1="84.7486" x2="49.764" y2="23.357" gradientUnits="userSpaceOnUse">
      <stop stop-color="#BB7239" />
      <stop offset="0.23" stop-color="#FCEEAE" />
      <stop offset="0.52" stop-color="#E09E5B" />
      <stop offset="0.75" stop-color="#FCE9A4" />
      <stop offset="0.83" stop-color="#F1D693" />
      <stop offset="0.92" stop-color="#E1BD7C" />
      <stop offset="1" stop-color="#D08A4A" />
    </linearGradient>
    <linearGradient id="paint1_linear_6900_4409" x1="83.7008" y1="58.648" x2="19.6842" y2="30.5939" gradientUnits="userSpaceOnUse">
      <stop stop-color="#BB7239" />
      <stop offset="0.23" stop-color="#FCEEAE" />
      <stop offset="0.52" stop-color="#E09E5B" />
      <stop offset="0.75" stop-color="#FCE9A4" />
      <stop offset="0.83" stop-color="#F1D693" />
      <stop offset="0.92" stop-color="#E1BD7C" />
      <stop offset="1" stop-color="#D08A4A" />
    </linearGradient>
    <linearGradient id="paint2_linear_6900_4409" x1="19.0573" y1="57.3838" x2="107.087" y2="45.0868" gradientUnits="userSpaceOnUse">
      <stop stop-color="#BB7239" />
      <stop offset="0.23" stop-color="#FCEEAE" />
      <stop offset="0.52" stop-color="#E09E5B" />
      <stop offset="0.75" stop-color="#FCE9A4" />
      <stop offset="0.83" stop-color="#F1D693" />
      <stop offset="0.92" stop-color="#E1BD7C" />
      <stop offset="1" stop-color="#D08A4A" />
    </linearGradient>
    <linearGradient id="paint3_linear_6900_4409" x1="-7.35596" y1="31.6762" x2="80.3926" y2="19.4151" gradientUnits="userSpaceOnUse">
      <stop stop-color="#BB7239" />
      <stop offset="0.23" stop-color="#FCEEAE" />
      <stop offset="0.52" stop-color="#E09E5B" />
      <stop offset="0.75" stop-color="#FCE9A4" />
      <stop offset="0.83" stop-color="#F1D693" />
      <stop offset="0.92" stop-color="#E1BD7C" />
      <stop offset="1" stop-color="#D08A4A" />
    </linearGradient>
    <linearGradient id="paint4_linear_6900_4409" x1="25.5725" y1="26.9814" x2="3.67132" y2="11.9683" gradientUnits="userSpaceOnUse">
      <stop stop-color="#BB7239" />
      <stop offset="0.23" stop-color="#FCEEAE" />
      <stop offset="0.52" stop-color="#E09E5B" />
      <stop offset="0.75" stop-color="#FCE9A4" />
      <stop offset="0.83" stop-color="#F1D693" />
      <stop offset="0.92" stop-color="#E1BD7C" />
      <stop offset="1" stop-color="#D08A4A" />
    </linearGradient>
    <linearGradient id="paint5_linear_6900_4409" x1="11.5631" y1="58.4034" x2="-4.76618" y2="54.0413" gradientUnits="userSpaceOnUse">
      <stop stop-color="#BB7239" />
      <stop offset="0.23" stop-color="#FCEEAE" />
      <stop offset="0.52" stop-color="#E09E5B" />
      <stop offset="0.75" stop-color="#FCE9A4" />
      <stop offset="0.83" stop-color="#F1D693" />
      <stop offset="0.92" stop-color="#E1BD7C" />
      <stop offset="1" stop-color="#D08A4A" />
    </linearGradient>
    <linearGradient id="paint6_linear_6900_4409" x1="13.355" y1="55.9517" x2="21.0712" y2="55.7838" gradientUnits="userSpaceOnUse">
      <stop stop-color="#BB7239" />
      <stop offset="0.23" stop-color="#FCEEAE" />
      <stop offset="0.52" stop-color="#E09E5B" />
      <stop offset="0.75" stop-color="#FCE9A4" />
      <stop offset="0.83" stop-color="#F1D693" />
      <stop offset="0.92" stop-color="#E1BD7C" />
      <stop offset="1" stop-color="#D08A4A" />
    </linearGradient>
    <linearGradient id="paint7_linear_6900_4409" x1="55.9347" y1="12.0487" x2="45.5828" y2="-7.21015" gradientUnits="userSpaceOnUse">
      <stop stop-color="#BB7239" />
      <stop offset="0.23" stop-color="#FCEEAE" />
      <stop offset="0.52" stop-color="#E09E5B" />
      <stop offset="0.75" stop-color="#FCE9A4" />
      <stop offset="0.83" stop-color="#F1D693" />
      <stop offset="0.92" stop-color="#E1BD7C" />
      <stop offset="1" stop-color="#D08A4A" />
    </linearGradient>
    <linearGradient id="paint8_linear_6900_4409" x1="59.2209" y1="11.9595" x2="47.2996" y2="-6.36065" gradientUnits="userSpaceOnUse">
      <stop stop-color="#BB7239" />
      <stop offset="0.23" stop-color="#FCEEAE" />
      <stop offset="0.52" stop-color="#E09E5B" />
      <stop offset="0.75" stop-color="#FCE9A4" />
      <stop offset="0.83" stop-color="#F1D693" />
      <stop offset="0.92" stop-color="#E1BD7C" />
      <stop offset="1" stop-color="#D08A4A" />
    </linearGradient>
    <linearGradient id="paint9_linear_6900_4409" x1="92.7349" y1="26.6337" x2="106.143" y2="25.8158" gradientUnits="userSpaceOnUse">
      <stop stop-color="#BB7239" />
      <stop offset="0.23" stop-color="#FCEEAE" />
      <stop offset="0.52" stop-color="#E09E5B" />
      <stop offset="0.75" stop-color="#FCE9A4" />
      <stop offset="0.83" stop-color="#F1D693" />
      <stop offset="0.92" stop-color="#E1BD7C" />
      <stop offset="1" stop-color="#D08A4A" />
    </linearGradient>
    <linearGradient id="paint10_linear_6900_4409" x1="74.9945" y1="18.492" x2="92.6642" y2="14.7237" gradientUnits="userSpaceOnUse">
      <stop stop-color="#BB7239" />
      <stop offset="0.23" stop-color="#FCEEAE" />
      <stop offset="0.52" stop-color="#E09E5B" />
      <stop offset="0.75" stop-color="#FCE9A4" />
      <stop offset="0.83" stop-color="#F1D693" />
      <stop offset="0.92" stop-color="#E1BD7C" />
      <stop offset="1" stop-color="#D08A4A" />
    </linearGradient>
    <linearGradient id="paint11_linear_6900_4409" x1="35.8661" y1="109.051" x2="53.5704" y2="99.7445" gradientUnits="userSpaceOnUse">
      <stop stop-color="#BB7239" />
      <stop offset="0.23" stop-color="#FCEEAE" />
      <stop offset="0.52" stop-color="#E09E5B" />
      <stop offset="0.75" stop-color="#FCE9A4" />
      <stop offset="0.83" stop-color="#F1D693" />
      <stop offset="0.92" stop-color="#E1BD7C" />
      <stop offset="1" stop-color="#D08A4A" />
    </linearGradient>
    <linearGradient id="paint12_linear_6900_4409" x1="51.0787" y1="106.506" x2="80.7798" y2="100.883" gradientUnits="userSpaceOnUse">
      <stop stop-color="#BB7239" />
      <stop offset="0.23" stop-color="#FCEEAE" />
      <stop offset="0.52" stop-color="#E09E5B" />
      <stop offset="0.75" stop-color="#FCE9A4" />
      <stop offset="0.83" stop-color="#F1D693" />
      <stop offset="0.92" stop-color="#E1BD7C" />
      <stop offset="1" stop-color="#D08A4A" />
    </linearGradient>
    <linearGradient id="paint13_linear_6900_4409" x1="12.073" y1="101.365" x2="41.7437" y2="91.581" gradientUnits="userSpaceOnUse">
      <stop stop-color="#BB7239" />
      <stop offset="0.23" stop-color="#FCEEAE" />
      <stop offset="0.52" stop-color="#E09E5B" />
      <stop offset="0.75" stop-color="#FCE9A4" />
      <stop offset="0.83" stop-color="#F1D693" />
      <stop offset="0.92" stop-color="#E1BD7C" />
      <stop offset="1" stop-color="#D08A4A" />
    </linearGradient>
    <linearGradient id="paint14_linear_6900_4409" x1="69.5311" y1="87.5402" x2="107.036" y2="82.3033" gradientUnits="userSpaceOnUse">
      <stop stop-color="#BB7239" />
      <stop offset="0.23" stop-color="#FCEEAE" />
      <stop offset="0.52" stop-color="#E09E5B" />
      <stop offset="0.75" stop-color="#FCE9A4" />
      <stop offset="0.83" stop-color="#F1D693" />
      <stop offset="0.92" stop-color="#E1BD7C" />
      <stop offset="1" stop-color="#D08A4A" />
    </linearGradient>
    <linearGradient id="paint15_linear_6900_4409" x1="100.595" y1="52.5074" x2="116.235" y2="51.872" gradientUnits="userSpaceOnUse">
      <stop stop-color="#BB7239" />
      <stop offset="0.23" stop-color="#FCEEAE" />
      <stop offset="0.52" stop-color="#E09E5B" />
      <stop offset="0.75" stop-color="#FCE9A4" />
      <stop offset="0.83" stop-color="#F1D693" />
      <stop offset="0.92" stop-color="#E1BD7C" />
      <stop offset="1" stop-color="#D08A4A" />
    </linearGradient>
  </defs>
</svg>
