<svg viewBox="0 0 121 124" fill="none" xmlns="http://www.w3.org/2000/svg">
  <path d="M55.5582 114.634C45.5682 113.6 36.2327 109.625 28.4465 103.089L18.3986 105.853L21.0925 95.5451C14.7217 87.5574 10.8468 77.9803 9.83928 67.7318L0.859863 62.414L9.83319 57.0993C10.8285 46.8352 14.7034 37.2394 21.0803 29.2392L18.3986 18.972L28.3978 21.7199C36.2023 15.1499 45.5682 11.1592 55.5948 10.1287L60.745 0.976318L65.8922 10.1225C75.9339 11.1405 85.3151 15.1312 93.1318 21.7074L103.088 18.9689L100.419 29.183C106.829 37.2019 110.719 46.8258 111.712 57.1274L120.627 62.4078L111.705 67.6912C110.701 77.9772 106.811 87.5855 100.41 95.5919L103.088 105.85L93.08 103.099C85.2816 109.641 75.9278 113.616 65.9226 114.637L60.7419 123.842L55.5582 114.631V114.634ZM25.0678 80.5003L25.4939 81.3371C29.4205 89.0469 35.5265 95.1516 43.1545 98.9893L43.9824 99.4078L44.6003 103.808L48.0064 101.056L48.8861 101.341C52.764 102.593 56.7697 103.227 60.7937 103.227C65.1221 103.227 69.4139 102.493 73.5445 101.05L74.4181 100.744L77.8637 103.389L78.372 99.008L79.1908 98.5709C86.7214 94.5458 92.6843 88.2787 96.4344 80.444L96.8422 79.5947L101.095 78.967L98.4403 75.5072L98.7203 74.6016C101.289 66.2611 101.192 57.4865 98.4433 49.2271L98.145 48.331L100.69 44.843L96.477 44.3277L96.0508 43.4878C92.1212 35.7343 85.9878 29.6014 78.3203 25.7481L77.4893 25.3328L76.8836 21.0111L73.5414 23.709L72.6587 23.4249C68.7686 22.1665 64.7507 21.5263 60.7146 21.5263C56.3588 21.5263 52.0456 22.2664 47.8938 23.7278L47.0202 24.0338L43.6232 21.4264L43.121 25.7512L42.3022 26.1884C34.7595 30.2228 28.7935 36.5118 25.0465 44.3683L24.6416 45.2208L20.3924 45.8485L23.0497 49.3115L22.7727 50.2139C20.2219 58.5419 20.3285 67.3009 23.0771 75.5415L23.3754 76.4377L20.8003 79.9694L25.0739 80.4909L25.0678 80.5003Z" fill="url(#paint0_linear_6900_4684)" />
  <g style="mix-blend-mode:screen" opacity="0.5">
    <path d="M22.2763 95.8672C22.3798 95.4737 22.2885 95.0553 22.0359 94.7399C15.8356 86.9646 12.0399 77.5842 11.0598 67.6105C11.0202 67.2046 10.798 66.8455 10.4541 66.6425L3.31016 62.4114L10.448 58.1833C10.7919 57.9804 11.0141 57.6181 11.0537 57.2122C12.0247 47.2229 15.8204 37.8269 22.0237 30.0391C22.2733 29.7237 22.3646 29.3053 22.2642 28.9118L20.1304 20.7462L28.081 22.932C28.4614 23.0382 28.8693 22.9476 29.1737 22.6884C36.7711 16.2933 45.9483 12.3807 55.7069 11.3783C56.1026 11.3377 56.4526 11.1097 56.6535 10.7569L60.5222 3.88399C60.6775 3.60607 60.6044 3.25322 60.3518 3.06273C60.0565 2.84415 59.6426 2.93471 59.463 3.25634L55.5943 10.1292C45.5678 11.1597 36.2019 15.1504 28.3975 21.7204L18.3985 18.9725L21.0801 29.2397C14.7033 37.2399 10.8285 46.8357 9.83311 57.0998L0.859863 62.4145L9.8392 67.7323C10.8467 77.9808 14.7215 87.5579 21.0923 95.5456L18.9646 103.696C18.8581 104.108 19.1747 104.511 19.5917 104.486C19.8534 104.47 20.0787 104.283 20.1457 104.02L22.2733 95.8703L22.2763 95.8672Z" fill="#FFE46B" />
  </g>
  <path d="M120.628 62.4114L111.713 57.131C110.72 46.8295 106.83 37.2055 100.42 29.1866L102.088 22.804C102.319 21.9234 101.571 21.0959 100.697 21.2677C100.244 21.3551 99.8813 21.7017 99.7596 22.1576L97.7293 29.7987C104.344 37.8675 108.565 48.1566 109.387 58.6517L115.143 62.4114L109.381 66.1741C108.404 76.1853 103.951 87.1863 97.7171 94.9835L99.096 101.641L92.4878 100.339C84.8965 106.709 74.1243 111.024 64.384 112.021L60.6766 118.06C60.3935 118.522 60.3814 119.109 60.6492 119.584C61.2032 120.567 62.5851 120.567 63.1391 119.584L65.9272 114.637C75.9324 113.616 85.2861 109.641 93.0844 103.099L103.093 105.85L100.414 95.5924C106.818 87.586 110.708 77.9777 111.71 67.6917L120.631 62.4083L120.628 62.4114Z" fill="url(#paint1_linear_6900_4684)" />
  <path d="M99.8091 75.2551L99.8913 74.9834C102.539 66.3868 102.439 57.3406 99.6051 48.8252L99.5169 48.5566L100.75 46.8267C100.944 46.555 100.887 46.171 100.625 45.9711C100.36 45.7681 99.9826 45.8243 99.7847 46.096L98.1502 48.3381L98.4485 49.2343C101.197 57.4936 101.294 66.2682 98.7255 74.6087L98.4454 75.5143L101.1 78.9741L96.8474 79.6018L96.4395 80.4511C92.6895 88.2858 86.7266 94.556 79.1962 98.578L78.3774 99.0151L77.8691 103.396L74.4234 100.751L73.5498 101.057C69.4193 102.5 65.1306 103.234 60.7992 103.234C56.7752 103.234 52.7695 102.6 48.8917 101.348L48.012 101.064L45.8996 102.769C45.6348 102.984 45.5891 103.377 45.7961 103.649C46.0061 103.921 46.3896 103.968 46.6544 103.755L48.2616 102.459L48.5264 102.544C52.523 103.833 56.6535 104.486 60.7992 104.486C65.2645 104.486 69.6872 103.73 73.9425 102.241L74.2043 102.15L77.102 104.374C77.3486 104.564 77.6529 104.673 77.9604 104.645C78.5661 104.592 79.0166 104.121 79.0835 103.54L79.5158 99.8177L79.7623 99.6865C87.5241 95.5397 93.6727 89.0758 97.5384 80.9976L97.6601 80.7415L101.252 80.2107C101.517 80.1732 101.769 80.0577 101.958 79.8641C102.418 79.3863 102.433 78.6712 102.062 78.1904L99.806 75.252L99.8091 75.2551Z" fill="url(#paint2_linear_6900_4684)" />
  <path d="M21.6864 49.5762L21.6042 49.8478C18.9743 58.4319 19.0839 67.4626 21.9177 75.9561L22.006 76.2247L20.8645 77.7891C20.8645 77.7891 20.8554 77.8016 20.8524 77.8047C20.3897 78.4605 21.385 79.1693 21.8568 78.5229L23.3727 76.4432L23.0744 75.547C20.3258 67.3064 20.2223 58.5475 22.77 50.2194L23.047 49.317L20.3897 45.854L24.6389 45.2264L25.0437 44.3739C28.7907 36.5174 34.7566 30.2284 42.2993 26.1939L43.1181 25.7568L43.6203 21.4319L47.0173 24.0393L47.8908 23.7333C52.0426 22.2719 56.3558 21.5319 60.7115 21.5319C64.7476 21.5319 68.7655 22.1689 72.6555 23.4304L73.5382 23.7146L75.4072 22.2063C76.0281 21.7067 75.3098 20.7044 74.6827 21.1946C74.6766 21.1977 74.6706 21.204 74.6675 21.2071L73.2917 22.3188L73.0269 22.2345C69.0181 20.9354 64.8755 20.2797 60.7145 20.2797C56.2249 20.2797 51.7778 21.0447 47.4982 22.5498L47.2364 22.6435L44.3904 20.4577C44.1439 20.2672 43.8395 20.1579 43.532 20.186C42.9263 20.2391 42.4758 20.7106 42.4089 21.2914L41.9827 24.9605L41.7362 25.0917C33.9592 29.251 27.8076 35.7336 23.948 43.8337L23.8262 44.0897L20.2406 44.6206C19.9757 44.6612 19.7231 44.7736 19.5344 44.9672C19.0748 45.4449 19.0595 46.1569 19.4309 46.6409L21.6894 49.5855L21.6864 49.5762Z" fill="url(#paint3_linear_6900_4684)" />
  <path d="M15.9419 43.6112C17.8443 38.843 20.4803 34.3807 23.8011 30.365L24.1572 29.9341L22.3522 23.0269L29.0791 24.8755L29.4992 24.5101C33.1092 21.3625 37.0875 18.8082 41.3275 16.894L40.5118 23.9168C32.8322 28.1574 26.7171 34.5993 22.7753 42.6026L15.9419 43.6143V43.6112Z" fill="url(#paint4_linear_6900_4684)" />
  <path d="M23.8157 30.0284C23.8584 30.1877 23.9984 30.2939 24.1536 30.2939C24.1841 30.2939 24.2145 30.2907 24.2449 30.2814C24.4306 30.2314 24.5433 30.0347 24.4915 29.8411L22.6864 22.9338C22.6377 22.7433 22.4459 22.6278 22.2572 22.6809C22.0715 22.7309 21.9589 22.9276 22.0106 23.1212L23.8157 30.0284Z" fill="#FFE46B" />
  <path d="M40.8217 23.7476C40.7304 23.5727 40.5173 23.5071 40.3469 23.6008C32.6672 27.8382 26.5156 34.2927 22.5465 42.2741L15.8926 43.2577C15.7009 43.2858 15.57 43.467 15.5974 43.6637C15.6217 43.8417 15.7709 43.9697 15.9444 43.9697C15.9596 43.9697 15.9779 43.9697 15.9961 43.9666L23.0091 42.9299L23.0913 42.7644C26.9935 34.8391 33.0751 28.4315 40.6817 24.2347C40.8521 24.141 40.9161 23.9224 40.8247 23.7476H40.8217Z" fill="#FFE46B" />
  <path d="M17.5582 42.5993L22.0661 41.9342C26.0536 33.9496 32.1839 27.492 39.8452 23.2015L40.381 18.5769C36.6309 20.4193 33.1366 22.7612 29.971 25.5591L29.551 25.9307L23.5789 24.2882L25.18 30.421L24.8208 30.8519C21.847 34.4055 19.4089 38.3525 17.5552 42.5993H17.5582Z" fill="#E27222" />
  <g style="mix-blend-mode:screen">
    <path d="M18.8112 40.6818C20.5006 37.2063 22.607 33.9525 25.0909 30.986L25.8123 30.1242L24.5369 25.2435L29.2886 26.5488L30.1287 25.8056C32.7283 23.5105 35.5623 21.5214 38.5789 19.8757L38.3354 21.9616C30.8776 26.2553 24.8474 32.6067 20.8506 40.382L18.8081 40.6849L18.8112 40.6818Z" fill="#E27222" />
  </g>
  <g style="mix-blend-mode:screen">
    <path d="M22.7032 37.1312C23.7412 35.4606 24.8766 33.868 26.1063 32.3598L25.4154 30.5986L25.0957 30.9796C23.9664 32.3286 22.9193 33.7431 21.9482 35.2045L22.7032 37.1281V37.1312Z" fill="#3C7DCF" />
  </g>
  <g style="mix-blend-mode:screen">
    <path d="M34.3855 22.4741C33.3901 23.1673 32.4222 23.898 31.4785 24.6693L32.1208 26.2993C33.0553 25.5218 34.0233 24.7849 35.0217 24.0854L34.3886 22.4741H34.3855Z" fill="#3C7DCF" />
  </g>
  <path d="M16.1361 81.5954C14.191 76.8458 12.9764 71.7872 12.5533 66.5537L12.5077 65.9916L6.46533 62.4131L12.5046 58.8346L12.5503 58.2725C12.9338 53.4418 13.9901 48.7609 15.6765 44.3362L19.9502 49.9101C17.442 58.4786 17.5516 67.4561 20.2607 75.9403L16.1331 81.5985L16.1361 81.5954Z" fill="url(#paint5_linear_6900_4684)" />
  <path d="M18.9688 49.8882L16.1501 46.2129C14.7651 50.2317 13.9036 54.4129 13.5901 58.6722L13.5475 59.2374L8.18701 62.4131L13.5536 65.5919L13.5962 66.1571C13.9432 70.8161 14.9416 75.3689 16.5641 79.7124L19.2824 75.984C16.6189 67.478 16.5093 58.4786 18.9688 49.8914V49.8882Z" fill="#E27222" />
  <g style="mix-blend-mode:screen">
    <path d="M16.3687 76.8956C15.1663 73.214 14.4083 69.3919 14.1191 65.5043L14.0339 64.3739L9.76318 61.8445L14.0309 59.3184L14.1131 58.1848C14.3688 54.6875 15.008 51.2308 16.0095 47.8833L17.291 49.5539C14.9806 57.9975 15.0871 66.847 17.5984 75.2125L16.3687 76.8987V76.8956Z" fill="#E27222" />
  </g>
  <path d="M12.481 66.3723C12.621 66.4567 12.7945 66.4285 12.9041 66.3161C12.9254 66.2943 12.9437 66.2693 12.9589 66.2412C13.0563 66.0695 12.9985 65.8509 12.831 65.7509L6.7948 62.1755C6.62738 62.0756 6.4143 62.1349 6.31689 62.3067C6.21948 62.4784 6.27732 62.697 6.44474 62.7969L12.481 66.3723Z" fill="#FFE46B" />
  <path d="M20.1704 49.5975C19.9847 49.5413 19.7899 49.6475 19.7351 49.838C17.2268 58.4065 17.3242 67.4308 20.0182 75.9525L15.991 81.4764C15.8753 81.6357 15.9057 81.8605 16.061 81.9792C16.201 82.0885 16.3958 82.0697 16.5176 81.9448C16.5297 81.9323 16.5389 81.9199 16.5511 81.9042L20.7944 76.0837L20.7366 75.9057C18.0335 67.4715 17.9178 58.5283 20.4017 50.0441C20.4565 49.8536 20.353 49.6538 20.1673 49.5975H20.1704Z" fill="url(#paint6_linear_6900_4684)" />
  <g style="mix-blend-mode:screen">
    <path d="M15.8268 57.6092L14.2013 57.1533C14.1678 57.4968 14.1374 57.8372 14.1131 58.1807L14.0309 59.3142L9.76318 61.8404L14.0339 64.3697L14.1191 65.5001C14.1922 66.4587 14.2927 67.4143 14.4205 68.3667L16.1678 68.8569C15.5985 65.1316 15.4859 61.3564 15.8299 57.6061L15.8268 57.6092Z" fill="#3C7DCF" />
  </g>
  <path d="M41.9927 16.6033C46.6437 14.5892 51.6021 13.3401 56.7371 12.9061L57.2849 12.8592L60.7397 6.71704L64.1945 12.853L64.7424 12.8998C69.4816 13.2933 74.0717 14.3831 78.4092 16.1286L72.9668 20.5253C68.9703 19.2887 64.8519 18.6642 60.7123 18.6642C56.2318 18.6642 51.7939 19.3949 47.5142 20.8407L41.9957 16.6064L41.9927 16.6033Z" fill="url(#paint7_linear_6900_4684)" />
  <path d="M78.7547 16.0749C78.7364 15.9469 78.6542 15.8407 78.5355 15.7938C74.1493 14.0296 69.5197 12.9366 64.7713 12.5432L64.406 12.512L61.0456 6.53837C60.9482 6.36662 60.7351 6.3073 60.5677 6.40722C60.4003 6.50715 60.3425 6.72573 60.4399 6.89748L63.8946 13.0334C63.9525 13.1365 64.056 13.2021 64.1686 13.2114L64.7165 13.2583C69.1909 13.6299 73.5588 14.6322 77.7106 16.2372L72.8922 20.128C68.92 18.9165 64.82 18.3044 60.7108 18.3044C56.1968 18.3044 51.7193 19.0414 47.4031 20.4965C47.2205 20.559 47.12 20.7619 47.1809 20.9493C47.2296 21.0992 47.3666 21.196 47.5127 21.196C47.5492 21.196 47.5857 21.1897 47.6222 21.1772C51.8684 19.7471 56.2729 19.0195 60.7138 19.0195C64.8139 19.0195 68.9048 19.6409 72.8679 20.865C72.9775 20.8993 73.0962 20.8743 73.1844 20.8025L78.6299 16.4059C78.7273 16.3278 78.779 16.1998 78.7608 16.0718L78.7547 16.0749Z" fill="url(#paint8_linear_6900_4684)" />
  <path d="M60.7057 17.7057C64.8484 17.7057 68.9728 18.3209 72.9785 19.5324L76.5763 16.6284C72.6376 15.192 68.5315 14.3052 64.3523 13.9835L63.7983 13.9398L60.7362 8.49707L57.671 13.9429L57.1201 13.9867C52.5483 14.3426 48.086 15.3731 43.8276 17.0531L47.465 19.8447C51.766 18.4239 56.2191 17.7026 60.7088 17.7026L60.7057 17.7057Z" fill="#E27222" />
  <g style="mix-blend-mode:screen">
    <path d="M45.4863 16.8219C49.0994 15.5729 52.8524 14.7922 56.6725 14.4956L57.7774 14.4113L60.2094 10.0864L62.6414 14.405L63.7463 14.4893C67.1859 14.7516 70.5828 15.4105 73.8702 16.4534L72.2295 17.7806C68.2908 16.6408 64.2425 16.0631 60.182 16.0631C55.7654 16.0631 51.3792 16.7439 47.1361 18.0866L45.4894 16.8219H45.4863Z" fill="#E27222" />
  </g>
  <g style="mix-blend-mode:screen">
    <path d="M71.0518 15.6629C68.6592 15.0759 66.221 14.6793 63.7584 14.4919L63.5483 14.4763L63.9806 16.2375C66.5193 16.4623 69.0428 16.912 71.5206 17.5864L71.0487 15.6629H71.0518Z" fill="#3C7DCF" />
  </g>
  <g style="mix-blend-mode:screen">
    <path d="M53.0039 14.9388L53.4118 16.6031C54.5746 16.4189 55.7435 16.2784 56.9154 16.1878L56.5045 14.511C55.3295 14.6078 54.1637 14.7514 53.0039 14.9388Z" fill="#3C7DCF" />
  </g>
  <path d="M98.2699 41.6624C94.1424 33.7653 87.8569 27.4794 80.0464 23.4294L79.0571 16.3972C83.7264 18.3551 88.0943 21.078 92.0269 24.5067L92.447 24.872L99.1313 23.0328L97.3415 29.8901L97.6976 30.321C100.775 34.0369 103.271 38.1338 105.137 42.5024L98.2699 41.6624Z" fill="#BD6018" />
  <path d="M105.135 42.8611C105.135 42.8611 105.108 42.8611 105.093 42.8611L98.2253 42.0211C98.0335 41.9961 97.8966 41.8181 97.9179 41.6214C97.9422 41.4247 98.1157 41.2841 98.3075 41.306L104.563 42.071C102.73 37.9336 100.332 34.0615 97.4247 30.5517L97.0686 30.1207C96.9955 30.0302 96.9681 29.9084 96.9986 29.796L98.7884 22.9387C98.8372 22.7482 99.032 22.6327 99.2177 22.6858C99.4033 22.7357 99.516 22.9325 99.4642 23.1261L97.72 29.8022L97.9574 30.0895C101.041 33.8117 103.564 37.9429 105.452 42.3614C105.504 42.4801 105.488 42.6144 105.412 42.7205C105.345 42.8111 105.242 42.8642 105.132 42.8642L105.135 42.8611Z" fill="url(#paint9_linear_6900_4684)" />
  <path d="M92.0264 24.8623C91.9473 24.8623 91.8651 24.8342 91.8012 24.778C88.4832 21.8833 84.8213 19.4758 80.9189 17.6209C80.7423 17.5366 80.6662 17.3243 80.7484 17.1463C80.8306 16.9652 81.0376 16.8871 81.2111 16.9715C85.1714 18.8544 88.885 21.2994 92.2547 24.2347C92.4009 24.3627 92.4191 24.5907 92.2943 24.7405C92.2243 24.8249 92.1269 24.8654 92.0264 24.8654V24.8623Z" fill="url(#paint10_linear_6900_4684)" />
  <path d="M98.9612 40.9737L103.49 41.5264C101.691 37.6606 99.4025 34.0602 96.6692 30.8033L96.3069 30.3724L97.8958 24.2895L91.9664 25.9195L91.5464 25.5479C88.0673 22.4752 84.2016 19.9584 80.0376 18.0474L80.689 22.6938C88.4812 26.7938 94.782 33.0953 98.9581 40.9737H98.9612Z" fill="#E27222" />
  <g style="mix-blend-mode:screen">
    <path d="M99.103 39.4044C94.9175 31.7384 88.7229 25.54 81.1343 21.4306L80.8359 19.3135C84.2452 21.0559 87.4384 23.2355 90.3454 25.7992L91.1855 26.5423L95.8946 25.2465L94.6313 30.0772L95.3558 30.939C97.6053 33.6182 99.5504 36.5441 101.158 39.6574L99.0999 39.4044H99.103Z" fill="#E27222" />
  </g>
  <g style="mix-blend-mode:screen">
    <path d="M90.3492 25.8C88.7298 24.3699 87.019 23.0646 85.2322 21.8843L84.3799 23.3769C87.3874 25.3535 90.1361 27.6767 92.5774 30.3122L95.387 25.3847L91.1863 26.5401L90.3461 25.7969L90.3492 25.8Z" fill="#3C7DCF" />
  </g>
  <path d="M57.2505 111.907L56.7026 111.86C51.9999 111.46 47.4433 110.373 43.1362 108.643L48.5786 104.25C52.563 105.477 56.6692 106.099 60.7936 106.099C65.2467 106.099 69.6603 105.374 73.9186 103.95L79.4584 108.203C74.8226 110.199 69.8825 111.438 64.7719 111.866L64.224 111.913L60.7388 118.108L57.2505 111.91V111.907Z" fill="#BD6018" />
  <path d="M56.7323 111.499C52.0872 111.105 47.5577 110.031 43.2656 108.304C43.086 108.232 42.8821 108.323 42.8121 108.507C42.7421 108.691 42.8304 108.901 43.01 108.972C47.3659 110.721 51.9624 111.811 56.6745 112.214C56.6836 112.214 56.6927 112.214 56.7049 112.214C56.8845 112.214 57.0367 112.073 57.0519 111.886C57.0671 111.689 56.9241 111.514 56.7323 111.499Z" fill="url(#paint11_linear_6900_4684)" />
  <path d="M79.6739 107.913L74.1338 103.66C73.9785 103.541 73.7594 103.575 73.6437 103.731C73.528 103.891 73.5585 104.115 73.7137 104.234L78.7607 108.106C74.3043 109.955 69.5922 111.098 64.7492 111.504L64.2012 111.55C64.0856 111.56 63.9851 111.625 63.9273 111.728L60.4419 117.924C60.3445 118.095 60.4023 118.314 60.5697 118.414C60.6245 118.445 60.6854 118.461 60.7432 118.461C60.865 118.461 60.9807 118.395 61.0476 118.283L64.4417 112.25L64.807 112.219C69.93 111.791 74.907 110.548 79.6008 108.528C79.7165 108.478 79.7987 108.368 79.8139 108.24C79.8291 108.112 79.7774 107.988 79.6769 107.909L79.6739 107.913Z" fill="url(#paint12_linear_6900_4684)" />
  <path d="M60.7928 107.054C56.6654 107.054 52.5531 106.442 48.5596 105.239L44.9648 108.14C48.8731 109.564 52.9458 110.448 57.0915 110.773L57.6424 110.816L60.7411 116.322L63.8367 110.823L64.3876 110.779C68.9351 110.426 73.3791 109.408 77.6222 107.744L73.9635 104.937C69.6869 106.342 65.2581 107.054 60.7959 107.054H60.7928Z" fill="#E27222" />
  <g style="mix-blend-mode:screen">
    <path d="M57.7488 109.221L56.6469 109.134C53.2439 108.865 49.8804 108.21 46.6235 107.182L48.2642 105.858C52.1877 106.989 56.2269 107.563 60.2721 107.563C64.6613 107.563 69.0232 106.892 73.2419 105.562L74.9069 106.839C71.3121 108.072 67.5804 108.843 63.7847 109.137L62.6798 109.221L60.2173 113.599L57.7518 109.218L57.7488 109.221Z" fill="#E27222" />
  </g>
  <g style="mix-blend-mode:screen">
    <path d="M68.3179 106.797C65.6636 107.302 62.9696 107.559 60.2665 107.559C59.4599 107.559 58.6532 107.53 57.8496 107.484L57.9896 109.651L60.2118 113.598L62.6743 109.22L63.7793 109.135C65.3409 109.014 66.8933 108.808 68.4275 108.527L68.3149 106.797H68.3179Z" fill="#3C7DCF" />
  </g>
  <path d="M42.4106 108.344C37.7779 106.392 33.4465 103.691 29.5443 100.297L29.1242 99.9314L22.3486 101.792L24.1627 94.8415L23.8066 94.4106C20.7567 90.7228 18.282 86.6602 16.4253 82.3323L23.2709 83.1691C27.3953 91.0194 33.6504 97.274 41.4213 101.312L42.4106 108.344Z" fill="#BD6018" />
  <path d="M42.7648 108.295L41.7755 101.263C41.7481 101.066 41.5685 100.932 41.3798 100.96C41.188 100.988 41.0571 101.169 41.0845 101.366L41.9855 107.77C37.5808 105.847 33.4775 103.242 29.7791 100.023L29.359 99.6576C29.2707 99.5827 29.152 99.5546 29.0424 99.5858L22.2665 101.447C22.0808 101.497 21.9682 101.694 22.0199 101.887C22.0717 102.081 22.2604 102.193 22.4491 102.14L29.0485 100.326L29.3286 100.569C33.2431 103.973 37.6022 106.702 42.2899 108.676C42.3325 108.695 42.3782 108.704 42.4238 108.704C42.4999 108.704 42.576 108.679 42.64 108.629C42.7404 108.551 42.7891 108.423 42.7709 108.295H42.7648Z" fill="url(#paint13_linear_6900_4684)" />
  <path d="M22.582 83.8567L18.0771 83.3071C19.8639 87.1323 22.1315 90.6984 24.8375 93.9272L25.1997 94.3581L23.5865 100.532L29.6042 98.8765L30.0242 99.2481C33.476 102.29 37.3051 104.788 41.4295 106.686L40.7781 102.046C33.0285 97.9585 26.7521 91.6883 22.582 83.8567Z" fill="#E27222" />
  <g style="mix-blend-mode:screen">
    <path d="M39.5767 104.288C36.207 102.558 33.0504 100.403 30.1708 97.8646L29.3307 97.1246L24.5303 98.4423L25.8148 93.5179L25.0934 92.6561C22.8743 90.005 20.9505 87.1166 19.3555 84.0408L21.3858 84.2906C25.5622 91.9098 31.7324 98.077 39.2784 102.174L39.5737 104.285L39.5767 104.288Z" fill="#E27222" />
  </g>
  <g style="mix-blend-mode:screen">
    <path d="M39.2839 102.177C37.7132 101.324 36.2034 100.375 34.7575 99.3474L34.0635 100.934C35.826 102.183 37.6676 103.304 39.5822 104.287L39.287 102.177H39.2839Z" fill="#3C7DCF" />
  </g>
  <g style="mix-blend-mode:screen">
    <path d="M22.5363 86.2454L21.3491 87.5038C22.4845 89.3024 23.7356 91.0261 25.1024 92.6561L25.4859 93.1151L26.6335 91.8973C25.1328 90.133 23.763 88.2438 22.5363 86.2454Z" fill="#3C7DCF" />
  </g>
  <path d="M80.976 100.854C88.6435 96.629 94.7525 90.2026 98.6973 82.2243L105.573 81.2063C103.665 85.9808 101.017 90.4462 97.6837 94.465L97.3275 94.8959L99.1295 101.797L92.3965 99.9452L91.9765 100.311C88.3695 103.449 84.3943 105.991 80.1572 107.899L80.976 100.857V100.854Z" fill="#BD6018" />
  <path d="M105.144 83.13C105.223 82.9489 105.147 82.7365 104.97 82.6553C104.797 82.5741 104.587 82.6553 104.507 82.8333C102.681 86.9271 100.298 90.7617 97.4183 94.234L97.0621 94.665C96.9891 94.7555 96.9617 94.8773 96.9921 94.9897L98.6388 101.291L92.4903 99.6018C92.3807 99.5706 92.262 99.5987 92.1737 99.6736L91.7537 100.039C88.5394 102.834 85.0024 105.176 81.2372 107.002C81.0637 107.087 80.9876 107.302 81.0698 107.48C81.1307 107.608 81.2554 107.686 81.3863 107.686C81.435 107.686 81.4868 107.674 81.5355 107.652C85.3525 105.8 88.9442 103.424 92.2042 100.589L92.4842 100.345L99.0406 102.147C99.1593 102.181 99.2902 102.147 99.3785 102.053C99.4668 101.963 99.5002 101.831 99.4698 101.706L97.7135 94.9866L97.9509 94.6993C100.87 91.177 103.29 87.2862 105.14 83.1331L105.144 83.13Z" fill="url(#paint14_linear_6900_4684)" />
  <path d="M103.954 82.218L99.4062 82.8893C95.4127 90.852 89.2885 97.2909 81.6393 101.566L81.1006 106.212C84.8476 104.376 88.3358 102.044 91.4984 99.2581L91.9184 98.8897L97.8965 100.532L96.2954 94.4056L96.6577 93.9746C99.6437 90.418 102.091 86.4679 103.954 82.2148V82.218Z" fill="#E27222" />
  <g style="mix-blend-mode:screen">
    <path d="M82.1006 101.675C89.5432 97.3934 95.5672 91.0607 99.5701 83.3104L101.652 83.0012C99.9536 86.4829 97.838 89.7399 95.3481 92.7063L94.6236 93.5682L95.896 98.4426L91.1382 97.1342L90.2981 97.8743C87.7015 100.16 84.8676 102.143 81.854 103.782L82.0975 101.675H82.1006Z" fill="#E27222" />
  </g>
  <g style="mix-blend-mode:screen">
    <path d="M85.4946 99.4992C84.3957 100.271 83.2664 101.001 82.0975 101.673L81.854 103.78C83.3547 102.965 84.8097 102.063 86.216 101.079L85.4977 99.4961L85.4946 99.4992Z" fill="#3C7DCF" />
  </g>
  <g style="mix-blend-mode:screen">
    <path d="M96.2399 91.6112L94.9706 90.4871C93.8413 91.9328 92.6267 93.3068 91.333 94.5964L95.5855 98.3561L95.896 98.4404L94.6236 93.566L95.348 92.7041C95.6524 92.3419 95.9477 91.9765 96.2399 91.6081V91.6112Z" fill="#3C7DCF" />
  </g>
  <path d="M101.545 74.9228C104.072 66.3387 103.975 57.3486 101.259 48.8457L105.405 43.1594C107.366 47.937 108.583 53.0332 109 58.3073L109.046 58.8694L115.027 62.4135L109.04 65.9577L108.994 66.5198C108.604 71.3723 107.539 76.075 105.837 80.5185L101.545 74.9228Z" fill="#BD6018" />
  <path d="M115.203 62.1013L109.38 58.6539L109.349 58.2792C109.011 54.0106 108.147 49.82 106.78 45.8231C106.716 45.6357 106.515 45.5389 106.336 45.6045C106.153 45.6701 106.059 45.8761 106.122 46.0604C107.468 50.0011 108.32 54.1324 108.652 58.3385L108.698 58.9006C108.707 59.0193 108.771 59.1223 108.871 59.1817L114.329 62.4136L108.868 65.6486C108.768 65.7079 108.704 65.8141 108.695 65.9296L108.649 66.4917C108.265 71.2849 107.212 75.9595 105.517 80.3874C105.447 80.5716 105.535 80.7808 105.715 80.8527C105.757 80.8683 105.8 80.8777 105.842 80.8777C105.982 80.8777 106.113 80.7902 106.168 80.6497C107.888 76.1563 108.959 71.413 109.349 66.5479L109.38 66.1732L115.209 62.7227C115.318 62.6571 115.382 62.5416 115.382 62.4136C115.382 62.2855 115.315 62.1669 115.209 62.1044L115.203 62.1013Z" fill="url(#paint15_linear_6900_4684)" />
  <path d="M107.983 59.2699L107.94 58.7016C107.599 54.0051 106.598 49.4211 104.96 45.0432L102.221 48.7997C104.887 57.3245 104.985 66.3395 102.507 74.9424L105.347 78.6427C106.747 74.6082 107.618 70.4021 107.934 66.1209L107.977 65.5557L113.286 62.4113L107.98 59.2699H107.983Z" fill="#E27222" />
  <g style="mix-blend-mode:screen">
    <path d="M103.137 74.1429C105.466 65.6837 105.368 56.8186 102.854 48.4343L104.102 46.72C105.317 50.4328 106.078 54.2892 106.364 58.2144L106.446 59.3479L110.656 61.8429L106.44 64.3378L106.358 65.4714C106.096 68.9937 105.451 72.4723 104.437 75.8385L103.134 74.1397L103.137 74.1429Z" fill="#E27222" />
  </g>
  <g style="mix-blend-mode:screen">
    <path d="M104.984 49.7258L103.456 50.6345C103.733 51.7587 103.967 52.8859 104.162 54.0226L105.721 53.0983C105.517 51.9648 105.273 50.8406 104.987 49.729L104.984 49.7258Z" fill="#3C7DCF" />
  </g>
  <g style="mix-blend-mode:screen">
    <path d="M105.999 68.822C106.16 67.7104 106.285 66.5956 106.37 65.4745L106.453 64.341L110.669 61.8461L109.299 61.0342L104.775 63.7196C104.687 65.8055 104.459 67.8883 104.087 69.9555L105.999 68.822Z" fill="#3C7DCF" />
  </g>
  <defs>
    <linearGradient id="paint0_linear_6900_4684" x1="89.0536" y1="84.7486" x2="50.079" y2="23.357" gradientUnits="userSpaceOnUse">
      <stop stop-color="#BB7239" />
      <stop offset="0.23" stop-color="#FCEEAE" />
      <stop offset="0.52" stop-color="#E09E5B" />
      <stop offset="0.75" stop-color="#FCE9A4" />
      <stop offset="0.83" stop-color="#F1D693" />
      <stop offset="0.92" stop-color="#E1BD7C" />
      <stop offset="1" stop-color="#D08A4A" />
    </linearGradient>
    <linearGradient id="paint1_linear_6900_4684" x1="84.0152" y1="58.648" x2="19.9987" y2="30.5939" gradientUnits="userSpaceOnUse">
      <stop stop-color="#BB7239" />
      <stop offset="0.23" stop-color="#FCEEAE" />
      <stop offset="0.52" stop-color="#E09E5B" />
      <stop offset="0.75" stop-color="#FCE9A4" />
      <stop offset="0.83" stop-color="#F1D693" />
      <stop offset="0.92" stop-color="#E1BD7C" />
      <stop offset="1" stop-color="#D08A4A" />
    </linearGradient>
    <linearGradient id="paint2_linear_6900_4684" x1="19.3728" y1="57.3838" x2="107.403" y2="45.0868" gradientUnits="userSpaceOnUse">
      <stop stop-color="#BB7239" />
      <stop offset="0.23" stop-color="#FCEEAE" />
      <stop offset="0.52" stop-color="#E09E5B" />
      <stop offset="0.75" stop-color="#FCE9A4" />
      <stop offset="0.83" stop-color="#F1D693" />
      <stop offset="0.92" stop-color="#E1BD7C" />
      <stop offset="1" stop-color="#D08A4A" />
    </linearGradient>
    <linearGradient id="paint3_linear_6900_4684" x1="-7.04053" y1="31.6762" x2="80.708" y2="19.4151" gradientUnits="userSpaceOnUse">
      <stop stop-color="#BB7239" />
      <stop offset="0.23" stop-color="#FCEEAE" />
      <stop offset="0.52" stop-color="#E09E5B" />
      <stop offset="0.75" stop-color="#FCE9A4" />
      <stop offset="0.83" stop-color="#F1D693" />
      <stop offset="0.92" stop-color="#E1BD7C" />
      <stop offset="1" stop-color="#D08A4A" />
    </linearGradient>
    <linearGradient id="paint4_linear_6900_4684" x1="25.8806" y1="26.9814" x2="3.97942" y2="11.9683" gradientUnits="userSpaceOnUse">
      <stop stop-color="#BB7239" />
      <stop offset="0.23" stop-color="#FCEEAE" />
      <stop offset="0.52" stop-color="#E09E5B" />
      <stop offset="0.75" stop-color="#FCE9A4" />
      <stop offset="0.83" stop-color="#F1D693" />
      <stop offset="0.92" stop-color="#E1BD7C" />
      <stop offset="1" stop-color="#D08A4A" />
    </linearGradient>
    <linearGradient id="paint5_linear_6900_4684" x1="11.8664" y1="58.4034" x2="-4.46296" y2="54.0413" gradientUnits="userSpaceOnUse">
      <stop stop-color="#BB7239" />
      <stop offset="0.23" stop-color="#FCEEAE" />
      <stop offset="0.52" stop-color="#E09E5B" />
      <stop offset="0.75" stop-color="#FCE9A4" />
      <stop offset="0.83" stop-color="#F1D693" />
      <stop offset="0.92" stop-color="#E1BD7C" />
      <stop offset="1" stop-color="#D08A4A" />
    </linearGradient>
    <linearGradient id="paint6_linear_6900_4684" x1="13.6592" y1="55.9517" x2="21.3754" y2="55.7838" gradientUnits="userSpaceOnUse">
      <stop stop-color="#BB7239" />
      <stop offset="0.23" stop-color="#FCEEAE" />
      <stop offset="0.52" stop-color="#E09E5B" />
      <stop offset="0.75" stop-color="#FCE9A4" />
      <stop offset="0.83" stop-color="#F1D693" />
      <stop offset="0.92" stop-color="#E1BD7C" />
      <stop offset="1" stop-color="#D08A4A" />
    </linearGradient>
    <linearGradient id="paint7_linear_6900_4684" x1="56.2501" y1="12.049" x2="45.8982" y2="-7.20991" gradientUnits="userSpaceOnUse">
      <stop stop-color="#BB7239" />
      <stop offset="0.23" stop-color="#FCEEAE" />
      <stop offset="0.52" stop-color="#E09E5B" />
      <stop offset="0.75" stop-color="#FCE9A4" />
      <stop offset="0.83" stop-color="#F1D693" />
      <stop offset="0.92" stop-color="#E1BD7C" />
      <stop offset="1" stop-color="#D08A4A" />
    </linearGradient>
    <linearGradient id="paint8_linear_6900_4684" x1="59.5353" y1="11.96" x2="47.614" y2="-6.36016" gradientUnits="userSpaceOnUse">
      <stop stop-color="#BB7239" />
      <stop offset="0.23" stop-color="#FCEEAE" />
      <stop offset="0.52" stop-color="#E09E5B" />
      <stop offset="0.75" stop-color="#FCE9A4" />
      <stop offset="0.83" stop-color="#F1D693" />
      <stop offset="0.92" stop-color="#E1BD7C" />
      <stop offset="1" stop-color="#D08A4A" />
    </linearGradient>
    <linearGradient id="paint9_linear_6900_4684" x1="93.0435" y1="26.6337" x2="106.452" y2="25.8158" gradientUnits="userSpaceOnUse">
      <stop stop-color="#BB7239" />
      <stop offset="0.23" stop-color="#FCEEAE" />
      <stop offset="0.52" stop-color="#E09E5B" />
      <stop offset="0.75" stop-color="#FCE9A4" />
      <stop offset="0.83" stop-color="#F1D693" />
      <stop offset="0.92" stop-color="#E1BD7C" />
      <stop offset="1" stop-color="#D08A4A" />
    </linearGradient>
    <linearGradient id="paint10_linear_6900_4684" x1="75.3031" y1="18.4927" x2="92.9728" y2="14.7244" gradientUnits="userSpaceOnUse">
      <stop stop-color="#BB7239" />
      <stop offset="0.23" stop-color="#FCEEAE" />
      <stop offset="0.52" stop-color="#E09E5B" />
      <stop offset="0.75" stop-color="#FCE9A4" />
      <stop offset="0.83" stop-color="#F1D693" />
      <stop offset="0.92" stop-color="#E1BD7C" />
      <stop offset="1" stop-color="#D08A4A" />
    </linearGradient>
    <linearGradient id="paint11_linear_6900_4684" x1="36.1679" y1="109.051" x2="53.8722" y2="99.7445" gradientUnits="userSpaceOnUse">
      <stop stop-color="#BB7239" />
      <stop offset="0.23" stop-color="#FCEEAE" />
      <stop offset="0.52" stop-color="#E09E5B" />
      <stop offset="0.75" stop-color="#FCE9A4" />
      <stop offset="0.83" stop-color="#F1D693" />
      <stop offset="0.92" stop-color="#E1BD7C" />
      <stop offset="1" stop-color="#D08A4A" />
    </linearGradient>
    <linearGradient id="paint12_linear_6900_4684" x1="51.381" y1="106.506" x2="81.0821" y2="100.883" gradientUnits="userSpaceOnUse">
      <stop stop-color="#BB7239" />
      <stop offset="0.23" stop-color="#FCEEAE" />
      <stop offset="0.52" stop-color="#E09E5B" />
      <stop offset="0.75" stop-color="#FCE9A4" />
      <stop offset="0.83" stop-color="#F1D693" />
      <stop offset="0.92" stop-color="#E1BD7C" />
      <stop offset="1" stop-color="#D08A4A" />
    </linearGradient>
    <linearGradient id="paint13_linear_6900_4684" x1="12.3694" y1="101.364" x2="42.0401" y2="91.5806" gradientUnits="userSpaceOnUse">
      <stop stop-color="#BB7239" />
      <stop offset="0.23" stop-color="#FCEEAE" />
      <stop offset="0.52" stop-color="#E09E5B" />
      <stop offset="0.75" stop-color="#FCE9A4" />
      <stop offset="0.83" stop-color="#F1D693" />
      <stop offset="0.92" stop-color="#E1BD7C" />
      <stop offset="1" stop-color="#D08A4A" />
    </linearGradient>
    <linearGradient id="paint14_linear_6900_4684" x1="69.8343" y1="87.5402" x2="107.34" y2="82.3033" gradientUnits="userSpaceOnUse">
      <stop stop-color="#BB7239" />
      <stop offset="0.23" stop-color="#FCEEAE" />
      <stop offset="0.52" stop-color="#E09E5B" />
      <stop offset="0.75" stop-color="#FCE9A4" />
      <stop offset="0.83" stop-color="#F1D693" />
      <stop offset="0.92" stop-color="#E1BD7C" />
      <stop offset="1" stop-color="#D08A4A" />
    </linearGradient>
    <linearGradient id="paint15_linear_6900_4684" x1="100.903" y1="52.5074" x2="116.543" y2="51.872" gradientUnits="userSpaceOnUse">
      <stop stop-color="#BB7239" />
      <stop offset="0.23" stop-color="#FCEEAE" />
      <stop offset="0.52" stop-color="#E09E5B" />
      <stop offset="0.75" stop-color="#FCE9A4" />
      <stop offset="0.83" stop-color="#F1D693" />
      <stop offset="0.92" stop-color="#E1BD7C" />
      <stop offset="1" stop-color="#D08A4A" />
    </linearGradient>
  </defs>
</svg>
