<svg viewBox="0 0 120 124" fill="none" xmlns="http://www.w3.org/2000/svg">
  <path d="M54.7872 114.634C44.7973 113.6 35.4617 109.625 27.6755 103.089L17.6277 105.853L20.3215 95.5451C13.9507 87.5574 10.0758 77.9803 9.06829 67.7318L0.0888672 62.414L9.0622 57.0993C10.0575 46.8352 13.9324 37.2394 20.3093 29.2392L17.6277 18.972L27.6268 21.7199C35.4313 15.1499 44.7972 11.1592 54.8238 10.1287L59.974 0.976318L65.1212 10.1225C75.1629 11.1405 84.5441 15.1312 92.3608 21.7074L102.317 18.9689L99.6478 29.183C106.058 37.2019 109.948 46.8258 110.941 57.1274L119.856 62.4078L110.934 67.6912C109.93 77.9772 106.04 87.5855 99.6387 95.5919L102.317 105.85L92.309 103.099C84.5106 109.641 75.1568 113.616 65.1516 114.637L59.9709 123.842L54.7872 114.631V114.634ZM24.2968 80.5003L24.7229 81.3371C28.6495 89.0469 34.7555 95.1516 42.3835 98.9893L43.2114 99.4078L43.8293 103.808L47.2354 101.056L48.1151 101.341C51.993 102.593 55.9987 103.227 60.0227 103.227C64.3511 103.227 68.6429 102.493 72.7735 101.05L73.6471 100.744L77.0927 103.389L77.601 99.008L78.4198 98.5709C85.9504 94.5458 91.9133 88.2787 95.6634 80.444L96.0713 79.5947L100.324 78.967L97.6693 75.5072L97.9493 74.6016C100.518 66.2611 100.421 57.4865 97.6723 49.2271L97.374 48.331L99.9187 44.843L95.706 44.3277L95.2799 43.4878C91.3502 35.7343 85.2168 29.6014 77.5493 25.7481L76.7183 25.3328L76.1126 21.0111L72.7704 23.709L71.8877 23.4249C67.9976 22.1665 63.9797 21.5263 59.9436 21.5263C55.5878 21.5263 51.2746 22.2664 47.1228 23.7278L46.2492 24.0338L42.8522 21.4264L42.35 25.7512L41.5312 26.1884C33.9885 30.2228 28.0225 36.5118 24.2755 44.3683L23.8706 45.2208L19.6214 45.8485L22.2787 49.3115L22.0017 50.2139C19.4509 58.5419 19.5575 67.3009 22.3061 75.5415L22.6044 76.4377L20.0293 79.9694L24.3029 80.4909L24.2968 80.5003Z" fill="url(#paint0_linear_6900_4545)" />
  <g style="mix-blend-mode:screen" opacity="0.5">
    <path d="M21.5054 95.8672C21.6088 95.4737 21.5175 95.0553 21.2649 94.7399C15.0646 86.9646 11.2689 77.5842 10.2888 67.6105C10.2492 67.2046 10.027 66.8455 9.68306 66.6425L2.53916 62.4114L9.67698 58.1833C10.0209 57.9804 10.2431 57.6181 10.2827 57.2122C11.2537 47.2229 15.0494 37.8269 21.2527 30.0391C21.5023 29.7237 21.5936 29.3053 21.4932 28.9118L19.3594 20.7462L27.31 22.932C27.6904 23.0382 28.0983 22.9476 28.4027 22.6884C36.0001 16.2933 45.1773 12.3807 54.9359 11.3783C55.3316 11.3377 55.6816 11.1097 55.8825 10.7569L59.7512 3.88399C59.9065 3.60607 59.8334 3.25322 59.5808 3.06273C59.2855 2.84415 58.8716 2.93471 58.692 3.25634L54.8233 10.1292C44.7968 11.1597 35.4309 15.1504 27.6265 21.7204L17.6275 18.9725L20.3091 29.2397C13.9323 37.2399 10.0575 46.8357 9.06212 57.0998L0.0888672 62.4145L9.06821 67.7323C10.0757 77.9808 13.9505 87.5579 20.3213 95.5456L18.1936 103.696C18.0871 104.108 18.4037 104.511 18.8207 104.486C19.0824 104.47 19.3077 104.283 19.3747 104.02L21.5023 95.8703L21.5054 95.8672Z" fill="#FFE46B" />
  </g>
  <path d="M119.857 62.4114L110.942 57.131C109.949 46.8295 106.059 37.2055 99.6491 29.1866L101.317 22.804C101.548 21.9234 100.8 21.0959 99.9261 21.2677C99.4725 21.3551 99.1103 21.7017 98.9886 22.1576L96.9583 29.7987C103.573 37.8675 107.794 48.1566 108.616 58.6517L114.372 62.4114L108.61 66.1741C107.633 76.1853 103.18 87.1863 96.9461 94.9835L98.325 101.641L91.7168 100.339C84.1255 106.709 73.3533 111.024 63.613 112.021L59.9056 118.06C59.6225 118.522 59.6104 119.109 59.8782 119.584C60.4322 120.567 61.8141 120.567 62.3681 119.584L65.1563 114.637C75.1614 113.616 84.5151 109.641 92.3134 103.099L102.322 105.85L99.643 95.5924C106.047 87.586 109.937 77.9777 110.939 67.6917L119.86 62.4083L119.857 62.4114Z" fill="url(#paint1_linear_6900_4545)" />
  <path d="M99.0381 75.2551L99.1203 74.9834C101.768 66.3868 101.668 57.3406 98.8341 48.8252L98.7459 48.5566L99.9786 46.8267C100.173 46.555 100.116 46.171 99.8538 45.9711C99.589 45.7681 99.2116 45.8243 99.0137 46.096L97.3792 48.3381L97.6775 49.2343C100.426 57.4936 100.523 66.2682 97.9545 74.6087L97.6744 75.5143L100.329 78.9741L96.0764 79.6018L95.6685 80.4511C91.9185 88.2858 85.9556 94.556 78.4252 98.578L77.6064 99.0151L77.0981 103.396L73.6524 100.751L72.7788 101.057C68.6484 102.5 64.3596 103.234 60.0282 103.234C56.0042 103.234 51.9985 102.6 48.1207 101.348L47.241 101.064L45.1286 102.769C44.8638 102.984 44.8181 103.377 45.0251 103.649C45.2351 103.921 45.6186 103.968 45.8834 103.755L47.4906 102.459L47.7554 102.544C51.752 103.833 55.8825 104.486 60.0282 104.486C64.4935 104.486 68.9162 103.73 73.1715 102.241L73.4333 102.15L76.331 104.374C76.5776 104.564 76.8819 104.673 77.1894 104.645C77.7951 104.592 78.2456 104.121 78.3126 103.54L78.7448 99.8177L78.9913 99.6865C86.7531 95.5397 92.9017 89.0758 96.7674 80.9976L96.8891 80.7415L100.481 80.2107C100.746 80.1732 100.998 80.0577 101.187 79.8641C101.647 79.3863 101.662 78.6712 101.291 78.1904L99.035 75.252L99.0381 75.2551Z" fill="url(#paint2_linear_6900_4545)" />
  <path d="M20.9154 49.5762L20.8332 49.8478C18.2033 58.4319 18.3129 67.4626 21.1467 75.9561L21.235 76.2247L20.0935 77.7891C20.0935 77.7891 20.0844 77.8016 20.0814 77.8047C19.6187 78.4605 20.614 79.1693 21.0858 78.5229L22.6017 76.4432L22.3034 75.547C19.5548 67.3064 19.4513 58.5475 21.999 50.2194L22.276 49.317L19.6187 45.854L23.8679 45.2264L24.2727 44.3739C28.0197 36.5174 33.9856 30.2284 41.5283 26.1939L42.3471 25.7568L42.8493 21.4319L46.2463 24.0393L47.1198 23.7333C51.2716 22.2719 55.5848 21.5319 59.9405 21.5319C63.9766 21.5319 67.9945 22.1689 71.8845 23.4304L72.7673 23.7146L74.6362 22.2063C75.2571 21.7067 74.5388 20.7044 73.9117 21.1946C73.9057 21.1977 73.8996 21.204 73.8965 21.2071L72.5207 22.3188L72.2559 22.2345C68.2471 20.9354 64.1045 20.2797 59.9436 20.2797C55.4539 20.2797 51.0068 21.0447 46.7272 22.5498L46.4654 22.6435L43.6194 20.4577C43.3729 20.2672 43.0685 20.1579 42.761 20.186C42.1553 20.2391 41.7048 20.7106 41.6379 21.2914L41.2117 24.9605L40.9652 25.0917C33.1882 29.251 27.0366 35.7336 23.177 43.8337L23.0552 44.0897L19.4696 44.6206C19.2047 44.6612 18.9521 44.7736 18.7634 44.9672C18.3038 45.4449 18.2885 46.1569 18.6599 46.6409L20.9184 49.5855L20.9154 49.5762Z" fill="url(#paint3_linear_6900_4545)" />
  <path d="M15.1709 43.6112C17.0733 38.843 19.7093 34.3807 23.0301 30.365L23.3862 29.9341L21.5812 23.0269L28.3081 24.8755L28.7282 24.5101C32.3382 21.3625 36.3165 18.8082 40.5565 16.894L39.7408 23.9168C32.0612 28.1574 25.9461 34.5993 22.0043 42.6026L15.1709 43.6143V43.6112Z" fill="url(#paint4_linear_6900_4545)" />
  <path d="M23.0447 30.0284C23.0874 30.1877 23.2274 30.2939 23.3826 30.2939C23.4131 30.2939 23.4435 30.2907 23.4739 30.2814C23.6596 30.2314 23.7723 30.0347 23.7205 29.8411L21.9154 22.9338C21.8667 22.7433 21.6749 22.6278 21.4862 22.6809C21.3005 22.7309 21.1879 22.9276 21.2397 23.1212L23.0447 30.0284Z" fill="#FFE46B" />
  <path d="M40.0507 23.7476C39.9594 23.5727 39.7463 23.5071 39.5759 23.6008C31.8962 27.8382 25.7446 34.2927 21.7755 42.2741L15.1216 43.2577C14.9299 43.2858 14.799 43.467 14.8264 43.6637C14.8507 43.8417 14.9999 43.9697 15.1734 43.9697C15.1886 43.9697 15.2069 43.9697 15.2251 43.9666L22.2381 42.9299L22.3203 42.7644C26.2225 34.8391 32.3041 28.4315 39.9107 24.2347C40.0811 24.141 40.1451 23.9224 40.0537 23.7476H40.0507Z" fill="#FFE46B" />
  <path d="M16.7872 42.5993L21.2952 41.9342C25.2826 33.9496 31.4129 27.492 39.0742 23.2015L39.61 18.5769C35.8599 20.4193 32.3656 22.7612 29.2 25.5591L28.78 25.9307L22.8079 24.2882L24.409 30.421L24.0498 30.8519C21.076 34.4055 18.6379 38.3525 16.7842 42.5993H16.7872Z" fill="#897C17" />
  <g style="mix-blend-mode:screen">
    <path d="M18.0402 40.6818C19.7296 37.2063 21.836 33.9525 24.3199 30.986L25.0414 30.1242L23.7659 25.2435L28.5176 26.5488L29.3577 25.8056C31.9573 23.5105 34.7913 21.5214 37.8079 19.8757L37.5644 21.9616C30.1066 26.2553 24.0764 32.6067 20.0796 40.382L18.0371 40.6849L18.0402 40.6818Z" fill="#897C17" />
  </g>
  <g style="mix-blend-mode:screen">
    <path d="M21.9322 37.1312C22.9702 35.4606 24.1056 33.868 25.3353 32.3598L24.6444 30.5986L24.3247 30.9796C23.1954 32.3286 22.1483 33.7431 21.1772 35.2045L21.9322 37.1281V37.1312Z" fill="#3C7DCF" />
  </g>
  <g style="mix-blend-mode:screen">
    <path d="M33.6145 22.4741C32.6192 23.1673 31.6512 23.898 30.7075 24.6693L31.3498 26.2993C32.2843 25.5218 33.2523 24.7849 34.2507 24.0854L33.6176 22.4741H33.6145Z" fill="#3C7DCF" />
  </g>
  <path d="M15.3651 81.5954C13.42 76.8458 12.2054 71.7872 11.7823 66.5537L11.7367 65.9916L5.69434 62.4131L11.7336 58.8346L11.7793 58.2725C12.1628 53.4418 13.2191 48.7609 14.9055 44.3362L19.1792 49.9101C16.671 58.4786 16.7806 67.4561 19.4897 75.9403L15.3621 81.5985L15.3651 81.5954Z" fill="url(#paint5_linear_6900_4545)" />
  <path d="M18.1979 49.8882L15.3791 46.2129C13.9941 50.2317 13.1326 54.4129 12.8191 58.6722L12.7765 59.2374L7.41602 62.4131L12.7826 65.5919L12.8252 66.1571C13.1722 70.8161 14.1706 75.3689 15.7931 79.7124L18.5114 75.984C15.8479 67.478 15.7383 58.4786 18.1979 49.8914V49.8882Z" fill="#897C17" />
  <g style="mix-blend-mode:screen">
    <path d="M15.5977 76.8956C14.3953 73.214 13.6373 69.3919 13.3481 65.5043L13.2629 64.3739L8.99219 61.8445L13.2599 59.3184L13.3421 58.1848C13.5978 54.6875 14.237 51.2308 15.2385 47.8833L16.52 49.5539C14.2096 57.9975 14.3161 66.847 16.8274 75.2125L15.5977 76.8987V76.8956Z" fill="#897C17" />
  </g>
  <path d="M11.71 66.3723C11.85 66.4567 12.0235 66.4285 12.1331 66.3161C12.1544 66.2943 12.1727 66.2693 12.1879 66.2412C12.2853 66.0695 12.2275 65.8509 12.06 65.7509L6.0238 62.1755C5.85638 62.0756 5.6433 62.1349 5.54589 62.3067C5.44848 62.4784 5.50632 62.697 5.67374 62.7969L11.71 66.3723Z" fill="#FFE46B" />
  <path d="M19.3994 49.5975C19.2137 49.5413 19.0189 49.6475 18.9641 49.838C16.4558 58.4065 16.5532 67.4308 19.2472 75.9525L15.22 81.4764C15.1043 81.6357 15.1347 81.8605 15.29 81.9792C15.43 82.0885 15.6248 82.0697 15.7466 81.9448C15.7588 81.9323 15.7679 81.9199 15.7801 81.9042L20.0234 76.0837L19.9656 75.9057C17.2625 67.4715 17.1468 58.5283 19.6307 50.0441C19.6855 49.8536 19.582 49.6538 19.3963 49.5975H19.3994Z" fill="url(#paint6_linear_6900_4545)" />
  <g style="mix-blend-mode:screen">
    <path d="M15.0558 57.6092L13.4303 57.1533C13.3969 57.4968 13.3664 57.8372 13.3421 58.1807L13.2599 59.3142L8.99219 61.8404L13.2629 64.3697L13.3482 65.5001C13.4212 66.4587 13.5217 67.4143 13.6495 68.3667L15.3968 68.8569C14.8275 65.1316 14.7149 61.3564 15.0589 57.6061L15.0558 57.6092Z" fill="#3C7DCF" />
  </g>
  <path d="M41.2217 16.6033C45.8727 14.5892 50.8311 13.3401 55.9661 12.9061L56.514 12.8592L59.9687 6.71704L63.4235 12.853L63.9714 12.8998C68.7106 13.2933 73.3008 14.3831 77.6382 16.1286L72.1958 20.5253C68.1993 19.2887 64.081 18.6642 59.9413 18.6642C55.4608 18.6642 51.0229 19.3949 46.7432 20.8407L41.2247 16.6064L41.2217 16.6033Z" fill="url(#paint7_linear_6900_4545)" />
  <path d="M77.9837 16.0749C77.9654 15.9469 77.8832 15.8407 77.7645 15.7938C73.3783 14.0296 68.7487 12.9366 64.0003 12.5432L63.635 12.512L60.2746 6.53837C60.1772 6.36662 59.9641 6.3073 59.7967 6.40722C59.6293 6.50715 59.5715 6.72573 59.6689 6.89748L63.1236 13.0334C63.1815 13.1365 63.285 13.2021 63.3976 13.2114L63.9455 13.2583C68.4199 13.6299 72.7878 14.6322 76.9396 16.2372L72.1212 20.128C68.149 18.9165 64.049 18.3044 59.9398 18.3044C55.4258 18.3044 50.9483 19.0414 46.6321 20.4965C46.4495 20.559 46.349 20.7619 46.4099 20.9493C46.4586 21.0992 46.5956 21.196 46.7417 21.196C46.7782 21.196 46.8147 21.1897 46.8513 21.1772C51.0974 19.7471 55.5019 19.0195 59.9428 19.0195C64.0429 19.0195 68.1338 19.6409 72.0969 20.865C72.2065 20.8993 72.3252 20.8743 72.4134 20.8025L77.8589 16.4059C77.9563 16.3278 78.008 16.1998 77.9898 16.0718L77.9837 16.0749Z" fill="url(#paint8_linear_6900_4545)" />
  <path d="M59.9348 17.7057C64.0774 17.7057 68.2018 18.3209 72.2075 19.5324L75.8053 16.6284C71.8666 15.192 67.7605 14.3052 63.5813 13.9835L63.0273 13.9398L59.9652 8.49707L56.9 13.9429L56.3491 13.9867C51.7773 14.3426 47.315 15.3731 43.0566 17.0531L46.694 19.8447C50.995 18.4239 55.4481 17.7026 59.9378 17.7026L59.9348 17.7057Z" fill="#897C17" />
  <g style="mix-blend-mode:screen">
    <path d="M44.7153 16.8219C48.3284 15.5729 52.0814 14.7922 55.9015 14.4956L57.0064 14.4113L59.4384 10.0864L61.8704 14.405L62.9753 14.4893C66.4149 14.7516 69.8118 15.4105 73.0992 16.4534L71.4585 17.7806C67.5198 16.6408 63.4715 16.0631 59.411 16.0631C54.9944 16.0631 50.6082 16.7439 46.3651 18.0866L44.7184 16.8219H44.7153Z" fill="#897C17" />
  </g>
  <g style="mix-blend-mode:screen">
    <path d="M70.2808 15.6629C67.8882 15.0759 65.45 14.6793 62.9874 14.4919L62.7773 14.4763L63.2096 16.2375C65.7483 16.4623 68.2718 16.912 70.7496 17.5864L70.2777 15.6629H70.2808Z" fill="#3C7DCF" />
  </g>
  <g style="mix-blend-mode:screen">
    <path d="M52.2329 14.9388L52.6408 16.6031C53.8036 16.4189 54.9725 16.2784 56.1444 16.1878L55.7335 14.511C54.5585 14.6078 53.3927 14.7514 52.2329 14.9388Z" fill="#3C7DCF" />
  </g>
  <path d="M97.4989 41.6624C93.3714 33.7653 87.0859 27.4794 79.2754 23.4294L78.2861 16.3972C82.9554 18.3551 87.3233 21.078 91.256 24.5067L91.676 24.872L98.3603 23.0328L96.5705 29.8901L96.9266 30.321C100.004 34.0369 102.5 38.1338 104.366 42.5024L97.4989 41.6624Z" fill="#BD6018" />
  <path d="M104.364 42.8611C104.364 42.8611 104.337 42.8611 104.322 42.8611L97.4543 42.0211C97.2625 41.9961 97.1256 41.8181 97.1469 41.6214C97.1712 41.4247 97.3447 41.2841 97.5365 41.306L103.792 42.071C101.959 37.9336 99.5608 34.0615 96.6537 30.5517L96.2976 30.1207C96.2245 30.0302 96.1971 29.9084 96.2276 29.796L98.0175 22.9387C98.0662 22.7482 98.261 22.6327 98.4467 22.6858C98.6323 22.7357 98.745 22.9325 98.6932 23.1261L96.949 29.8022L97.1864 30.0895C100.27 33.8117 102.793 37.9429 104.681 42.3614C104.733 42.4801 104.717 42.6144 104.641 42.7205C104.574 42.8111 104.471 42.8642 104.361 42.8642L104.364 42.8611Z" fill="url(#paint9_linear_6900_4545)" />
  <path d="M91.2554 24.8623C91.1763 24.8623 91.0941 24.8342 91.0302 24.778C87.7122 21.8833 84.0503 19.4758 80.1479 17.6209C79.9713 17.5366 79.8952 17.3243 79.9774 17.1463C80.0596 16.9652 80.2666 16.8871 80.4401 16.9715C84.4004 18.8544 88.114 21.2994 91.4837 24.2347C91.6299 24.3627 91.6481 24.5907 91.5233 24.7405C91.4533 24.8249 91.3559 24.8654 91.2554 24.8654V24.8623Z" fill="url(#paint10_linear_6900_4545)" />
  <path d="M98.1902 40.9737L102.719 41.5264C100.92 37.6606 98.6315 34.0602 95.8982 30.8033L95.5359 30.3724L97.1248 24.2895L91.1954 25.9195L90.7754 25.5479C87.2963 22.4752 83.4306 19.9584 79.2666 18.0474L79.918 22.6938C87.7102 26.7938 94.011 33.0953 98.1871 40.9737H98.1902Z" fill="#897C17" />
  <g style="mix-blend-mode:screen">
    <path d="M98.332 39.4044C94.1465 31.7384 87.9519 25.54 80.3633 21.4306L80.0649 19.3135C83.4742 21.0559 86.6674 23.2355 89.5744 25.7992L90.4145 26.5423L95.1236 25.2465L93.8603 30.0772L94.5848 30.939C96.8343 33.6182 98.7794 36.5441 100.387 39.6574L98.3289 39.4044H98.332Z" fill="#897C17" />
  </g>
  <g style="mix-blend-mode:screen">
    <path d="M89.5782 25.8C87.9588 24.3699 86.248 23.0646 84.4612 21.8843L83.6089 23.3769C86.6164 25.3535 89.3651 27.6767 91.8064 30.3122L94.616 25.3847L90.4153 26.5401L89.5751 25.7969L89.5782 25.8Z" fill="#3C7DCF" />
  </g>
  <path d="M56.4795 111.907L55.9316 111.86C51.2289 111.46 46.6723 110.373 42.3652 108.643L47.8076 104.25C51.792 105.477 55.8982 106.099 60.0226 106.099C64.4757 106.099 68.8893 105.374 73.1476 103.95L78.6874 108.203C74.0516 110.199 69.1115 111.438 64.0009 111.866L63.453 111.913L59.9678 118.108L56.4795 111.91V111.907Z" fill="#BD6018" />
  <path d="M55.9613 111.499C51.3162 111.105 46.7867 110.031 42.4946 108.304C42.3151 108.232 42.1111 108.323 42.0411 108.507C41.9711 108.691 42.0594 108.901 42.239 108.972C46.5949 110.721 51.1914 111.811 55.9035 112.214C55.9126 112.214 55.9217 112.214 55.9339 112.214C56.1135 112.214 56.2657 112.073 56.2809 111.886C56.2961 111.689 56.1531 111.514 55.9613 111.499Z" fill="url(#paint11_linear_6900_4545)" />
  <path d="M78.9029 107.913L73.3628 103.66C73.2076 103.541 72.9884 103.575 72.8727 103.731C72.757 103.891 72.7875 104.115 72.9427 104.234L77.9897 108.106C73.5333 109.955 68.8212 111.098 63.9782 111.504L63.4302 111.55C63.3146 111.56 63.2141 111.625 63.1563 111.728L59.6709 117.924C59.5735 118.095 59.6313 118.314 59.7987 118.414C59.8535 118.445 59.9144 118.461 59.9723 118.461C60.094 118.461 60.2097 118.395 60.2767 118.283L63.6707 112.25L64.036 112.219C69.159 111.791 74.136 110.548 78.8298 108.528C78.9455 108.478 79.0277 108.368 79.0429 108.24C79.0581 108.112 79.0064 107.988 78.9059 107.909L78.9029 107.913Z" fill="url(#paint12_linear_6900_4545)" />
  <path d="M60.0218 107.054C55.8944 107.054 51.7821 106.442 47.7886 105.239L44.1938 108.14C48.1021 109.564 52.1748 110.448 56.3205 110.773L56.8715 110.816L59.9701 116.322L63.0657 110.823L63.6166 110.779C68.1641 110.426 72.6081 109.408 76.8512 107.744L73.1925 104.937C68.9159 106.342 64.4872 107.054 60.0249 107.054H60.0218Z" fill="#897C17" />
  <g style="mix-blend-mode:screen">
    <path d="M56.9778 109.221L55.8759 109.134C52.4729 108.865 49.1095 108.21 45.8525 107.182L47.4932 105.858C51.4167 106.989 55.4559 107.563 59.5011 107.563C63.8904 107.563 68.2522 106.892 72.4709 105.562L74.1359 106.839C70.5411 108.072 66.8094 108.843 63.0137 109.137L61.9088 109.221L59.4463 113.599L56.9808 109.218L56.9778 109.221Z" fill="#897C17" />
  </g>
  <g style="mix-blend-mode:screen">
    <path d="M67.5469 106.797C64.8926 107.302 62.1986 107.559 59.4955 107.559C58.6889 107.559 57.8822 107.53 57.0786 107.484L57.2186 109.651L59.4408 113.598L61.9034 109.22L63.0083 109.135C64.5699 109.014 66.1223 108.808 67.6565 108.527L67.5439 106.797H67.5469Z" fill="#3C7DCF" />
  </g>
  <path d="M41.6396 108.344C37.0069 106.392 32.6755 103.691 28.7733 100.297L28.3532 99.9314L21.5776 101.792L23.3918 94.8415L23.0356 94.4106C19.9857 90.7228 17.511 86.6602 15.6543 82.3323L22.4999 83.1691C26.6243 91.0194 32.8794 97.274 40.6503 101.312L41.6396 108.344Z" fill="#BD6018" />
  <path d="M41.9938 108.295L41.0045 101.263C40.9771 101.066 40.7975 100.932 40.6088 100.96C40.417 100.988 40.2861 101.169 40.3135 101.366L41.2145 107.77C36.8098 105.847 32.7065 103.242 29.0081 100.023L28.588 99.6576C28.4997 99.5827 28.381 99.5546 28.2714 99.5858L21.4955 101.447C21.3098 101.497 21.1972 101.694 21.2489 101.887C21.3007 102.081 21.4894 102.193 21.6781 102.14L28.2775 100.326L28.5576 100.569C32.4721 103.973 36.8312 106.702 41.5189 108.676C41.5615 108.695 41.6072 108.704 41.6528 108.704C41.7289 108.704 41.805 108.679 41.869 108.629C41.9694 108.551 42.0181 108.423 41.9999 108.295H41.9938Z" fill="url(#paint13_linear_6900_4545)" />
  <path d="M21.811 83.8567L17.3062 83.3071C19.0929 87.1323 21.3606 90.6984 24.0665 93.9272L24.4287 94.3581L22.8155 100.532L28.8332 98.8765L29.2532 99.2481C32.705 102.29 36.5341 104.788 40.6585 106.686L40.0071 102.046C32.2575 97.9585 25.9811 91.6883 21.811 83.8567Z" fill="#897C17" />
  <g style="mix-blend-mode:screen">
    <path d="M38.8057 104.288C35.436 102.558 32.2794 100.403 29.3998 97.8646L28.5597 97.1246L23.7593 98.4423L25.0438 93.5179L24.3224 92.6561C22.1033 90.005 20.1795 87.1166 18.5845 84.0408L20.6148 84.2906C24.7912 91.9098 30.9614 98.077 38.5074 102.174L38.8027 104.285L38.8057 104.288Z" fill="#897C17" />
  </g>
  <g style="mix-blend-mode:screen">
    <path d="M38.5129 102.177C36.9422 101.324 35.4324 100.375 33.9865 99.3474L33.2925 100.934C35.055 102.183 36.8966 103.304 38.8112 104.287L38.516 102.177H38.5129Z" fill="#3C7DCF" />
  </g>
  <g style="mix-blend-mode:screen">
    <path d="M21.7653 86.2454L20.5781 87.5038C21.7135 89.3024 22.9646 91.0261 24.3314 92.6561L24.7149 93.1151L25.8625 91.8973C24.3618 90.133 22.992 88.2438 21.7653 86.2454Z" fill="#3C7DCF" />
  </g>
  <path d="M80.205 100.854C87.8725 96.629 93.9815 90.2026 97.9263 82.2243L104.802 81.2063C102.894 85.9808 100.246 90.4462 96.9127 94.465L96.5566 94.8959L98.3585 101.797L91.6255 99.9452L91.2055 100.311C87.5985 103.449 83.6233 105.991 79.3862 107.899L80.205 100.857V100.854Z" fill="#BD6018" />
  <path d="M104.373 83.13C104.452 82.9489 104.376 82.7365 104.199 82.6553C104.026 82.5741 103.816 82.6553 103.736 82.8333C101.91 86.9271 99.5267 90.7617 96.6473 94.234L96.2911 94.665C96.2181 94.7555 96.1907 94.8773 96.2211 94.9897L97.8678 101.291L91.7193 99.6018C91.6097 99.5706 91.491 99.5987 91.4027 99.6736L90.9827 100.039C87.7684 102.834 84.2314 105.176 80.4662 107.002C80.2927 107.087 80.2166 107.302 80.2988 107.48C80.3597 107.608 80.4845 107.686 80.6153 107.686C80.664 107.686 80.7158 107.674 80.7645 107.652C84.5815 105.8 88.1732 103.424 91.4332 100.589L91.7132 100.345L98.2696 102.147C98.3883 102.181 98.5192 102.147 98.6075 102.053C98.6958 101.963 98.7292 101.831 98.6988 101.706L96.9425 94.9866L97.1799 94.6993C100.099 91.177 102.519 87.2862 104.369 83.1331L104.373 83.13Z" fill="url(#paint14_linear_6900_4545)" />
  <path d="M103.183 82.218L98.6353 82.8893C94.6417 90.852 88.5175 97.2909 80.8683 101.566L80.3296 106.212C84.0766 104.376 87.5648 102.044 90.7274 99.2581L91.1474 98.8897L97.1255 100.532L95.5244 94.4056L95.8867 93.9746C98.8727 90.418 101.32 86.4679 103.183 82.2148V82.218Z" fill="#897C17" />
  <g style="mix-blend-mode:screen">
    <path d="M81.3296 101.675C88.7722 97.3934 94.7962 91.0607 98.7991 83.3104L100.881 83.0012C99.1826 86.4829 97.067 89.7399 94.5771 92.7063L93.8526 93.5682L95.125 98.4426L90.3672 97.1342L89.5271 97.8743C86.9305 100.16 84.0966 102.143 81.083 103.782L81.3265 101.675H81.3296Z" fill="#897C17" />
  </g>
  <g style="mix-blend-mode:screen">
    <path d="M84.7236 99.4992C83.6247 100.271 82.4954 101.001 81.3265 101.673L81.083 103.78C82.5837 102.965 84.0387 102.063 85.4451 101.079L84.7267 99.4961L84.7236 99.4992Z" fill="#3C7DCF" />
  </g>
  <g style="mix-blend-mode:screen">
    <path d="M95.4689 91.6112L94.1996 90.4871C93.0703 91.9328 91.8557 93.3068 90.562 94.5964L94.8145 98.3561L95.125 98.4404L93.8526 93.566L94.577 92.7041C94.8814 92.3419 95.1767 91.9765 95.4689 91.6081V91.6112Z" fill="#3C7DCF" />
  </g>
  <path d="M100.774 74.9228C103.301 66.3387 103.204 57.3486 100.488 48.8457L104.634 43.1594C106.595 47.937 107.812 53.0332 108.229 58.3073L108.275 58.8694L114.256 62.4135L108.269 65.9577L108.223 66.5198C107.833 71.3723 106.768 76.075 105.066 80.5185L100.774 74.9228Z" fill="#BD6018" />
  <path d="M114.432 62.1013L108.609 58.6539L108.578 58.2792C108.24 54.0106 107.376 49.82 106.009 45.8231C105.945 45.6357 105.744 45.5389 105.565 45.6045C105.382 45.6701 105.288 45.8761 105.351 46.0604C106.697 50.0011 107.549 54.1324 107.881 58.3385L107.927 58.9006C107.936 59.0193 108 59.1223 108.1 59.1817L113.558 62.4136L108.097 65.6486C107.997 65.7079 107.933 65.8141 107.924 65.9296L107.878 66.4917C107.494 71.2849 106.441 75.9595 104.746 80.3874C104.676 80.5716 104.764 80.7808 104.944 80.8527C104.986 80.8683 105.029 80.8777 105.071 80.8777C105.211 80.8777 105.342 80.7902 105.397 80.6497C107.117 76.1563 108.188 71.413 108.578 66.5479L108.609 66.1732L114.438 62.7227C114.547 62.6571 114.611 62.5416 114.611 62.4136C114.611 62.2855 114.544 62.1669 114.438 62.1044L114.432 62.1013Z" fill="url(#paint15_linear_6900_4545)" />
  <path d="M107.212 59.2699L107.169 58.7016C106.828 54.0051 105.827 49.4211 104.189 45.0432L101.45 48.7997C104.116 57.3245 104.214 66.3395 101.736 74.9424L104.576 78.6427C105.976 74.6082 106.847 70.4021 107.163 66.1209L107.206 65.5557L112.515 62.4113L107.209 59.2699H107.212Z" fill="#897C17" />
  <g style="mix-blend-mode:screen">
    <path d="M102.366 74.1429C104.695 65.6837 104.597 56.8186 102.083 48.4343L103.331 46.72C104.546 50.4328 105.307 54.2892 105.593 58.2144L105.675 59.3479L109.885 61.8429L105.669 64.3378L105.587 65.4714C105.325 68.9937 104.68 72.4723 103.666 75.8385L102.363 74.1397L102.366 74.1429Z" fill="#897C17" />
  </g>
  <g style="mix-blend-mode:screen">
    <path d="M104.213 49.7258L102.685 50.6345C102.962 51.7587 103.196 52.8859 103.391 54.0226L104.95 53.0983C104.746 51.9648 104.502 50.8406 104.216 49.729L104.213 49.7258Z" fill="#3C7DCF" />
  </g>
  <g style="mix-blend-mode:screen">
    <path d="M105.228 68.822C105.389 67.7104 105.514 66.5956 105.599 65.4745L105.682 64.341L109.898 61.8461L108.528 61.0342L104.004 63.7196C103.916 65.8055 103.688 67.8883 103.316 69.9555L105.228 68.822Z" fill="#3C7DCF" />
  </g>
  <defs>
    <linearGradient id="paint0_linear_6900_4545" x1="88.2826" y1="84.7486" x2="49.308" y2="23.357" gradientUnits="userSpaceOnUse">
      <stop stop-color="#BB7239" />
      <stop offset="0.23" stop-color="#FCEEAE" />
      <stop offset="0.52" stop-color="#E09E5B" />
      <stop offset="0.75" stop-color="#FCE9A4" />
      <stop offset="0.83" stop-color="#F1D693" />
      <stop offset="0.92" stop-color="#E1BD7C" />
      <stop offset="1" stop-color="#D08A4A" />
    </linearGradient>
    <linearGradient id="paint1_linear_6900_4545" x1="83.2442" y1="58.648" x2="19.2277" y2="30.5939" gradientUnits="userSpaceOnUse">
      <stop stop-color="#BB7239" />
      <stop offset="0.23" stop-color="#FCEEAE" />
      <stop offset="0.52" stop-color="#E09E5B" />
      <stop offset="0.75" stop-color="#FCE9A4" />
      <stop offset="0.83" stop-color="#F1D693" />
      <stop offset="0.92" stop-color="#E1BD7C" />
      <stop offset="1" stop-color="#D08A4A" />
    </linearGradient>
    <linearGradient id="paint2_linear_6900_4545" x1="18.6018" y1="57.3838" x2="106.632" y2="45.0868" gradientUnits="userSpaceOnUse">
      <stop stop-color="#BB7239" />
      <stop offset="0.23" stop-color="#FCEEAE" />
      <stop offset="0.52" stop-color="#E09E5B" />
      <stop offset="0.75" stop-color="#FCE9A4" />
      <stop offset="0.83" stop-color="#F1D693" />
      <stop offset="0.92" stop-color="#E1BD7C" />
      <stop offset="1" stop-color="#D08A4A" />
    </linearGradient>
    <linearGradient id="paint3_linear_6900_4545" x1="-7.81153" y1="31.6762" x2="79.937" y2="19.4151" gradientUnits="userSpaceOnUse">
      <stop stop-color="#BB7239" />
      <stop offset="0.23" stop-color="#FCEEAE" />
      <stop offset="0.52" stop-color="#E09E5B" />
      <stop offset="0.75" stop-color="#FCE9A4" />
      <stop offset="0.83" stop-color="#F1D693" />
      <stop offset="0.92" stop-color="#E1BD7C" />
      <stop offset="1" stop-color="#D08A4A" />
    </linearGradient>
    <linearGradient id="paint4_linear_6900_4545" x1="25.1096" y1="26.9814" x2="3.20843" y2="11.9683" gradientUnits="userSpaceOnUse">
      <stop stop-color="#BB7239" />
      <stop offset="0.23" stop-color="#FCEEAE" />
      <stop offset="0.52" stop-color="#E09E5B" />
      <stop offset="0.75" stop-color="#FCE9A4" />
      <stop offset="0.83" stop-color="#F1D693" />
      <stop offset="0.92" stop-color="#E1BD7C" />
      <stop offset="1" stop-color="#D08A4A" />
    </linearGradient>
    <linearGradient id="paint5_linear_6900_4545" x1="11.0954" y1="58.4034" x2="-5.23396" y2="54.0413" gradientUnits="userSpaceOnUse">
      <stop stop-color="#BB7239" />
      <stop offset="0.23" stop-color="#FCEEAE" />
      <stop offset="0.52" stop-color="#E09E5B" />
      <stop offset="0.75" stop-color="#FCE9A4" />
      <stop offset="0.83" stop-color="#F1D693" />
      <stop offset="0.92" stop-color="#E1BD7C" />
      <stop offset="1" stop-color="#D08A4A" />
    </linearGradient>
    <linearGradient id="paint6_linear_6900_4545" x1="12.8882" y1="55.9517" x2="20.6045" y2="55.7838" gradientUnits="userSpaceOnUse">
      <stop stop-color="#BB7239" />
      <stop offset="0.23" stop-color="#FCEEAE" />
      <stop offset="0.52" stop-color="#E09E5B" />
      <stop offset="0.75" stop-color="#FCE9A4" />
      <stop offset="0.83" stop-color="#F1D693" />
      <stop offset="0.92" stop-color="#E1BD7C" />
      <stop offset="1" stop-color="#D08A4A" />
    </linearGradient>
    <linearGradient id="paint7_linear_6900_4545" x1="55.4791" y1="12.049" x2="45.1272" y2="-7.20991" gradientUnits="userSpaceOnUse">
      <stop stop-color="#BB7239" />
      <stop offset="0.23" stop-color="#FCEEAE" />
      <stop offset="0.52" stop-color="#E09E5B" />
      <stop offset="0.75" stop-color="#FCE9A4" />
      <stop offset="0.83" stop-color="#F1D693" />
      <stop offset="0.92" stop-color="#E1BD7C" />
      <stop offset="1" stop-color="#D08A4A" />
    </linearGradient>
    <linearGradient id="paint8_linear_6900_4545" x1="58.7643" y1="11.96" x2="46.843" y2="-6.36016" gradientUnits="userSpaceOnUse">
      <stop stop-color="#BB7239" />
      <stop offset="0.23" stop-color="#FCEEAE" />
      <stop offset="0.52" stop-color="#E09E5B" />
      <stop offset="0.75" stop-color="#FCE9A4" />
      <stop offset="0.83" stop-color="#F1D693" />
      <stop offset="0.92" stop-color="#E1BD7C" />
      <stop offset="1" stop-color="#D08A4A" />
    </linearGradient>
    <linearGradient id="paint9_linear_6900_4545" x1="92.2725" y1="26.6337" x2="105.681" y2="25.8158" gradientUnits="userSpaceOnUse">
      <stop stop-color="#BB7239" />
      <stop offset="0.23" stop-color="#FCEEAE" />
      <stop offset="0.52" stop-color="#E09E5B" />
      <stop offset="0.75" stop-color="#FCE9A4" />
      <stop offset="0.83" stop-color="#F1D693" />
      <stop offset="0.92" stop-color="#E1BD7C" />
      <stop offset="1" stop-color="#D08A4A" />
    </linearGradient>
    <linearGradient id="paint10_linear_6900_4545" x1="74.5321" y1="18.4927" x2="92.2018" y2="14.7244" gradientUnits="userSpaceOnUse">
      <stop stop-color="#BB7239" />
      <stop offset="0.23" stop-color="#FCEEAE" />
      <stop offset="0.52" stop-color="#E09E5B" />
      <stop offset="0.75" stop-color="#FCE9A4" />
      <stop offset="0.83" stop-color="#F1D693" />
      <stop offset="0.92" stop-color="#E1BD7C" />
      <stop offset="1" stop-color="#D08A4A" />
    </linearGradient>
    <linearGradient id="paint11_linear_6900_4545" x1="35.3969" y1="109.051" x2="53.1012" y2="99.7445" gradientUnits="userSpaceOnUse">
      <stop stop-color="#BB7239" />
      <stop offset="0.23" stop-color="#FCEEAE" />
      <stop offset="0.52" stop-color="#E09E5B" />
      <stop offset="0.75" stop-color="#FCE9A4" />
      <stop offset="0.83" stop-color="#F1D693" />
      <stop offset="0.92" stop-color="#E1BD7C" />
      <stop offset="1" stop-color="#D08A4A" />
    </linearGradient>
    <linearGradient id="paint12_linear_6900_4545" x1="50.61" y1="106.506" x2="80.3111" y2="100.883" gradientUnits="userSpaceOnUse">
      <stop stop-color="#BB7239" />
      <stop offset="0.23" stop-color="#FCEEAE" />
      <stop offset="0.52" stop-color="#E09E5B" />
      <stop offset="0.75" stop-color="#FCE9A4" />
      <stop offset="0.83" stop-color="#F1D693" />
      <stop offset="0.92" stop-color="#E1BD7C" />
      <stop offset="1" stop-color="#D08A4A" />
    </linearGradient>
    <linearGradient id="paint13_linear_6900_4545" x1="11.5984" y1="101.364" x2="41.2691" y2="91.5806" gradientUnits="userSpaceOnUse">
      <stop stop-color="#BB7239" />
      <stop offset="0.23" stop-color="#FCEEAE" />
      <stop offset="0.52" stop-color="#E09E5B" />
      <stop offset="0.75" stop-color="#FCE9A4" />
      <stop offset="0.83" stop-color="#F1D693" />
      <stop offset="0.92" stop-color="#E1BD7C" />
      <stop offset="1" stop-color="#D08A4A" />
    </linearGradient>
    <linearGradient id="paint14_linear_6900_4545" x1="69.0633" y1="87.5402" x2="106.569" y2="82.3033" gradientUnits="userSpaceOnUse">
      <stop stop-color="#BB7239" />
      <stop offset="0.23" stop-color="#FCEEAE" />
      <stop offset="0.52" stop-color="#E09E5B" />
      <stop offset="0.75" stop-color="#FCE9A4" />
      <stop offset="0.83" stop-color="#F1D693" />
      <stop offset="0.92" stop-color="#E1BD7C" />
      <stop offset="1" stop-color="#D08A4A" />
    </linearGradient>
    <linearGradient id="paint15_linear_6900_4545" x1="100.132" y1="52.5074" x2="115.772" y2="51.872" gradientUnits="userSpaceOnUse">
      <stop stop-color="#BB7239" />
      <stop offset="0.23" stop-color="#FCEEAE" />
      <stop offset="0.52" stop-color="#E09E5B" />
      <stop offset="0.75" stop-color="#FCE9A4" />
      <stop offset="0.83" stop-color="#F1D693" />
      <stop offset="0.92" stop-color="#E1BD7C" />
      <stop offset="1" stop-color="#D08A4A" />
    </linearGradient>
  </defs>
</svg>
