<svg viewBox="0 0 121 124" fill="none" xmlns="http://www.w3.org/2000/svg">
  
  <path d="M55.471 114.634C45.481 113.6 36.1454 109.625 28.3592 103.089L18.3113 105.853L21.0051 95.5451C14.6343 87.5574 10.7594 77.9803 9.75191 67.7318L0.772461 62.4139L9.74582 57.0992C10.7412 46.8351 14.616 37.2392 20.993 29.2391L18.3113 18.9718L28.3105 21.7197C36.115 15.1497 45.481 11.159 55.5075 10.1285L60.6578 0.976074L65.805 10.1223C75.8467 11.1403 85.228 15.131 93.0447 21.7073L103.001 18.9687L100.332 29.1828C106.742 37.2018 110.632 46.8257 111.625 57.1273L120.54 62.4077L111.618 67.6912C110.614 77.9772 106.724 87.5855 100.323 95.5919L103.001 105.85L92.9929 103.099C85.1945 109.641 75.8407 113.616 65.8354 114.637L60.6547 123.842L55.471 114.631V114.634ZM24.9804 80.5003L25.4066 81.3371C29.3332 89.0469 35.4392 95.1516 43.0672 98.9894L43.8951 99.4078L44.513 103.808L47.9191 101.057L48.7988 101.341C52.6767 102.593 56.6825 103.227 60.7065 103.227C65.0349 103.227 69.3268 102.493 73.4573 101.05L74.3309 100.744L77.7766 103.389L78.2849 99.0081L79.1037 98.5709C86.6343 94.5459 92.5972 88.2787 96.3473 80.444L96.7552 79.5947L101.007 78.967L98.3532 75.5071L98.6332 74.6016C101.202 66.261 101.105 57.4864 98.3562 49.227L98.0579 48.3309L100.603 44.8429L96.3899 44.3276L95.9638 43.4876C92.0341 35.7341 85.9007 29.6013 78.2331 25.7479L77.4022 25.3326L76.7964 21.0109L73.4543 23.7089L72.5715 23.4247C68.6814 22.1663 64.6635 21.5261 60.6273 21.5261C56.2715 21.5261 51.9584 22.2662 47.8065 23.7276L46.9329 24.0336L43.5359 21.4262L43.0337 25.7511L42.2149 26.1882C34.6722 30.2227 28.7062 36.5117 24.9591 44.3682L24.5543 45.2207L20.305 45.8484L22.9624 49.3114L22.6854 50.2138C20.1346 58.5419 20.2411 67.3009 22.9897 75.5415L23.288 76.4377L20.7129 79.9694L24.9865 80.4909L24.9804 80.5003Z" fill="url(#paint0_linear_6900_4212)" />
  <g style="mix-blend-mode:screen" opacity="0.5">
    <path d="M22.189 95.8672C22.2925 95.4738 22.2012 95.0553 21.9485 94.74C15.7482 86.9646 11.9525 77.5842 10.9724 67.6105C10.9328 67.2045 10.7106 66.8455 10.3667 66.6425L3.22276 62.4113L10.3606 58.1833C10.7046 57.9803 10.9268 57.6181 10.9663 57.2121C11.9373 47.2228 15.733 37.8268 21.9364 30.0389C22.186 29.7236 22.2773 29.3051 22.1768 28.9117L20.0431 20.746L27.9936 22.9318C28.3741 23.038 28.782 22.9474 29.0864 22.6883C36.6838 16.2931 45.8611 12.3804 55.6196 11.3781C56.0153 11.3375 56.3654 11.1095 56.5663 10.7567L60.435 3.88375C60.5903 3.60583 60.5172 3.25297 60.2646 3.06249C59.9693 2.84391 59.5553 2.93446 59.3758 3.25609L55.507 10.129C45.4806 11.1595 36.1146 15.1502 28.3102 21.7202L18.3111 18.9723L20.9928 29.2395C14.6159 37.2397 10.7411 46.8356 9.74574 57.0997L0.772461 62.4144L9.75183 67.7323C10.7593 77.9808 14.6342 87.5579 21.005 95.5456L18.8773 103.696C18.7708 104.108 19.0873 104.511 19.5043 104.486C19.7661 104.47 19.9914 104.283 20.0583 104.02L22.186 95.8703L22.189 95.8672Z" fill="#FFE46B" />
  </g>
  <path d="M120.542 62.4112L111.626 57.1309C110.634 46.8293 106.744 37.2053 100.334 29.1864L102.002 22.8037C102.233 21.9232 101.484 21.0957 100.611 21.2674C100.157 21.3548 99.795 21.7014 99.6733 22.1574L97.643 29.7984C104.257 37.8673 108.479 48.1564 109.301 58.6516L115.057 62.4112L109.295 66.174C108.318 76.1852 103.865 87.1862 97.6308 94.9835L99.0097 101.641L92.4015 100.339C84.8101 106.709 74.0379 111.024 64.2976 112.021L60.5902 118.06C60.3071 118.522 60.2949 119.109 60.5628 119.584C61.1168 120.567 62.4987 120.567 63.0527 119.584L65.8408 114.637C75.846 113.616 85.1997 109.641 92.9981 103.099L103.006 105.85L100.328 95.5924C106.732 87.5859 110.622 77.9776 111.623 67.6916L120.545 62.4081L120.542 62.4112Z" fill="url(#paint1_linear_6900_4212)" />
  <path d="M99.7228 75.2549L99.805 74.9833C102.453 66.3866 102.353 57.3404 99.5189 48.825L99.4306 48.5564L100.663 46.8265C100.858 46.5548 100.8 46.1707 100.539 45.9709C100.274 45.7679 99.8963 45.8241 99.6985 46.0958L98.0639 48.3378L98.3622 49.234C101.111 57.4934 101.208 66.268 98.6392 74.6085L98.3592 75.5141L101.013 78.974L96.7611 79.6016L96.3533 80.451C92.6032 88.2857 86.6403 94.5559 79.1098 98.5779L78.291 99.0151L77.7827 103.396L74.3371 100.751L73.4635 101.057C69.333 102.5 65.0442 103.234 60.7128 103.234C56.6888 103.234 52.6831 102.6 48.8053 101.348L47.9256 101.064L45.8132 102.768C45.5483 102.984 45.5027 103.377 45.7097 103.649C45.9197 103.921 46.3032 103.968 46.568 103.755L48.1752 102.459L48.44 102.544C52.4366 103.833 56.5671 104.486 60.7128 104.486C65.1781 104.486 69.6009 103.73 73.8562 102.241L74.1179 102.15L77.0157 104.373C77.2622 104.564 77.5666 104.673 77.874 104.645C78.4798 104.592 78.9303 104.121 78.9972 103.54L79.4295 99.8176L79.676 99.6864C87.4378 95.5396 93.5864 89.0757 97.4521 80.9975L97.5739 80.7414L101.166 80.2105C101.43 80.1731 101.683 80.0575 101.872 79.8639C102.331 79.3862 102.347 78.6711 101.975 78.1902L99.7198 75.2518L99.7228 75.2549Z" fill="url(#paint2_linear_6900_4212)" />
  <path d="M21.5995 49.576L21.5173 49.8477C18.8874 58.4318 18.997 67.4625 21.8308 75.956L21.9191 76.2246L20.7776 77.789C20.7776 77.789 20.7685 77.8015 20.7655 77.8046C20.3028 78.4604 21.2981 79.1692 21.7699 78.5229L23.2858 76.4432L22.9875 75.547C20.2389 67.3063 20.1354 58.5473 22.6831 50.2193L22.9601 49.3168L20.3028 45.8538L24.552 45.2262L24.9568 44.3737C28.7038 36.5172 34.6698 30.2282 42.2124 26.1937L43.0312 25.7565L43.5335 21.4317L46.9304 24.0391L47.804 23.7331C51.9558 22.2717 56.269 21.5316 60.6247 21.5316C64.6609 21.5316 68.6787 22.1686 72.5688 23.4302L73.4515 23.7143L75.3204 22.2061C75.9414 21.7065 75.223 20.7041 74.596 21.1944C74.5899 21.1975 74.5838 21.2038 74.5808 21.2069L73.2049 22.3185L72.9401 22.2342C68.9314 20.9352 64.7887 20.2794 60.6278 20.2794C56.1381 20.2794 51.691 21.0445 47.4113 22.5496L47.1496 22.6433L44.3036 20.4574C44.057 20.267 43.7526 20.1577 43.4452 20.1858C42.8395 20.2389 42.389 20.7104 42.322 21.2912L41.8959 24.9603L41.6493 25.0914C33.8723 29.2508 27.7207 35.7334 23.8611 43.8335L23.7393 44.0895L20.1536 44.6204C19.8888 44.661 19.6362 44.7734 19.4475 44.967C18.9879 45.4448 18.9726 46.1567 19.344 46.6407L21.6025 49.5854L21.5995 49.576Z" fill="url(#paint3_linear_6900_4212)" />
  <path d="M15.8682 43.6111C17.7706 38.8428 20.4066 34.3805 23.7274 30.3648L24.0835 29.9339L22.2785 23.0266L29.0054 24.8753L29.4255 24.5099C33.0355 21.3623 37.0138 18.808 41.2539 16.8938L40.4381 23.9166C32.7585 28.1571 26.6434 34.5991 22.7016 42.6024L15.8682 43.6142V43.6111Z" fill="url(#paint4_linear_6900_4212)" />
  <path d="M23.7366 30.0282C23.7793 30.1875 23.9193 30.2936 24.0745 30.2936C24.105 30.2936 24.1354 30.2905 24.1658 30.2812C24.3515 30.2312 24.4642 30.0345 24.4124 29.8408L22.6073 22.9336C22.5586 22.7431 22.3668 22.6276 22.1781 22.6807C21.9924 22.7306 21.8798 22.9273 21.9315 23.121L23.7366 30.0282Z" fill="#FFE46B" />
  <path d="M40.7417 23.7473C40.6504 23.5724 40.4373 23.5069 40.2669 23.6006C32.5872 27.838 26.4356 34.2925 22.4664 42.2739L15.8125 43.2576C15.6208 43.2857 15.4899 43.4668 15.5173 43.6635C15.5416 43.8415 15.6908 43.9695 15.8643 43.9695C15.8795 43.9695 15.8978 43.9695 15.916 43.9664L22.9291 42.9297L23.0113 42.7642C26.9135 34.8389 32.9951 28.4313 40.6017 24.2344C40.7721 24.1408 40.8361 23.9222 40.7447 23.7473H40.7417Z" fill="#FFE46B" />
  <path d="M17.4791 42.5991L21.9871 41.934C25.9745 33.9494 32.1048 27.4918 39.7662 23.2013L40.3019 18.5767C36.5519 20.419 33.0575 22.761 29.8919 25.5589L29.4719 25.9305L23.4999 24.288L25.1009 30.4208L24.7417 30.8517C21.7679 34.4053 19.3298 38.3523 17.4761 42.5991H17.4791Z" fill="#038900" />
  <g style="mix-blend-mode:screen">
    <path d="M18.7325 40.6823C20.422 37.2069 22.5284 33.953 25.0123 30.9865L25.7338 30.1247L24.4583 25.244L29.21 26.5493L30.0502 25.8061C32.6497 23.511 35.4837 21.5218 38.5003 19.8762L38.2568 21.9621C30.799 26.2558 24.7688 32.6072 20.772 40.3826L18.7295 40.6855L18.7325 40.6823Z" fill="#038900" />
  </g>
  <g style="mix-blend-mode:screen">
    <path d="M22.6236 37.1327C23.6616 35.4621 24.797 33.8695 26.0268 32.3613L25.3358 30.6001L25.0162 30.9811C23.8868 32.33 22.8397 33.7446 21.8687 35.206L22.6236 37.1295V37.1327Z" fill="#3C7DCF" />
  </g>
  <g style="mix-blend-mode:screen">
    <path d="M34.306 22.4739C33.3106 23.1671 32.3426 23.8978 31.3989 24.6691L32.0412 26.2991C32.9757 25.5216 33.9437 24.7846 34.9421 24.0851L34.309 22.4739H34.306Z" fill="#3C7DCF" />
  </g>
  <path d="M16.0566 81.5952C14.1114 76.8457 12.8969 71.787 12.4738 66.5535L12.4281 65.9914L6.38574 62.4129L12.4251 58.8344L12.4707 58.2723C12.8543 53.4415 13.9105 48.7607 15.5969 44.3359L19.8707 49.9099C17.3624 58.4784 17.472 67.4559 20.1812 75.9401L16.0535 81.5984L16.0566 81.5952Z" fill="url(#paint5_linear_6900_4212)" />
  <path d="M18.8893 49.888L16.0705 46.2126C14.6855 50.2315 13.8241 54.4127 13.5105 58.672L13.4679 59.2372L8.10742 62.4129L13.474 65.5917L13.5166 66.1569C13.8636 70.8159 14.8621 75.3687 16.4845 79.7123L19.2028 75.9839C16.5393 67.4778 16.4297 58.4784 18.8893 49.8911V49.888Z" fill="#038900" />
  <g style="mix-blend-mode:screen">
    <path d="M16.2891 76.8964C15.0867 73.2148 14.3287 69.3927 14.0396 65.5051L13.9543 64.3747L9.68359 61.8453L13.9513 59.3191L14.0335 58.1856C14.2892 54.6883 14.9284 51.2315 15.9299 47.884L17.2114 49.5546C14.901 57.9982 15.0076 66.8478 17.5189 75.2133L16.2891 76.8996V76.8964Z" fill="#038900" />
  </g>
  <path d="M12.4019 66.3721C12.5419 66.4564 12.7154 66.4283 12.825 66.3159C12.8463 66.294 12.8646 66.2691 12.8798 66.241C12.9772 66.0692 12.9194 65.8506 12.752 65.7507L6.7157 62.1753C6.54828 62.0754 6.33519 62.1347 6.23779 62.3064C6.14038 62.4782 6.19821 62.6968 6.36563 62.7967L12.4019 66.3721Z" fill="#FFE46B" />
  <path d="M20.0903 49.599C19.9046 49.5428 19.7098 49.649 19.655 49.8395C17.1467 58.408 17.2442 67.4324 19.9381 75.954L15.9109 81.478C15.7952 81.6372 15.8256 81.8621 15.9809 81.9807C16.1209 82.09 16.3157 82.0713 16.4375 81.9464C16.4497 81.9339 16.4588 81.9214 16.471 81.9058L20.7143 76.0852L20.6565 75.9072C17.9534 67.473 17.8377 58.5297 20.3216 50.0455C20.3764 49.8551 20.2729 49.6552 20.0873 49.599H20.0903Z" fill="url(#paint6_linear_6900_4212)" />
  <g style="mix-blend-mode:screen">
    <path d="M15.76 57.6097L14.1345 57.1538C14.101 57.4973 14.0705 57.8377 14.0462 58.1811L13.964 59.3147L9.69629 61.8409L13.967 64.3702L14.0523 65.5006C14.1253 66.4593 14.2258 67.4148 14.3536 68.3672L16.1009 68.8574C15.5317 65.1321 15.419 61.3569 15.763 57.6066L15.76 57.6097Z" fill="#3C7DCF" />
  </g>
  <path d="M41.9131 16.6023C46.5641 14.5882 51.5225 13.3392 56.6575 12.9051L57.2054 12.8583L60.6602 6.71606L64.1149 12.8521L64.6628 12.8989C69.4021 13.2923 73.9922 14.3821 78.3297 16.1277L72.8873 20.5244C68.8908 19.2878 64.7724 18.6633 60.6328 18.6633C56.1522 18.6633 51.7143 19.394 47.4346 20.8397L41.9161 16.6054L41.9131 16.6023Z" fill="url(#paint7_linear_6900_4212)" />
  <path d="M78.6752 16.0742C78.6569 15.9462 78.5747 15.84 78.456 15.7931C74.0698 14.0288 69.4401 12.9359 64.6917 12.5425L64.3265 12.5112L60.9661 6.53764C60.8686 6.36589 60.6556 6.30657 60.4882 6.40649C60.3208 6.50642 60.2629 6.725 60.3603 6.89675L63.8151 13.0327C63.8729 13.1358 63.9764 13.2013 64.089 13.2107L64.6369 13.2576C69.1114 13.6291 73.4793 14.6315 77.6311 16.2365L72.8127 20.1274C68.8405 18.9158 64.7404 18.3037 60.6312 18.3037C56.1172 18.3037 51.6397 19.0407 47.3235 20.4958C47.1409 20.5583 47.0404 20.7613 47.1013 20.9486C47.15 21.0985 47.287 21.1953 47.4331 21.1953C47.4696 21.1953 47.5061 21.189 47.5427 21.1766C51.7888 19.7464 56.1933 19.0188 60.6343 19.0188C64.7343 19.0188 68.8253 19.6402 72.7884 20.8643C72.898 20.8986 73.0167 20.8737 73.1049 20.8018L78.5504 16.4052C78.6478 16.3271 78.6995 16.1991 78.6813 16.0711L78.6752 16.0742Z" fill="url(#paint8_linear_6900_4212)" />
  <path d="M60.6262 17.7047C64.7689 17.7047 68.8933 18.3199 72.899 19.5315L76.4968 16.6274C72.5581 15.191 68.452 14.3042 64.2727 13.9826L63.7188 13.9388L60.6566 8.49609L57.5915 13.942L57.0406 13.9857C52.4687 14.3417 48.0064 15.3721 43.748 17.0521L47.3855 19.8438C51.6864 18.423 56.1396 17.7016 60.6293 17.7016L60.6262 17.7047Z" fill="#038900" />
  <g style="mix-blend-mode:screen">
    <path d="M45.4067 16.8207C49.0198 15.5717 52.7729 14.791 56.5929 14.4944L57.6978 14.41L60.1298 10.0852L62.5619 14.4038L63.6668 14.4881C67.1064 14.7504 70.5033 15.4093 73.7907 16.4522L72.15 17.7794C68.2113 16.6396 64.163 16.0619 60.1025 16.0619C55.6858 16.0619 51.2996 16.7427 47.0565 18.0854L45.4098 16.8207H45.4067Z" fill="#038900" />
  </g>
  <g style="mix-blend-mode:screen">
    <path d="M70.9722 15.6619C68.5796 15.0749 66.1414 14.6783 63.6788 14.491L63.4688 14.4753L63.901 16.2365C66.4397 16.4613 68.9632 16.911 71.441 17.5855L70.9692 15.6619H70.9722Z" fill="#3C7DCF" />
  </g>
  <g style="mix-blend-mode:screen">
    <path d="M52.9253 14.9381L53.3332 16.6024C54.496 16.4182 55.6649 16.2777 56.8368 16.1871L56.4259 14.5103C55.2509 14.6071 54.0851 14.7507 52.9253 14.9381Z" fill="#3C7DCF" />
  </g>
  <path d="M98.1825 41.6622C94.0551 33.7651 87.7695 27.4792 79.959 23.4292L78.9697 16.397C83.639 18.3549 88.0069 21.0778 91.9396 24.5065L92.3596 24.8718L99.0439 23.0326L97.2541 29.8899L97.6103 30.3208C100.688 34.0368 103.184 38.1337 105.049 42.5022L98.1825 41.6622Z" fill="#BD6018" />
  <path d="M105.061 42.8609C105.061 42.8609 105.034 42.8609 105.018 42.8609L98.1511 42.0209C97.9593 41.9959 97.8223 41.8179 97.8436 41.6212C97.868 41.4245 98.0415 41.2839 98.2333 41.3058L104.489 42.0709C102.656 37.9334 100.258 34.0613 97.3505 30.5515L96.9944 30.1205C96.9213 30.03 96.8939 29.9082 96.9244 29.7958L98.7142 22.9385C98.7629 22.748 98.9578 22.6324 99.1434 22.6855C99.3291 22.7355 99.4418 22.9322 99.39 23.1258L97.6458 29.802L97.8832 30.0893C100.967 33.8115 103.49 37.9427 105.378 42.3613C105.429 42.4799 105.414 42.6142 105.338 42.7204C105.271 42.8109 105.168 42.864 105.058 42.864L105.061 42.8609Z" fill="url(#paint9_linear_6900_4212)" />
  <path d="M91.9396 24.8621C91.8604 24.8621 91.7782 24.834 91.7143 24.7778C88.3963 21.8831 84.7344 19.4755 80.832 17.6207C80.6554 17.5364 80.5793 17.3241 80.6615 17.1461C80.7437 16.965 80.9507 16.8869 81.1242 16.9712C85.0845 18.8542 88.7982 21.2992 92.1679 24.2345C92.314 24.3625 92.3322 24.5904 92.2074 24.7403C92.1374 24.8246 92.04 24.8652 91.9396 24.8652V24.8621Z" fill="url(#paint10_linear_6900_4212)" />
  <path d="M98.8748 40.9764L103.404 41.5291C101.605 37.6633 99.3162 34.0629 96.5828 30.806L96.2206 30.3751L97.8094 24.2922L91.88 25.9222L91.46 25.5506C87.9809 22.4779 84.1152 19.9611 79.9512 18.05L80.6026 22.6965C88.3948 26.7965 94.6956 33.098 98.8717 40.9764H98.8748Z" fill="#038900" />
  <g style="mix-blend-mode:screen">
    <path d="M99.0166 39.4043C94.8311 31.7382 88.6365 25.5398 81.0478 21.4304L80.7495 19.3132C84.1588 21.0557 87.352 23.2352 90.259 25.7989L91.0991 26.5421L95.8082 25.2462L94.545 30.0769L95.2694 30.9388C97.5189 33.618 99.4641 36.5439 101.071 39.6572L99.0136 39.4043H99.0166Z" fill="#038900" />
  </g>
  <g style="mix-blend-mode:screen">
    <path d="M90.2623 25.7998C88.6429 24.3696 86.9321 23.0644 85.1453 21.884L84.293 23.3767C87.3004 25.3533 90.0492 27.6765 92.4905 30.312L95.3001 25.3845L91.0994 26.5399L90.2592 25.7967L90.2623 25.7998Z" fill="#3C7DCF" />
  </g>
  <path d="M57.1602 111.906L56.6123 111.86C51.9096 111.46 47.3529 110.373 43.0459 108.643L48.4883 104.25C52.4727 105.477 56.5789 106.098 60.7033 106.098C65.1564 106.098 69.57 105.374 73.8284 103.95L79.3682 108.203C74.7324 110.198 69.7922 111.438 64.6816 111.866L64.1337 111.913L60.6485 118.108L57.1602 111.91V111.906Z" fill="#BD6018" />
  <path d="M56.6425 111.5C51.9973 111.106 47.4679 110.032 43.1758 108.305C42.9962 108.234 42.7923 108.324 42.7222 108.508C42.6522 108.693 42.7405 108.902 42.9201 108.974C47.2761 110.722 51.8725 111.812 56.5847 112.215C56.5938 112.215 56.6029 112.215 56.6151 112.215C56.7947 112.215 56.9469 112.074 56.9621 111.887C56.9773 111.69 56.8343 111.515 56.6425 111.5Z" fill="url(#paint11_linear_6900_4212)" />
  <path d="M79.5841 107.912L74.044 103.659C73.8887 103.541 73.6696 103.575 73.5539 103.731C73.4382 103.89 73.4687 104.115 73.6239 104.234L78.6709 108.106C74.2145 109.955 69.5023 111.097 64.6593 111.503L64.1114 111.55C63.9957 111.56 63.8953 111.625 63.8374 111.728L60.352 117.924C60.2546 118.095 60.3125 118.314 60.4799 118.414C60.5347 118.445 60.5956 118.461 60.6534 118.461C60.7752 118.461 60.8908 118.395 60.9578 118.283L64.3519 112.25L64.7171 112.218C69.8402 111.791 74.8172 110.548 79.511 108.528C79.6267 108.478 79.7089 108.368 79.7241 108.24C79.7393 108.112 79.6876 107.987 79.5871 107.909L79.5841 107.912Z" fill="url(#paint12_linear_6900_4212)" />
  <path d="M60.6972 107.053C56.5697 107.053 52.4575 106.441 48.4639 105.239L44.8691 108.14C48.7774 109.564 52.8501 110.448 56.9958 110.772L57.5468 110.816L60.6454 116.321L63.741 110.822L64.292 110.779C68.8395 110.426 73.2835 109.408 77.5266 107.744L73.8679 104.936C69.5913 106.341 65.1625 107.053 60.7002 107.053H60.6972Z" fill="#038900" />
  <g style="mix-blend-mode:screen">
    <path d="M57.6585 109.221L56.5566 109.134C53.1536 108.865 49.7901 108.209 46.5332 107.182L48.1738 105.858C52.0974 106.988 56.1366 107.563 60.1818 107.563C64.5711 107.563 68.9329 106.892 73.1517 105.561L74.8167 106.838C71.2219 108.072 67.4901 108.843 63.6944 109.137L62.5895 109.221L60.127 113.599L57.6615 109.218L57.6585 109.221Z" fill="#038900" />
  </g>
  <g style="mix-blend-mode:screen">
    <path d="M68.2281 106.798C65.5737 107.303 62.8798 107.56 60.1767 107.56C59.37 107.56 58.5634 107.531 57.7598 107.485L57.8998 109.652L60.1219 113.599L62.5845 109.221L63.6895 109.136C65.2511 109.015 66.8035 108.809 68.3377 108.528L68.2251 106.798H68.2281Z" fill="#3C7DCF" />
  </g>
  <path d="M42.3369 108.345C37.7042 106.393 33.3728 103.692 29.4706 100.298L29.0505 99.9327L22.2749 101.794L24.089 94.8428L23.7329 94.4118C20.683 90.724 18.2083 86.6615 16.3516 82.3335L23.1972 83.1704C27.3216 91.0207 33.5767 97.2753 41.3477 101.313L42.3369 108.345Z" fill="#BD6018" />
  <path d="M42.6901 108.296L41.7008 101.264C41.6734 101.067 41.4938 100.933 41.3051 100.961C41.1133 100.989 40.9824 101.17 41.0098 101.367L41.9109 107.771C37.5062 105.848 33.4029 103.243 29.7044 100.024L29.2843 99.6586C29.196 99.5837 29.0773 99.5556 28.9677 99.5868L22.1918 101.448C22.0061 101.498 21.8935 101.695 21.9452 101.888C21.997 102.082 22.1857 102.194 22.3744 102.141L28.9738 100.327L29.2539 100.57C33.1685 103.974 37.5275 106.703 42.2153 108.677C42.2579 108.696 42.3035 108.705 42.3492 108.705C42.4253 108.705 42.5014 108.68 42.5653 108.63C42.6658 108.552 42.7145 108.424 42.6962 108.296H42.6901Z" fill="url(#paint13_linear_6900_4212)" />
  <path d="M22.5073 83.8579L18.0024 83.3083C19.7892 87.1336 22.0569 90.6996 24.7628 93.9284L25.1251 94.3593L23.5118 100.533L29.5295 98.8778L29.9496 99.2494C33.4013 102.291 37.2305 104.789 41.3549 106.688L40.7035 102.047C32.9538 97.9598 26.6774 91.6895 22.5073 83.8579Z" fill="#038900" />
  <g style="mix-blend-mode:screen">
    <path d="M39.5031 104.289C36.1334 102.559 32.9767 100.405 30.0971 97.8662L29.257 97.1261L24.4565 98.4438L25.7411 93.5194L25.0197 92.6576C22.8006 90.0065 20.8768 87.118 19.2817 84.0422L21.3121 84.292C25.4885 91.9113 31.6587 98.0785 39.2048 102.175L39.5 104.286L39.5031 104.289Z" fill="#038900" />
  </g>
  <g style="mix-blend-mode:screen">
    <path d="M39.2102 102.179C37.6395 101.326 36.1297 100.377 34.6838 99.3496L33.9897 100.936C35.7522 102.185 37.5938 103.306 39.5085 104.29L39.2133 102.179H39.2102Z" fill="#3C7DCF" />
  </g>
  <g style="mix-blend-mode:screen">
    <path d="M22.4626 86.2461L21.2754 87.5045C22.4108 89.3032 23.6619 91.0269 25.0287 92.6569L25.4122 93.1159L26.5598 91.8981C25.0591 90.1338 23.6893 88.2446 22.4626 86.2461Z" fill="#3C7DCF" />
  </g>
  <path d="M80.8964 100.854C88.5639 96.6288 94.6729 90.2024 98.6177 82.224L105.494 81.2061C103.585 85.9806 100.937 90.4459 97.6041 94.4648L97.248 94.8957L99.05 101.797L92.317 99.945L91.8969 100.31C88.29 103.449 84.3147 105.99 80.0776 107.898L80.8964 100.857V100.854Z" fill="#BD6018" />
  <path d="M105.064 83.1297C105.143 82.9486 105.067 82.7363 104.891 82.6551C104.717 82.5739 104.507 82.6551 104.428 82.8331C102.602 86.9269 100.218 90.7615 97.3387 94.2338L96.9826 94.6648C96.9095 94.7553 96.8821 94.8771 96.9126 94.9895L98.5593 101.291L92.4107 99.6016C92.3011 99.5704 92.1824 99.5985 92.0942 99.6735L91.6741 100.039C88.4598 102.834 84.9228 105.176 81.1576 107.002C80.9841 107.087 80.908 107.302 80.9902 107.48C81.0511 107.608 81.1759 107.686 81.3067 107.686C81.3554 107.686 81.4072 107.674 81.4559 107.652C85.2729 105.8 88.8646 103.424 92.1246 100.588L92.4046 100.345L98.9611 102.147C99.0798 102.181 99.2107 102.147 99.299 102.053C99.3872 101.962 99.4207 101.831 99.3903 101.706L97.634 94.9864L97.8714 94.6991C100.79 91.1768 103.21 87.286 105.061 83.1329L105.064 83.1297Z" fill="url(#paint14_linear_6900_4212)" />
  <path d="M103.874 82.2177L99.3267 82.8891C95.3332 90.8518 89.209 97.2907 81.5598 101.566L81.021 106.212C84.768 104.376 88.2562 102.043 91.4188 99.2579L91.8389 98.8895L97.817 100.532L96.2159 94.4054L96.5781 93.9744C99.5641 90.4178 102.011 86.4676 103.874 82.2146V82.2177Z" fill="#038900" />
  <g style="mix-blend-mode:screen">
    <path d="M82.0205 101.675C89.4631 97.3942 95.4872 91.0615 99.49 83.3111L101.572 83.002C99.8736 86.4837 97.758 89.7406 95.268 92.7071L94.5435 93.569L95.8159 98.4434L91.0581 97.135L90.218 97.8751C87.6215 100.161 84.7875 102.144 81.7739 103.783L82.0175 101.675H82.0205Z" fill="#038900" />
  </g>
  <g style="mix-blend-mode:screen">
    <path d="M85.4146 99.499C84.3157 100.27 83.1863 101.001 82.0174 101.672L81.7739 103.78C83.2746 102.965 84.7297 102.063 86.136 101.079L85.4176 99.4958L85.4146 99.499Z" fill="#3C7DCF" />
  </g>
  <g style="mix-blend-mode:screen">
    <path d="M96.1608 91.6119L94.8915 90.4878C93.7622 91.9336 92.5476 93.3075 91.2539 94.5972L95.5064 98.3568L95.8169 98.4411L94.5445 93.5667L95.269 92.7049C95.5734 92.3426 95.8686 91.9773 96.1608 91.6088V91.6119Z" fill="#3C7DCF" />
  </g>
  <path d="M101.465 74.9226C103.992 66.3385 103.894 57.3484 101.179 48.8455L105.325 43.1592C107.285 47.9368 108.503 53.033 108.92 58.3071L108.966 58.8692L114.947 62.4133L108.96 65.9575L108.914 66.5196C108.524 71.3722 107.459 76.0749 105.757 80.5184L101.465 74.9226Z" fill="#BD6018" />
  <path d="M115.124 62.1011L109.3 58.6537L109.27 58.279C108.932 54.0104 108.068 49.8198 106.701 45.8228C106.637 45.6354 106.436 45.5387 106.256 45.6042C106.074 45.6698 105.979 45.8759 106.043 46.0601C107.389 50.0009 108.241 54.1321 108.573 58.3383L108.619 58.9004C108.628 59.0191 108.692 59.1221 108.792 59.1815L114.25 62.4134L108.789 65.6484C108.689 65.7077 108.625 65.8139 108.616 65.9295L108.57 66.4915C108.186 71.2848 107.133 75.9594 105.438 80.3873C105.368 80.5715 105.456 80.7807 105.635 80.8525C105.678 80.8681 105.721 80.8775 105.763 80.8775C105.903 80.8775 106.034 80.7901 106.089 80.6496C107.809 76.1561 108.88 71.4128 109.27 66.5477L109.3 66.173L115.13 62.7225C115.239 62.6569 115.303 62.5414 115.303 62.4134C115.303 62.2853 115.236 62.1667 115.13 62.1042L115.124 62.1011Z" fill="url(#paint15_linear_6900_4212)" />
  <path d="M107.903 59.2687L107.861 58.7004C107.52 54.004 106.518 49.4199 104.881 45.042L102.141 48.7985C104.808 57.3233 104.905 66.3384 102.427 74.9412L105.267 78.6416C106.668 74.6071 107.538 70.4009 107.855 66.1198L107.897 65.5546L113.206 62.4101L107.9 59.2687H107.903Z" fill="#038900" />
  <g style="mix-blend-mode:screen">
    <path d="M103.058 74.1413C105.386 65.682 105.289 56.8169 102.774 48.4326L104.022 46.7183C105.237 50.4311 105.998 54.2875 106.284 58.2127L106.366 59.3462L110.576 61.8412L106.36 64.3362L106.278 65.4697C106.016 68.992 105.371 72.4706 104.357 75.8368L103.054 74.1381L103.058 74.1413Z" fill="#038900" />
  </g>
  <g style="mix-blend-mode:screen">
    <path d="M104.904 49.7256L103.376 50.6343C103.653 51.7584 103.887 52.8857 104.082 54.0223L105.641 53.098C105.437 51.9645 105.193 50.8404 104.907 49.7287L104.904 49.7256Z" fill="#3C7DCF" />
  </g>
  <g style="mix-blend-mode:screen">
    <path d="M105.919 68.8211C106.081 67.7094 106.206 66.5946 106.291 65.4736L106.373 64.3401L110.589 61.8451L109.219 61.0332L104.696 63.7187C104.607 65.8046 104.379 67.8874 104.008 69.9546L105.919 68.8211Z" fill="#3C7DCF" />
  </g>
  <defs>
    <linearGradient id="paint0_linear_6900_4212" x1="88.9665" y1="84.7486" x2="49.9917" y2="23.3569" gradientUnits="userSpaceOnUse">
      <stop stop-color="#BB7239" />
      <stop offset="0.23" stop-color="#FCEEAE" />
      <stop offset="0.52" stop-color="#E09E5B" />
      <stop offset="0.75" stop-color="#FCE9A4" />
      <stop offset="0.83" stop-color="#F1D693" />
      <stop offset="0.92" stop-color="#E1BD7C" />
      <stop offset="1" stop-color="#D08A4A" />
    </linearGradient>
    <linearGradient id="paint1_linear_6900_4212" x1="83.9289" y1="58.6479" x2="19.9121" y2="30.5937" gradientUnits="userSpaceOnUse">
      <stop stop-color="#BB7239" />
      <stop offset="0.23" stop-color="#FCEEAE" />
      <stop offset="0.52" stop-color="#E09E5B" />
      <stop offset="0.75" stop-color="#FCE9A4" />
      <stop offset="0.83" stop-color="#F1D693" />
      <stop offset="0.92" stop-color="#E1BD7C" />
      <stop offset="1" stop-color="#D08A4A" />
    </linearGradient>
    <linearGradient id="paint2_linear_6900_4212" x1="19.2863" y1="57.3835" x2="107.317" y2="45.0865" gradientUnits="userSpaceOnUse">
      <stop stop-color="#BB7239" />
      <stop offset="0.23" stop-color="#FCEEAE" />
      <stop offset="0.52" stop-color="#E09E5B" />
      <stop offset="0.75" stop-color="#FCE9A4" />
      <stop offset="0.83" stop-color="#F1D693" />
      <stop offset="0.92" stop-color="#E1BD7C" />
      <stop offset="1" stop-color="#D08A4A" />
    </linearGradient>
    <linearGradient id="paint3_linear_6900_4212" x1="-7.12752" y1="31.676" x2="80.6213" y2="19.4148" gradientUnits="userSpaceOnUse">
      <stop stop-color="#BB7239" />
      <stop offset="0.23" stop-color="#FCEEAE" />
      <stop offset="0.52" stop-color="#E09E5B" />
      <stop offset="0.75" stop-color="#FCE9A4" />
      <stop offset="0.83" stop-color="#F1D693" />
      <stop offset="0.92" stop-color="#E1BD7C" />
      <stop offset="1" stop-color="#D08A4A" />
    </linearGradient>
    <linearGradient id="paint4_linear_6900_4212" x1="25.8069" y1="26.9812" x2="3.90566" y2="11.968" gradientUnits="userSpaceOnUse">
      <stop stop-color="#BB7239" />
      <stop offset="0.23" stop-color="#FCEEAE" />
      <stop offset="0.52" stop-color="#E09E5B" />
      <stop offset="0.75" stop-color="#FCE9A4" />
      <stop offset="0.83" stop-color="#F1D693" />
      <stop offset="0.92" stop-color="#E1BD7C" />
      <stop offset="1" stop-color="#D08A4A" />
    </linearGradient>
    <linearGradient id="paint5_linear_6900_4212" x1="11.7868" y1="58.4032" x2="-4.54258" y2="54.0411" gradientUnits="userSpaceOnUse">
      <stop stop-color="#BB7239" />
      <stop offset="0.23" stop-color="#FCEEAE" />
      <stop offset="0.52" stop-color="#E09E5B" />
      <stop offset="0.75" stop-color="#FCE9A4" />
      <stop offset="0.83" stop-color="#F1D693" />
      <stop offset="0.92" stop-color="#E1BD7C" />
      <stop offset="1" stop-color="#D08A4A" />
    </linearGradient>
    <linearGradient id="paint6_linear_6900_4212" x1="13.5791" y1="55.9532" x2="21.2954" y2="55.7853" gradientUnits="userSpaceOnUse">
      <stop stop-color="#BB7239" />
      <stop offset="0.23" stop-color="#FCEEAE" />
      <stop offset="0.52" stop-color="#E09E5B" />
      <stop offset="0.75" stop-color="#FCE9A4" />
      <stop offset="0.83" stop-color="#F1D693" />
      <stop offset="0.92" stop-color="#E1BD7C" />
      <stop offset="1" stop-color="#D08A4A" />
    </linearGradient>
    <linearGradient id="paint7_linear_6900_4212" x1="56.1706" y1="12.048" x2="45.8186" y2="-7.21093" gradientUnits="userSpaceOnUse">
      <stop stop-color="#BB7239" />
      <stop offset="0.23" stop-color="#FCEEAE" />
      <stop offset="0.52" stop-color="#E09E5B" />
      <stop offset="0.75" stop-color="#FCE9A4" />
      <stop offset="0.83" stop-color="#F1D693" />
      <stop offset="0.92" stop-color="#E1BD7C" />
      <stop offset="1" stop-color="#D08A4A" />
    </linearGradient>
    <linearGradient id="paint8_linear_6900_4212" x1="59.4558" y1="11.9593" x2="47.5345" y2="-6.36093" gradientUnits="userSpaceOnUse">
      <stop stop-color="#BB7239" />
      <stop offset="0.23" stop-color="#FCEEAE" />
      <stop offset="0.52" stop-color="#E09E5B" />
      <stop offset="0.75" stop-color="#FCE9A4" />
      <stop offset="0.83" stop-color="#F1D693" />
      <stop offset="0.92" stop-color="#E1BD7C" />
      <stop offset="1" stop-color="#D08A4A" />
    </linearGradient>
    <linearGradient id="paint9_linear_6900_4212" x1="92.9693" y1="26.6335" x2="106.377" y2="25.8156" gradientUnits="userSpaceOnUse">
      <stop stop-color="#BB7239" />
      <stop offset="0.23" stop-color="#FCEEAE" />
      <stop offset="0.52" stop-color="#E09E5B" />
      <stop offset="0.75" stop-color="#FCE9A4" />
      <stop offset="0.83" stop-color="#F1D693" />
      <stop offset="0.92" stop-color="#E1BD7C" />
      <stop offset="1" stop-color="#D08A4A" />
    </linearGradient>
    <linearGradient id="paint10_linear_6900_4212" x1="75.2162" y1="18.4925" x2="92.886" y2="14.7242" gradientUnits="userSpaceOnUse">
      <stop stop-color="#BB7239" />
      <stop offset="0.23" stop-color="#FCEEAE" />
      <stop offset="0.52" stop-color="#E09E5B" />
      <stop offset="0.75" stop-color="#FCE9A4" />
      <stop offset="0.83" stop-color="#F1D693" />
      <stop offset="0.92" stop-color="#E1BD7C" />
      <stop offset="1" stop-color="#D08A4A" />
    </linearGradient>
    <linearGradient id="paint11_linear_6900_4212" x1="36.078" y1="109.053" x2="53.7823" y2="99.7457" gradientUnits="userSpaceOnUse">
      <stop stop-color="#BB7239" />
      <stop offset="0.23" stop-color="#FCEEAE" />
      <stop offset="0.52" stop-color="#E09E5B" />
      <stop offset="0.75" stop-color="#FCE9A4" />
      <stop offset="0.83" stop-color="#F1D693" />
      <stop offset="0.92" stop-color="#E1BD7C" />
      <stop offset="1" stop-color="#D08A4A" />
    </linearGradient>
    <linearGradient id="paint12_linear_6900_4212" x1="51.2911" y1="106.506" x2="80.9923" y2="100.882" gradientUnits="userSpaceOnUse">
      <stop stop-color="#BB7239" />
      <stop offset="0.23" stop-color="#FCEEAE" />
      <stop offset="0.52" stop-color="#E09E5B" />
      <stop offset="0.75" stop-color="#FCE9A4" />
      <stop offset="0.83" stop-color="#F1D693" />
      <stop offset="0.92" stop-color="#E1BD7C" />
      <stop offset="1" stop-color="#D08A4A" />
    </linearGradient>
    <linearGradient id="paint13_linear_6900_4212" x1="12.2947" y1="101.365" x2="41.9654" y2="91.5815" gradientUnits="userSpaceOnUse">
      <stop stop-color="#BB7239" />
      <stop offset="0.23" stop-color="#FCEEAE" />
      <stop offset="0.52" stop-color="#E09E5B" />
      <stop offset="0.75" stop-color="#FCE9A4" />
      <stop offset="0.83" stop-color="#F1D693" />
      <stop offset="0.92" stop-color="#E1BD7C" />
      <stop offset="1" stop-color="#D08A4A" />
    </linearGradient>
    <linearGradient id="paint14_linear_6900_4212" x1="69.7547" y1="87.54" x2="107.26" y2="82.3031" gradientUnits="userSpaceOnUse">
      <stop stop-color="#BB7239" />
      <stop offset="0.23" stop-color="#FCEEAE" />
      <stop offset="0.52" stop-color="#E09E5B" />
      <stop offset="0.75" stop-color="#FCE9A4" />
      <stop offset="0.83" stop-color="#F1D693" />
      <stop offset="0.92" stop-color="#E1BD7C" />
      <stop offset="1" stop-color="#D08A4A" />
    </linearGradient>
    <linearGradient id="paint15_linear_6900_4212" x1="100.824" y1="52.5072" x2="116.464" y2="51.8718" gradientUnits="userSpaceOnUse">
      <stop stop-color="#BB7239" />
      <stop offset="0.23" stop-color="#FCEEAE" />
      <stop offset="0.52" stop-color="#E09E5B" />
      <stop offset="0.75" stop-color="#FCE9A4" />
      <stop offset="0.83" stop-color="#F1D693" />
      <stop offset="0.92" stop-color="#E1BD7C" />
      <stop offset="1" stop-color="#D08A4A" />
    </linearGradient>
  </defs>
</svg>
