<svg viewBox="0 0 120 124" fill="none" xmlns="http://www.w3.org/2000/svg">
  <path d="M54.6984 114.634C44.7084 113.6 35.3728 109.625 27.5866 103.089L17.5388 105.853L20.2326 95.5451C13.8618 87.5574 9.98694 77.9803 8.97942 67.7318L0 62.414L8.97333 57.0993C9.96868 46.8352 13.8435 37.2394 20.2204 29.2392L17.5388 18.972L27.5379 21.7199C35.3424 15.1499 44.7084 11.1592 54.7349 10.1287L59.8851 0.976318L65.0323 10.1225C75.0741 11.1405 84.4553 15.1312 92.2719 21.7074L102.228 18.9689L99.559 29.183C105.969 37.2019 109.859 46.8258 110.852 57.1274L119.767 62.4078L110.846 67.6912C109.841 77.9772 105.951 87.5855 99.5498 95.5919L102.228 105.85L92.2202 103.099C84.4218 109.641 75.068 113.616 65.0628 114.637L59.8821 123.842L54.6984 114.631V114.634ZM24.2079 80.5003L24.6341 81.3371C28.5607 89.0469 34.6667 95.1516 42.2946 98.9893L43.1225 99.4078L43.7404 103.808L47.1465 101.056L48.0262 101.341C51.9041 102.593 55.9098 103.227 59.9338 103.227C64.2622 103.227 68.5541 102.493 72.6846 101.05L73.5582 100.744L77.0039 103.389L77.5122 99.008L78.331 98.5709C85.8615 94.5458 91.8245 88.2787 95.5745 80.444L95.9824 79.5947L100.235 78.967L97.5804 75.5072L97.8605 74.6016C100.43 66.2611 100.332 57.4865 97.5835 49.2271L97.2852 48.331L99.8299 44.843L95.6171 44.3277L95.191 43.4878C91.2614 35.7343 85.128 29.6014 77.4605 25.7481L76.6295 25.3328L76.0237 21.0111L72.6816 23.709L71.7989 23.4249C67.9088 22.1665 63.8909 21.5263 59.8547 21.5263C55.4989 21.5263 51.1857 22.2664 47.0339 23.7278L46.1603 24.0338L42.7634 21.4264L42.2611 25.7512L41.4423 26.1884C33.8996 30.2228 27.9336 36.5118 24.1866 44.3683L23.7818 45.2208L19.5325 45.8485L22.1898 49.3115L21.9128 50.2139C19.3621 58.5419 19.4686 67.3009 22.2172 75.5415L22.5155 76.4377L19.9404 79.9694L24.214 80.4909L24.2079 80.5003Z" fill="url(#paint0_linear_6900_4145)" />
  <g style="mix-blend-mode:screen" opacity="0.5">
    <path d="M21.4165 95.8672C21.52 95.4737 21.4287 95.0553 21.176 94.7399C14.9757 86.9646 11.18 77.5842 10.1999 67.6105C10.1603 67.2046 9.93815 66.8455 9.59419 66.6425L2.45029 62.4114L9.58811 58.1833C9.93206 57.9804 10.1543 57.6181 10.1938 57.2122C11.1648 47.2229 14.9605 37.8269 21.1638 30.0391C21.4134 29.7237 21.5048 29.3053 21.4043 28.9118L19.2706 20.7462L27.2211 22.932C27.6016 23.0382 28.0094 22.9476 28.3138 22.6884C35.9113 16.2933 45.0885 12.3807 54.847 11.3783C55.2427 11.3377 55.5928 11.1097 55.7937 10.7569L59.6624 3.88399C59.8176 3.60607 59.7446 3.25322 59.4919 3.06273C59.1967 2.84415 58.7827 2.93471 58.6031 3.25634L54.7344 10.1292C44.708 11.1597 35.3421 15.1504 27.5377 21.7204L17.5386 18.9725L20.2203 29.2397C13.8434 37.2399 9.96859 46.8357 8.97325 57.0998L0 62.4145L8.97934 67.7323C9.98685 77.9808 13.8617 87.5579 20.2324 95.5456L18.1048 103.696C17.9982 104.108 18.3148 104.511 18.7318 104.486C18.9936 104.47 19.2188 104.283 19.2858 104.02L21.4134 95.8703L21.4165 95.8672Z" fill="#FFE46B" />
  </g>
  <path d="M119.769 62.4097L110.854 57.1293C109.862 46.8278 105.972 37.2038 99.5612 29.1849L101.229 22.8023C101.461 21.9217 100.712 21.0942 99.8382 21.2659C99.3846 21.3534 99.0224 21.7 98.9007 22.1559L96.8704 29.7969C103.485 37.8658 107.707 48.1549 108.528 58.65L114.284 62.4097L108.522 66.1724C107.545 76.1836 103.092 87.1846 96.8583 94.9818L98.2371 101.639L91.6289 100.337C84.0376 106.707 73.2654 111.023 63.5251 112.019L59.8177 118.058C59.5347 118.52 59.5225 119.107 59.7903 119.582C60.3443 120.565 61.7262 120.565 62.2802 119.582L65.0684 114.636C75.0735 113.614 84.4272 109.639 92.2255 103.097L102.234 105.849L99.5551 95.5907C105.959 87.5843 109.849 77.976 110.851 67.69L119.772 62.4065L119.769 62.4097Z" fill="url(#paint1_linear_6900_4145)" />
  <path d="M98.9492 75.2551L99.0314 74.9834C101.68 66.3868 101.579 57.3406 98.7453 48.8252L98.657 48.5566L99.8897 46.8267C100.085 46.555 100.027 46.171 99.7649 45.9711C99.5001 45.7681 99.1227 45.8243 98.9249 46.096L97.2903 48.3381L97.5886 49.2343C100.337 57.4936 100.435 66.2682 97.8656 74.6087L97.5856 75.5143L100.24 78.9741L95.9875 79.6018L95.5797 80.4511C91.8297 88.2858 85.8668 94.556 78.3363 98.578L77.5175 99.0151L77.0092 103.396L73.5636 100.751L72.69 101.057C68.5595 102.5 64.2707 103.234 59.9393 103.234C55.9154 103.234 51.9097 102.6 48.0318 101.348L47.1521 101.064L45.0397 102.769C44.7749 102.984 44.7292 103.377 44.9362 103.649C45.1462 103.921 45.5298 103.968 45.7946 103.755L47.4017 102.459L47.6665 102.544C51.6631 103.833 55.7936 104.486 59.9393 104.486C64.4046 104.486 68.8273 103.73 73.0826 102.241L73.3444 102.15L76.2421 104.374C76.4887 104.564 76.7931 104.673 77.1005 104.645C77.7062 104.592 78.1567 104.121 78.2237 103.54L78.6559 99.8177L78.9025 99.6865C86.6643 95.5396 92.8128 89.0758 96.6785 80.9976L96.8002 80.7415L100.392 80.2107C100.657 80.1732 100.909 80.0577 101.098 79.8641C101.558 79.3863 101.573 78.6712 101.202 78.1904L98.9462 75.252L98.9492 75.2551Z" fill="url(#paint2_linear_6900_4145)" />
  <path d="M20.826 49.5762L20.7438 49.8478C18.114 58.4319 18.2235 67.4626 21.0574 75.9561L21.1456 76.2247L20.0042 77.7891C20.0042 77.7891 19.9951 77.8016 19.992 77.8047C19.5294 78.4605 20.5247 79.1693 20.9965 78.5229L22.5123 76.4432L22.214 75.547C19.4654 67.3064 19.3619 58.5475 21.9096 50.2194L22.1866 49.317L19.5294 45.854L23.7786 45.2264L24.1834 44.3739C27.9304 36.5174 33.8963 30.2284 41.4389 26.1939L42.2577 25.7568L42.76 21.4319L46.1569 24.0393L47.0305 23.7333C51.1823 22.2719 55.4954 21.5319 59.8511 21.5319C63.8873 21.5319 67.9052 22.1689 71.7952 23.4304L72.6779 23.7146L74.5468 22.2063C75.1678 21.7067 74.4494 20.7044 73.8224 21.1946C73.8163 21.1977 73.8102 21.204 73.8072 21.2071L72.4313 22.3188L72.1665 22.2345C68.1578 20.9354 64.0151 20.2797 59.8542 20.2797C55.3645 20.2797 50.9175 21.0447 46.6378 22.5498L46.3761 22.6435L43.5301 20.4577C43.2835 20.2672 42.9791 20.1579 42.6717 20.186C42.066 20.2391 41.6155 20.7106 41.5485 21.2914L41.1224 24.9605L40.8758 25.0917C33.0988 29.251 26.9472 35.7336 23.0876 43.8337L22.9659 44.0897L19.3802 44.6206C19.1154 44.6612 18.8628 44.7736 18.674 44.9672C18.2144 45.4449 18.1992 46.1569 18.5705 46.6409L20.8291 49.5855L20.826 49.5762Z" fill="url(#paint3_linear_6900_4145)" />
  <path d="M15.084 43.6112C16.9864 38.843 19.6224 34.3807 22.9432 30.365L23.2993 29.9341L21.4943 23.0269L28.2212 24.8755L28.6413 24.5101C32.2513 21.3625 36.2296 18.8082 40.4696 16.894L39.6539 23.9168C31.9743 28.1574 25.8592 34.5993 21.9174 42.6026L15.084 43.6143V43.6112Z" fill="url(#paint4_linear_6900_4145)" />
  <path d="M22.9583 30.0284C23.0009 30.1877 23.141 30.2939 23.2962 30.2939C23.3266 30.2939 23.3571 30.2907 23.3875 30.2814C23.5732 30.2314 23.6858 30.0347 23.6341 29.8411L21.829 22.9338C21.7803 22.7433 21.5885 22.6278 21.3998 22.6809C21.2141 22.7309 21.1015 22.9276 21.1532 23.1212L22.9583 30.0284Z" fill="#FFE46B" />
  <path d="M39.9638 23.749C39.8725 23.5742 39.6594 23.5086 39.4889 23.6023C31.8093 27.8397 25.6577 34.2941 21.6886 42.2756L15.0347 43.2592C14.843 43.2873 14.7121 43.4684 14.7395 43.6651C14.7638 43.8431 14.913 43.9712 15.0865 43.9712C15.1017 43.9712 15.1199 43.9712 15.1382 43.968L22.1512 42.9313L22.2334 42.7658C26.1356 34.8406 32.2172 28.433 39.8238 24.2362C39.9942 24.1425 40.0581 23.9239 39.9668 23.749H39.9638Z" fill="#FFE46B" />
  <path d="M16.6998 42.6005L21.2078 41.9354C25.1952 33.9508 31.3255 27.4932 38.9868 23.2027L39.5226 18.5781C35.7725 20.4205 32.2782 22.7625 29.1126 25.5603L28.6926 25.9319L22.7205 24.2894L24.3216 30.4222L23.9624 30.8532C20.9886 34.4067 18.5505 38.3537 16.6968 42.6005H16.6998Z" fill="#174A89" />
  <g style="mix-blend-mode:screen">
    <path d="M17.9537 40.6808C19.6431 37.2053 21.7496 33.9515 24.2335 30.985L24.9549 30.1232L23.6795 25.2426L28.4312 26.5478L29.2713 25.8046C31.8709 23.5095 34.7049 21.5204 37.7215 19.8748L37.4779 21.9607C30.0201 26.2543 23.99 32.6057 19.9932 40.381L17.9507 40.6839L17.9537 40.6808Z" fill="#174A89" />
  </g>
  <g style="mix-blend-mode:screen">
    <path d="M21.8448 37.1336C22.8828 35.463 24.0182 33.8705 25.2479 32.3622L24.557 30.6011L24.2373 30.982C23.108 32.331 22.0609 33.7456 21.0898 35.2069L21.8448 37.1305V37.1336Z" fill="#3C7DCF" />
  </g>
  <g style="mix-blend-mode:screen">
    <path d="M33.5281 22.4741C32.5327 23.1673 31.5647 23.898 30.6211 24.6693L31.2634 26.2993C32.1979 25.5218 33.1659 24.7849 34.1643 24.0854L33.5312 22.4741H33.5281Z" fill="#3C7DCF" />
  </g>
  <path d="M15.2719 81.5958C13.3267 76.8463 12.1122 71.7877 11.6891 66.5542L11.6434 65.9921L5.60107 62.4136L11.6404 58.835L11.686 58.273C12.0696 53.4422 13.1258 48.7614 14.8122 44.3367L19.086 49.9106C16.5777 58.4791 16.6873 67.4566 19.3965 75.9408L15.2688 81.599L15.2719 81.5958Z" fill="url(#paint5_linear_6900_4145)" />
  <path d="M18.1036 49.8873L15.2849 46.2119C13.8999 50.2307 13.0384 54.4119 12.7249 58.6712L12.6823 59.2364L7.32178 62.4121L12.6883 65.5909L12.731 66.1561C13.078 70.8151 14.0764 75.3679 15.6989 79.7115L18.4171 75.983C15.7536 67.477 15.6441 58.4776 18.1036 49.8904V49.8873Z" fill="#174A89" />
  <g style="mix-blend-mode:screen">
    <path d="M15.5034 76.8959C14.301 73.2143 13.5431 69.3922 13.2539 65.5045L13.1687 64.3741L8.89795 61.8448L13.1656 59.3186L13.2478 58.1851C13.5035 54.6877 14.1428 51.231 15.1442 47.8835L16.4258 49.5541C14.1154 57.9977 14.2219 66.8472 16.7332 75.2128L15.5034 76.899V76.8959Z" fill="#174A89" />
  </g>
  <path d="M11.6162 66.3711C11.7563 66.4554 11.9298 66.4273 12.0394 66.3149C12.0607 66.2931 12.0789 66.2681 12.0941 66.24C12.1916 66.0682 12.1337 65.8496 11.9663 65.7497L5.93005 62.1743C5.76263 62.0744 5.54955 62.1337 5.45214 62.3055C5.35473 62.4772 5.41257 62.6958 5.57999 62.7957L11.6162 66.3711Z" fill="#FFE46B" />
  <path d="M19.3051 49.5971C19.1195 49.5408 18.9246 49.647 18.8698 49.8375C16.3616 58.406 16.459 67.4304 19.1529 75.952L15.1257 81.4759C15.0101 81.6352 15.0405 81.86 15.1957 81.9787C15.3358 82.088 15.5306 82.0692 15.6523 81.9443C15.6645 81.9318 15.6736 81.9194 15.6858 81.9038L19.9292 76.0832L19.8713 75.9052C17.1682 67.471 17.0526 58.5278 19.5365 50.0436C19.5913 49.8531 19.4878 49.6533 19.3021 49.5971H19.3051Z" fill="url(#paint6_linear_6900_4145)" />
  <g style="mix-blend-mode:screen">
    <path d="M14.9616 57.6097L13.3361 57.1538C13.3026 57.4973 13.2722 57.8377 13.2478 58.1811L13.1656 59.3147L8.89795 61.8409L13.1687 64.3702L13.2539 65.5006C13.327 66.4592 13.4274 67.4148 13.5553 68.3672L15.3025 68.8574C14.7333 65.1321 14.6207 61.3568 14.9646 57.6066L14.9616 57.6097Z" fill="#3C7DCF" />
  </g>
  <path d="M41.1274 16.6033C45.7784 14.5892 50.7369 13.3401 55.8718 12.9061L56.4197 12.8592L59.8745 6.71704L63.3292 12.853L63.8771 12.8998C68.6164 13.2933 73.2065 14.3831 77.544 16.1286L72.1016 20.5253C68.105 19.2887 63.9867 18.6642 59.8471 18.6642C55.3665 18.6642 50.9286 19.3949 46.649 20.8407L41.1305 16.6064L41.1274 16.6033Z" fill="url(#paint7_linear_6900_4145)" />
  <path d="M77.8899 16.0749C77.8717 15.9469 77.7895 15.8407 77.6708 15.7938C73.2846 14.0296 68.6549 12.9366 63.9065 12.5432L63.5412 12.512L60.1809 6.53837C60.0834 6.36662 59.8704 6.3073 59.703 6.40722C59.5356 6.50715 59.4777 6.72573 59.5751 6.89748L63.0299 13.0334C63.0877 13.1365 63.1912 13.2021 63.3038 13.2114L63.8517 13.2583C68.3262 13.6299 72.6941 14.6322 76.8459 16.2372L72.0275 20.128C68.0553 18.9165 63.9552 18.3044 59.846 18.3044C55.332 18.3044 50.8545 19.0414 46.5383 20.4965C46.3557 20.559 46.2553 20.7619 46.3161 20.9493C46.3648 21.0992 46.5018 21.196 46.6479 21.196C46.6844 21.196 46.721 21.1897 46.7575 21.1772C51.0037 19.7471 55.4081 19.0195 59.8491 19.0195C63.9491 19.0195 68.04 19.6409 72.0031 20.865C72.1127 20.8993 72.2314 20.8743 72.3197 20.8025L77.7651 16.4059C77.8625 16.3278 77.9143 16.1998 77.896 16.0718L77.8899 16.0749Z" fill="url(#paint8_linear_6900_4145)" />
  <path d="M59.841 17.7057C63.9837 17.7057 68.1081 18.3209 72.1138 19.5324L75.7116 16.6284C71.7729 15.192 67.6667 14.3052 63.4875 13.9835L62.9335 13.9398L59.8714 8.49707L56.8063 13.9429L56.2554 13.9867C51.6835 14.3426 47.2212 15.3731 42.9629 17.0531L46.6003 19.8447C50.9012 18.4239 55.3544 17.7026 59.844 17.7026L59.841 17.7057Z" fill="#174A89" />
  <g style="mix-blend-mode:screen">
    <path d="M44.6211 16.8202C48.2341 15.5712 51.9872 14.7905 55.8072 14.4939L56.9121 14.4095L59.3442 10.0847L61.7762 14.4033L62.8811 14.4876C66.3207 14.7499 69.7176 15.4088 73.0049 16.4517L71.3643 17.7789C67.4256 16.6391 63.3773 16.0614 59.3168 16.0614C54.9002 16.0614 50.514 16.7422 46.2709 18.0849L44.6241 16.8202H44.6211Z" fill="#174A89" />
  </g>
  <g style="mix-blend-mode:screen">
    <path d="M70.1866 15.6629C67.794 15.0759 65.3557 14.6793 62.8931 14.4919L62.6831 14.4763L63.1154 16.2375C65.6541 16.4623 68.1775 16.912 70.6553 17.5864L70.1835 15.6629H70.1866Z" fill="#3C7DCF" />
  </g>
  <g style="mix-blend-mode:screen">
    <path d="M52.1392 14.9388L52.5471 16.6031C53.7099 16.4189 54.8788 16.2784 56.0507 16.1878L55.6398 14.511C54.4648 14.6078 53.2989 14.7514 52.1392 14.9388Z" fill="#3C7DCF" />
  </g>
  <path d="M97.4163 41.6607C93.2889 33.7636 87.0034 27.4777 79.1929 23.4277L78.2036 16.3955C82.8729 18.3534 87.2408 21.0763 91.1734 24.505L91.5935 24.8703L98.2778 23.0311L96.488 29.8884L96.8441 30.3193C99.9214 34.0352 102.417 38.1321 104.283 42.5007L97.4163 41.6607Z" fill="#BD6018" />
  <path d="M104.294 42.8615C104.294 42.8615 104.267 42.8615 104.252 42.8615L97.3845 42.0216C97.1927 41.9966 97.0557 41.8186 97.077 41.6219C97.1014 41.4251 97.2749 41.2846 97.4667 41.3065L103.722 42.0715C101.89 37.9341 99.4909 34.062 96.5839 30.5522L96.2278 30.1212C96.1547 30.0307 96.1273 29.9089 96.1578 29.7965L97.9476 22.9392C97.9963 22.7487 98.1911 22.6332 98.3768 22.6863C98.5625 22.7362 98.6751 22.9329 98.6234 23.1265L96.8792 29.8027L97.1166 30.09C100.2 33.8122 102.724 37.9434 104.611 42.3619C104.663 42.4806 104.647 42.6149 104.571 42.721C104.504 42.8116 104.401 42.8647 104.291 42.8647L104.294 42.8615Z" fill="url(#paint9_linear_6900_4145)" />
  <path d="M91.1724 24.8609C91.0933 24.8609 91.0111 24.8328 90.9472 24.7766C87.6292 21.8819 83.9673 19.4743 80.0649 17.6195C79.8883 17.5352 79.8122 17.3228 79.8944 17.1449C79.9766 16.9637 80.1836 16.8857 80.3571 16.97C84.3174 18.8529 88.031 21.298 91.4007 24.2332C91.5469 24.3612 91.5651 24.5892 91.4403 24.7391C91.3703 24.8234 91.2729 24.864 91.1724 24.864V24.8609Z" fill="url(#paint10_linear_6900_4145)" />
  <path d="M98.1081 40.9737L102.637 41.5264C100.838 37.6606 98.5495 34.0602 95.8161 30.8033L95.4539 30.3724L97.0428 24.2895L91.1134 25.9195L90.6933 25.5479C87.2142 22.4752 83.3485 19.9584 79.1846 18.0474L79.8359 22.6938C87.6282 26.7938 93.9289 33.0953 98.1051 40.9737H98.1081Z" fill="#174A89" />
  <g style="mix-blend-mode:screen">
    <path d="M98.249 39.4044C94.0635 31.7384 87.8689 25.54 80.2802 21.4306L79.9819 19.3135C83.3912 21.0559 86.5844 23.2355 89.4914 25.7992L90.3315 26.5423L95.0406 25.2465L93.7773 30.0772L94.5018 30.939C96.7513 33.6182 98.6964 36.5441 100.304 39.6574L98.2459 39.4044H98.249Z" fill="#174A89" />
  </g>
  <g style="mix-blend-mode:screen">
    <path d="M89.482 25.7998C87.8626 24.3696 86.1518 23.0644 84.365 21.884L83.5127 23.3767C86.5202 25.3533 89.2689 27.6765 91.7102 30.312L94.5198 25.3845L90.3191 26.5399L89.4789 25.7967L89.482 25.7998Z" fill="#3C7DCF" />
  </g>
  <path d="M56.3926 111.909L55.8447 111.862C51.142 111.462 46.5854 110.376 42.2783 108.646L47.7207 104.252C51.7051 105.479 55.8112 106.101 59.9357 106.101C64.3888 106.101 68.8024 105.376 73.0607 103.952L78.6005 108.205C73.9647 110.201 69.0246 111.44 63.914 111.868L63.3661 111.915L59.8809 118.11L56.3926 111.912V111.909Z" fill="#BD6018" />
  <path d="M55.8744 111.503C51.2292 111.109 46.6998 110.035 42.4077 108.308C42.2281 108.236 42.0242 108.327 41.9542 108.511C41.8842 108.695 41.9724 108.904 42.152 108.976C46.508 110.725 51.1044 111.815 55.8165 112.218C55.8257 112.218 55.8348 112.218 55.847 112.218C56.0266 112.218 56.1788 112.077 56.194 111.89C56.2092 111.693 56.0662 111.518 55.8744 111.503Z" fill="url(#paint11_linear_6900_4145)" />
  <path d="M78.8155 107.913L73.2754 103.66C73.1201 103.541 72.901 103.575 72.7853 103.731C72.6696 103.891 72.7001 104.115 72.8553 104.234L77.9023 108.106C73.4459 109.955 68.7338 111.098 63.8908 111.504L63.3428 111.55C63.2272 111.56 63.1267 111.625 63.0689 111.728L59.5835 117.924C59.4861 118.095 59.5439 118.314 59.7113 118.414C59.7661 118.445 59.827 118.461 59.8849 118.461C60.0066 118.461 60.1223 118.395 60.1893 118.283L63.5833 112.25L63.9486 112.219C69.0716 111.791 74.0486 110.548 78.7424 108.528C78.8581 108.478 78.9403 108.368 78.9555 108.24C78.9707 108.112 78.919 107.988 78.8185 107.909L78.8155 107.913Z" fill="url(#paint12_linear_6900_4145)" />
  <path d="M59.9349 107.054C55.8075 107.054 51.6952 106.442 47.7017 105.24L44.1069 108.141C48.0152 109.565 52.0879 110.449 56.2336 110.773L56.7845 110.817L59.8832 116.322L62.9788 110.823L63.5297 110.78C68.0772 110.427 72.5212 109.409 76.7643 107.745L73.1056 104.937C68.829 106.342 64.4002 107.054 59.938 107.054H59.9349Z" fill="#174A89" />
  <g style="mix-blend-mode:screen">
    <path d="M56.8914 109.221L55.7895 109.134C52.3865 108.865 49.023 108.21 45.7661 107.182L47.4067 105.858C51.3303 106.989 55.3694 107.563 59.4147 107.563C63.8039 107.563 68.1657 106.892 72.3845 105.562L74.0495 106.839C70.4547 108.072 66.723 108.843 62.9273 109.137L61.8224 109.221L59.3599 113.599L56.8944 109.218L56.8914 109.221Z" fill="#174A89" />
  </g>
  <g style="mix-blend-mode:screen">
    <path d="M67.461 106.798C64.8066 107.304 62.1127 107.56 59.4096 107.56C58.603 107.56 57.7963 107.532 56.9927 107.485L57.1327 109.652L59.3548 113.599L61.8174 109.221L62.9224 109.137C64.484 109.015 66.0364 108.809 67.5706 108.528L67.4579 106.798H67.461Z" fill="#3C7DCF" />
  </g>
  <path d="M41.5512 108.345C36.9185 106.393 32.5871 103.692 28.6849 100.298L28.2648 99.9324L21.4892 101.793L23.3034 94.8425L22.9472 94.4116C19.8973 90.7237 17.4227 86.6612 15.5659 82.3333L22.4115 83.1701C26.5359 91.0204 32.791 97.275 40.562 101.313L41.5512 108.345Z" fill="#BD6018" />
  <path d="M41.9059 108.295L40.9166 101.263C40.8892 101.066 40.7096 100.932 40.5209 100.96C40.3291 100.988 40.1982 101.169 40.2256 101.366L41.1266 107.77C36.722 105.847 32.6186 103.242 28.9202 100.023L28.5001 99.6576C28.4118 99.5827 28.2931 99.5546 28.1835 99.5858L21.4076 101.447C21.2219 101.497 21.1093 101.694 21.161 101.887C21.2128 102.081 21.4015 102.193 21.5902 102.14L28.1896 100.326L28.4697 100.569C32.3843 103.973 36.7433 106.702 41.431 108.676C41.4736 108.695 41.5193 108.704 41.565 108.704C41.6411 108.704 41.7172 108.679 41.7811 108.629C41.8815 108.551 41.9302 108.423 41.912 108.295H41.9059Z" fill="url(#paint13_linear_6900_4145)" />
  <path d="M21.7227 83.8572L17.2178 83.3076C19.0045 87.1328 21.2722 90.6989 23.9781 93.9277L24.3404 94.3586L22.7271 100.532L28.7448 98.877L29.1649 99.2486C32.6166 102.29 36.4457 104.788 40.5701 106.687L39.9188 102.047C32.1691 97.959 25.8927 91.6888 21.7227 83.8572Z" fill="#174A89" />
  <g style="mix-blend-mode:screen">
    <path d="M38.7174 104.289C35.3477 102.559 32.191 100.405 29.3114 97.8659L28.4713 97.1258L23.6709 98.4435L24.9555 93.5192L24.234 92.6573C22.015 90.0062 20.0911 87.1178 18.4961 84.042L20.5264 84.2918C24.7028 91.911 30.873 98.0782 38.4191 102.175L38.7143 104.286L38.7174 104.289Z" fill="#174A89" />
  </g>
  <g style="mix-blend-mode:screen">
    <path d="M38.4246 102.176C36.8539 101.324 35.344 100.374 33.8981 99.3469L33.2041 100.933C34.9666 102.182 36.8082 103.303 38.7229 104.287L38.4276 102.176H38.4246Z" fill="#3C7DCF" />
  </g>
  <g style="mix-blend-mode:screen">
    <path d="M21.6769 86.2449L20.4897 87.5033C21.6252 89.3019 22.8762 91.0256 24.243 92.6556L24.6265 93.1147L25.7741 91.8968C24.2734 90.1326 22.9036 88.2434 21.6769 86.2449Z" fill="#3C7DCF" />
  </g>
  <path d="M80.1103 100.854C87.7777 96.629 93.8867 90.2026 97.8316 82.2243L104.708 81.2063C102.799 85.9808 100.151 90.4462 96.818 94.465L96.4618 94.8959L98.2638 101.797L91.5308 99.9452L91.1108 100.311C87.5038 103.449 83.5285 105.991 79.2915 107.899L80.1103 100.857V100.854Z" fill="#BD6018" />
  <path d="M104.271 83.13C104.351 82.9489 104.275 82.7365 104.098 82.6553C103.924 82.5741 103.714 82.6553 103.635 82.8333C101.809 86.9271 99.4257 90.7617 96.5462 94.234L96.1901 94.665C96.117 94.7555 96.0896 94.8773 96.1201 94.9897L97.7668 101.291L91.6182 99.6018C91.5086 99.5706 91.3899 99.5987 91.3016 99.6736L90.8816 100.039C87.6673 102.834 84.1304 105.176 80.3651 107.002C80.1916 107.087 80.1155 107.302 80.1977 107.48C80.2586 107.608 80.3834 107.686 80.5143 107.686C80.563 107.686 80.6147 107.674 80.6634 107.652C84.4804 105.8 88.0721 103.424 91.3321 100.589L91.6121 100.345L98.1686 102.147C98.2873 102.181 98.4182 102.147 98.5064 102.053C98.5947 101.963 98.6282 101.831 98.5977 101.706L96.8414 94.9866L97.0789 94.6993C99.9979 91.177 102.418 87.2862 104.268 83.1331L104.271 83.13Z" fill="url(#paint14_linear_6900_4145)" />
  <path d="M103.088 82.2172L98.54 82.8886C94.5465 90.8513 88.4223 97.2901 80.7731 101.565L80.2344 106.211C83.9813 104.375 87.4696 102.043 90.6321 99.2574L91.0522 98.8889L97.0303 100.531L95.4292 94.4048L95.7915 93.9739C98.7775 90.4172 101.225 86.4671 103.088 82.2141V82.2172Z" fill="#174A89" />
  <g style="mix-blend-mode:screen">
    <path d="M81.2344 101.674C88.6769 97.3932 94.701 91.0605 98.7039 83.3101L100.786 83.001C99.0874 86.4827 96.9718 89.7396 94.4818 92.7061L93.7574 93.568L95.0298 98.4424L90.272 97.134L89.4318 97.874C86.8353 100.16 84.0014 102.143 80.9878 103.782L81.2313 101.674H81.2344Z" fill="#174A89" />
  </g>
  <g style="mix-blend-mode:screen">
    <path d="M84.6284 99.4992C83.5295 100.271 82.4002 101.001 81.2313 101.673L80.9878 103.78C82.4885 102.965 83.9435 102.063 85.3498 101.079L84.6315 99.4961L84.6284 99.4992Z" fill="#3C7DCF" />
  </g>
  <g style="mix-blend-mode:screen">
    <path d="M95.3752 91.6112L94.1058 90.4871C92.9765 91.9328 91.762 93.3068 90.4683 94.5964L94.7207 98.3561L95.0312 98.4404L93.7588 93.566L94.4833 92.7041C94.7877 92.3419 95.083 91.9765 95.3752 91.6081V91.6112Z" fill="#3C7DCF" />
  </g>
  <path d="M100.687 74.9228C103.214 66.3387 103.116 57.3486 100.401 48.8457L104.547 43.1594C106.507 47.937 107.725 53.0332 108.142 58.3073L108.187 58.8694L114.169 62.4135L108.181 65.9577L108.136 66.5198C107.746 71.3723 106.681 76.075 104.979 80.5185L100.687 74.9228Z" fill="#BD6018" />
  <path d="M114.345 62.1013L108.522 58.6539L108.491 58.2792C108.153 54.0106 107.289 49.82 105.922 45.8231C105.858 45.6357 105.657 45.5389 105.478 45.6045C105.295 45.6701 105.201 45.8761 105.265 46.0604C106.61 50.0011 107.462 54.1324 107.794 58.3385L107.84 58.9006C107.849 59.0193 107.913 59.1223 108.013 59.1817L113.471 62.4136L108.01 65.6486C107.91 65.7079 107.846 65.8141 107.837 65.9296L107.791 66.4917C107.408 71.2849 106.354 75.9595 104.659 80.3874C104.589 80.5716 104.677 80.7808 104.857 80.8527C104.899 80.8683 104.942 80.8777 104.984 80.8777C105.125 80.8777 105.255 80.7902 105.31 80.6497C107.03 76.1563 108.102 71.413 108.491 66.5479L108.522 66.1732L114.351 62.7227C114.46 62.6571 114.524 62.5416 114.524 62.4136C114.524 62.2855 114.457 62.1669 114.351 62.1044L114.345 62.1013Z" fill="url(#paint15_linear_6900_4145)" />
  <path d="M107.125 59.2699L107.082 58.7016C106.742 54.0051 105.74 49.4211 104.102 45.0432L101.363 48.7997C104.029 57.3245 104.127 66.3395 101.649 74.9424L104.489 78.6427C105.889 74.6082 106.76 70.4021 107.076 66.1209L107.119 65.5557L112.428 62.4113L107.122 59.2699H107.125Z" fill="#174A89" />
  <g style="mix-blend-mode:screen">
    <path d="M102.28 74.1429C104.608 65.6837 104.511 56.8186 101.997 48.4343L103.245 46.72C104.459 50.4328 105.22 54.2892 105.506 58.2144L105.589 59.3479L109.798 61.8429L105.582 64.3378L105.5 65.4714C105.238 68.9937 104.593 72.4723 103.579 75.8385L102.277 74.1397L102.28 74.1429Z" fill="#174A89" />
  </g>
  <g style="mix-blend-mode:screen">
    <path d="M104.126 49.7258L102.598 50.6345C102.875 51.7587 103.109 52.8859 103.304 54.0226L104.862 53.0983C104.658 51.9648 104.415 50.8406 104.129 49.729L104.126 49.7258Z" fill="#3C7DCF" />
  </g>
  <g style="mix-blend-mode:screen">
    <path d="M105.142 68.8235C105.303 67.7118 105.428 66.597 105.513 65.476L105.595 64.3425L109.811 61.8475L108.441 61.0356L103.918 63.7211C103.83 65.807 103.601 67.8898 103.23 69.957L105.142 68.8235Z" fill="#3C7DCF" />
  </g>
  <defs>
    <linearGradient id="paint0_linear_6900_4145" x1="88.1938" y1="84.7486" x2="49.2191" y2="23.357" gradientUnits="userSpaceOnUse">
      <stop stop-color="#BB7239" />
      <stop offset="0.23" stop-color="#FCEEAE" />
      <stop offset="0.52" stop-color="#E09E5B" />
      <stop offset="0.75" stop-color="#FCE9A4" />
      <stop offset="0.83" stop-color="#F1D693" />
      <stop offset="0.92" stop-color="#E1BD7C" />
      <stop offset="1" stop-color="#D08A4A" />
    </linearGradient>
    <linearGradient id="paint1_linear_6900_4145" x1="83.1563" y1="58.6463" x2="19.1398" y2="30.5922" gradientUnits="userSpaceOnUse">
      <stop stop-color="#BB7239" />
      <stop offset="0.23" stop-color="#FCEEAE" />
      <stop offset="0.52" stop-color="#E09E5B" />
      <stop offset="0.75" stop-color="#FCE9A4" />
      <stop offset="0.83" stop-color="#F1D693" />
      <stop offset="0.92" stop-color="#E1BD7C" />
      <stop offset="1" stop-color="#D08A4A" />
    </linearGradient>
    <linearGradient id="paint2_linear_6900_4145" x1="18.5129" y1="57.3838" x2="106.543" y2="45.0868" gradientUnits="userSpaceOnUse">
      <stop stop-color="#BB7239" />
      <stop offset="0.23" stop-color="#FCEEAE" />
      <stop offset="0.52" stop-color="#E09E5B" />
      <stop offset="0.75" stop-color="#FCE9A4" />
      <stop offset="0.83" stop-color="#F1D693" />
      <stop offset="0.92" stop-color="#E1BD7C" />
      <stop offset="1" stop-color="#D08A4A" />
    </linearGradient>
    <linearGradient id="paint3_linear_6900_4145" x1="-7.90088" y1="31.6762" x2="79.8477" y2="19.4151" gradientUnits="userSpaceOnUse">
      <stop stop-color="#BB7239" />
      <stop offset="0.23" stop-color="#FCEEAE" />
      <stop offset="0.52" stop-color="#E09E5B" />
      <stop offset="0.75" stop-color="#FCE9A4" />
      <stop offset="0.83" stop-color="#F1D693" />
      <stop offset="0.92" stop-color="#E1BD7C" />
      <stop offset="1" stop-color="#D08A4A" />
    </linearGradient>
    <linearGradient id="paint4_linear_6900_4145" x1="25.0227" y1="26.9814" x2="3.12151" y2="11.9683" gradientUnits="userSpaceOnUse">
      <stop stop-color="#BB7239" />
      <stop offset="0.23" stop-color="#FCEEAE" />
      <stop offset="0.52" stop-color="#E09E5B" />
      <stop offset="0.75" stop-color="#FCE9A4" />
      <stop offset="0.83" stop-color="#F1D693" />
      <stop offset="0.92" stop-color="#E1BD7C" />
      <stop offset="1" stop-color="#D08A4A" />
    </linearGradient>
    <linearGradient id="paint5_linear_6900_4145" x1="11.0021" y1="58.4039" x2="-5.32722" y2="54.0418" gradientUnits="userSpaceOnUse">
      <stop stop-color="#BB7239" />
      <stop offset="0.23" stop-color="#FCEEAE" />
      <stop offset="0.52" stop-color="#E09E5B" />
      <stop offset="0.75" stop-color="#FCE9A4" />
      <stop offset="0.83" stop-color="#F1D693" />
      <stop offset="0.92" stop-color="#E1BD7C" />
      <stop offset="1" stop-color="#D08A4A" />
    </linearGradient>
    <linearGradient id="paint6_linear_6900_4145" x1="12.7939" y1="55.9512" x2="20.5102" y2="55.7833" gradientUnits="userSpaceOnUse">
      <stop stop-color="#BB7239" />
      <stop offset="0.23" stop-color="#FCEEAE" />
      <stop offset="0.52" stop-color="#E09E5B" />
      <stop offset="0.75" stop-color="#FCE9A4" />
      <stop offset="0.83" stop-color="#F1D693" />
      <stop offset="0.92" stop-color="#E1BD7C" />
      <stop offset="1" stop-color="#D08A4A" />
    </linearGradient>
    <linearGradient id="paint7_linear_6900_4145" x1="55.3849" y1="12.049" x2="45.033" y2="-7.20991" gradientUnits="userSpaceOnUse">
      <stop stop-color="#BB7239" />
      <stop offset="0.23" stop-color="#FCEEAE" />
      <stop offset="0.52" stop-color="#E09E5B" />
      <stop offset="0.75" stop-color="#FCE9A4" />
      <stop offset="0.83" stop-color="#F1D693" />
      <stop offset="0.92" stop-color="#E1BD7C" />
      <stop offset="1" stop-color="#D08A4A" />
    </linearGradient>
    <linearGradient id="paint8_linear_6900_4145" x1="58.6706" y1="11.96" x2="46.7493" y2="-6.36016" gradientUnits="userSpaceOnUse">
      <stop stop-color="#BB7239" />
      <stop offset="0.23" stop-color="#FCEEAE" />
      <stop offset="0.52" stop-color="#E09E5B" />
      <stop offset="0.75" stop-color="#FCE9A4" />
      <stop offset="0.83" stop-color="#F1D693" />
      <stop offset="0.92" stop-color="#E1BD7C" />
      <stop offset="1" stop-color="#D08A4A" />
    </linearGradient>
    <linearGradient id="paint9_linear_6900_4145" x1="92.2027" y1="26.6342" x2="105.611" y2="25.8163" gradientUnits="userSpaceOnUse">
      <stop stop-color="#BB7239" />
      <stop offset="0.23" stop-color="#FCEEAE" />
      <stop offset="0.52" stop-color="#E09E5B" />
      <stop offset="0.75" stop-color="#FCE9A4" />
      <stop offset="0.83" stop-color="#F1D693" />
      <stop offset="0.92" stop-color="#E1BD7C" />
      <stop offset="1" stop-color="#D08A4A" />
    </linearGradient>
    <linearGradient id="paint10_linear_6900_4145" x1="74.4491" y1="18.4912" x2="92.1188" y2="14.723" gradientUnits="userSpaceOnUse">
      <stop stop-color="#BB7239" />
      <stop offset="0.23" stop-color="#FCEEAE" />
      <stop offset="0.52" stop-color="#E09E5B" />
      <stop offset="0.75" stop-color="#FCE9A4" />
      <stop offset="0.83" stop-color="#F1D693" />
      <stop offset="0.92" stop-color="#E1BD7C" />
      <stop offset="1" stop-color="#D08A4A" />
    </linearGradient>
    <linearGradient id="paint11_linear_6900_4145" x1="35.31" y1="109.055" x2="53.0142" y2="99.7484" gradientUnits="userSpaceOnUse">
      <stop stop-color="#BB7239" />
      <stop offset="0.23" stop-color="#FCEEAE" />
      <stop offset="0.52" stop-color="#E09E5B" />
      <stop offset="0.75" stop-color="#FCE9A4" />
      <stop offset="0.83" stop-color="#F1D693" />
      <stop offset="0.92" stop-color="#E1BD7C" />
      <stop offset="1" stop-color="#D08A4A" />
    </linearGradient>
    <linearGradient id="paint12_linear_6900_4145" x1="50.5226" y1="106.506" x2="80.2237" y2="100.883" gradientUnits="userSpaceOnUse">
      <stop stop-color="#BB7239" />
      <stop offset="0.23" stop-color="#FCEEAE" />
      <stop offset="0.52" stop-color="#E09E5B" />
      <stop offset="0.75" stop-color="#FCE9A4" />
      <stop offset="0.83" stop-color="#F1D693" />
      <stop offset="0.92" stop-color="#E1BD7C" />
      <stop offset="1" stop-color="#D08A4A" />
    </linearGradient>
    <linearGradient id="paint13_linear_6900_4145" x1="11.5105" y1="101.364" x2="41.1812" y2="91.5806" gradientUnits="userSpaceOnUse">
      <stop stop-color="#BB7239" />
      <stop offset="0.23" stop-color="#FCEEAE" />
      <stop offset="0.52" stop-color="#E09E5B" />
      <stop offset="0.75" stop-color="#FCE9A4" />
      <stop offset="0.83" stop-color="#F1D693" />
      <stop offset="0.92" stop-color="#E1BD7C" />
      <stop offset="1" stop-color="#D08A4A" />
    </linearGradient>
    <linearGradient id="paint14_linear_6900_4145" x1="68.9623" y1="87.5402" x2="106.468" y2="82.3033" gradientUnits="userSpaceOnUse">
      <stop stop-color="#BB7239" />
      <stop offset="0.23" stop-color="#FCEEAE" />
      <stop offset="0.52" stop-color="#E09E5B" />
      <stop offset="0.75" stop-color="#FCE9A4" />
      <stop offset="0.83" stop-color="#F1D693" />
      <stop offset="0.92" stop-color="#E1BD7C" />
      <stop offset="1" stop-color="#D08A4A" />
    </linearGradient>
    <linearGradient id="paint15_linear_6900_4145" x1="100.045" y1="52.5074" x2="115.685" y2="51.872" gradientUnits="userSpaceOnUse">
      <stop stop-color="#BB7239" />
      <stop offset="0.23" stop-color="#FCEEAE" />
      <stop offset="0.52" stop-color="#E09E5B" />
      <stop offset="0.75" stop-color="#FCE9A4" />
      <stop offset="0.83" stop-color="#F1D693" />
      <stop offset="0.92" stop-color="#E1BD7C" />
      <stop offset="1" stop-color="#D08A4A" />
    </linearGradient>
  </defs>
</svg>
