<svg viewBox="0 0 121 124" fill="none" xmlns="http://www.w3.org/2000/svg">
  <path d="M55.3297 114.634C45.3397 113.6 36.0042 109.625 28.218 103.089L18.1701 105.853L20.864 95.5451C14.4931 87.5574 10.6183 77.9803 9.61077 67.7318L0.631348 62.414L9.60468 57.0993C10.6 46.8352 14.4749 37.2394 20.8518 29.2392L18.1701 18.972L28.1693 21.7199C35.9737 15.1499 45.3397 11.1592 55.3662 10.1287L60.5165 0.976318L65.6637 10.1225C75.7054 11.1405 85.0866 15.1312 92.9033 21.7074L102.86 18.9689L100.19 29.183C106.601 37.2019 110.491 46.8258 111.483 57.1274L120.399 62.4078L111.477 67.6912C110.472 77.9772 106.582 87.5855 100.181 95.5919L102.86 105.85L92.8515 103.099C85.0531 109.641 75.6993 113.616 65.6941 114.637L60.5134 123.842L55.3297 114.631V114.634ZM24.8393 80.5003L25.2654 81.3371C29.192 89.0469 35.298 95.1516 42.9259 98.9893L43.7539 99.4078L44.3718 103.808L47.7779 101.056L48.6575 101.341C52.5354 102.593 56.5412 103.227 60.5652 103.227C64.8936 103.227 69.1854 102.493 73.3159 101.05L74.1895 100.744L77.6352 103.389L78.1435 99.008L78.9623 98.5709C86.4929 94.5458 92.4558 88.2787 96.2059 80.444L96.6137 79.5947L100.866 78.967L98.2118 75.5072L98.4918 74.6016C101.061 66.2611 100.963 57.4865 98.2148 49.2271L97.9165 48.331L100.461 44.843L96.2485 44.3277L95.8223 43.4878C91.8927 35.7343 85.7593 29.6014 78.0918 25.7481L77.2608 25.3328L76.6551 21.0111L73.3129 23.709L72.4302 23.4249C68.5401 22.1665 64.5222 21.5263 60.486 21.5263C56.1303 21.5263 51.8171 22.2664 47.6652 23.7278L46.7917 24.0338L43.3947 21.4264L42.8925 25.7512L42.0737 26.1884C34.5309 30.2228 28.565 36.5118 24.818 44.3683L24.4131 45.2208L20.1639 45.8485L22.8212 49.3115L22.5442 50.2139C19.9934 58.5419 20.0999 67.3009 22.8486 75.5415L23.1469 76.4377L20.5717 79.9694L24.8453 80.4909L24.8393 80.5003Z" fill="url(#paint0_linear_6900_4753)" />
  <g style="mix-blend-mode:screen" opacity="0.5">
    <path d="M22.0478 95.8672C22.1513 95.4737 22.06 95.0553 21.8074 94.7399C15.6071 86.9646 11.8114 77.5842 10.8313 67.6105C10.7917 67.2046 10.5695 66.8455 10.2255 66.6425L3.08164 62.4114L10.2195 58.1833C10.5634 57.9804 10.7856 57.6181 10.8252 57.2122C11.7962 47.2229 15.5918 37.8269 21.7952 30.0391C22.0448 29.7237 22.1361 29.3053 22.0357 28.9118L19.9019 20.7462L27.8524 22.932C28.2329 23.0382 28.6408 22.9476 28.9452 22.6884C36.5426 16.2933 45.7198 12.3807 55.4784 11.3783C55.8741 11.3377 56.2241 11.1097 56.425 10.7569L60.2937 3.88399C60.449 3.60607 60.3759 3.25322 60.1233 3.06273C59.828 2.84415 59.414 2.93471 59.2345 3.25634L55.3657 10.1292C45.3393 11.1597 35.9734 15.1504 28.169 21.7204L18.17 18.9725L20.8516 29.2397C14.4747 37.2399 10.5999 46.8357 9.6046 57.0998L0.631348 62.4145L9.61069 67.7323C10.6182 77.9808 14.493 87.5579 20.8638 95.5456L18.7361 103.696C18.6296 104.108 18.9462 104.511 19.3632 104.486C19.6249 104.47 19.8502 104.283 19.9171 104.02L22.0448 95.8703L22.0478 95.8672Z" fill="#FFE46B" />
  </g>
  <path d="M120.4 62.4114L111.484 57.131C110.492 46.8295 106.602 37.2055 100.192 29.1866L101.86 22.804C102.091 21.9234 101.342 21.0959 100.469 21.2677C100.015 21.3551 99.6528 21.7017 99.531 22.1576L97.5008 29.7987C104.115 37.8675 108.337 48.1566 109.159 58.6517L114.915 62.4114L109.153 66.1741C108.176 76.1853 103.722 87.1863 97.4886 94.9835L98.8675 101.641L92.2593 100.339C84.668 106.709 73.8958 111.024 64.1555 112.021L60.4481 118.06C60.165 118.522 60.1529 119.109 60.4207 119.584C60.9747 120.567 62.3566 120.567 62.9106 119.584L65.6987 114.637C75.7038 113.616 85.0576 109.641 92.8559 103.099L102.864 105.85L100.185 95.5924C106.59 87.586 110.48 77.9777 111.481 67.6917L120.403 62.4083L120.4 62.4114Z" fill="url(#paint1_linear_6900_4753)" />
  <path d="M99.5806 75.2551L99.6627 74.9834C102.311 66.3868 102.21 57.3406 99.3766 48.8252L99.2884 48.5566L100.521 46.8267C100.716 46.555 100.658 46.171 100.396 45.9711C100.131 45.7681 99.7541 45.8243 99.5562 46.096L97.9217 48.3381L98.22 49.2343C100.969 57.4936 101.066 66.2682 98.497 74.6087L98.2169 75.5143L100.871 78.9741L96.6189 79.6018L96.211 80.4511C92.461 88.2858 86.4981 94.556 78.9677 98.578L78.1489 99.0151L77.6405 103.396L74.1949 100.751L73.3213 101.057C69.1908 102.5 64.9021 103.234 60.5707 103.234C56.5467 103.234 52.541 102.6 48.6632 101.348L47.7835 101.064L45.6711 102.769C45.4062 102.984 45.3606 103.377 45.5676 103.649C45.7776 103.921 46.1611 103.968 46.4259 103.755L48.0331 102.459L48.2979 102.544C52.2945 103.833 56.425 104.486 60.5707 104.486C65.036 104.486 69.4587 103.73 73.714 102.241L73.9758 102.15L76.8735 104.374C77.12 104.564 77.4244 104.673 77.7319 104.645C78.3376 104.592 78.7881 104.121 78.855 103.54L79.2873 99.8177L79.5338 99.6865C87.2956 95.5397 93.4442 89.0758 97.3099 80.9976L97.4316 80.7415L101.023 80.2107C101.288 80.1732 101.541 80.0577 101.73 79.8641C102.189 79.3863 102.204 78.6712 101.833 78.1904L99.5775 75.252L99.5806 75.2551Z" fill="url(#paint2_linear_6900_4753)" />
  <path d="M21.4579 49.5762L21.3757 49.8478C18.7458 58.4319 18.8554 67.4626 21.6892 75.9561L21.7775 76.2247L20.636 77.7891C20.636 77.7891 20.6269 77.8016 20.6239 77.8047C20.1612 78.4605 21.1565 79.1693 21.6283 78.5229L23.1442 76.4432L22.8459 75.547C20.0973 67.3064 19.9938 58.5475 22.5415 50.2194L22.8185 49.317L20.1612 45.854L24.4104 45.2264L24.8152 44.3739C28.5622 36.5174 34.5281 30.2284 42.0708 26.1939L42.8896 25.7568L43.3918 21.4319L46.7887 24.0393L47.6623 23.7333C51.8141 22.2719 56.1272 21.5319 60.483 21.5319C64.5191 21.5319 68.537 22.1689 72.427 23.4304L73.3097 23.7146L75.1787 22.2063C75.7996 21.7067 75.0813 20.7044 74.4542 21.1946C74.4481 21.1977 74.4421 21.204 74.439 21.2071L73.0632 22.3188L72.7984 22.2345C68.7896 20.9354 64.647 20.2797 60.486 20.2797C55.9964 20.2797 51.5493 21.0447 47.2697 22.5498L47.0079 22.6435L44.1619 20.4577C43.9153 20.2672 43.611 20.1579 43.3035 20.186C42.6978 20.2391 42.2473 20.7106 42.1804 21.2914L41.7542 24.9605L41.5077 25.0917C33.7306 29.251 27.579 35.7336 23.7194 43.8337L23.5977 44.0897L20.012 44.6206C19.7472 44.6612 19.4946 44.7736 19.3059 44.9672C18.8463 45.4449 18.831 46.1569 19.2024 46.6409L21.4609 49.5855L21.4579 49.5762Z" fill="url(#paint3_linear_6900_4753)" />
  <path d="M15.7134 43.6112C17.6158 38.843 20.2518 34.3807 23.5726 30.365L23.9287 29.9341L22.1237 23.0269L28.8506 24.8755L29.2707 24.5101C32.8807 21.3625 36.859 18.8082 41.099 16.894L40.2833 23.9168C32.6037 28.1574 26.4886 34.5993 22.5468 42.6026L15.7134 43.6143V43.6112Z" fill="url(#paint4_linear_6900_4753)" />
  <path d="M23.5872 30.0284C23.6298 30.1877 23.7699 30.2939 23.9251 30.2939C23.9555 30.2939 23.986 30.2907 24.0164 30.2814C24.2021 30.2314 24.3147 30.0347 24.263 29.8411L22.4579 22.9338C22.4092 22.7433 22.2174 22.6278 22.0287 22.6809C21.843 22.7309 21.7304 22.9276 21.7821 23.1212L23.5872 30.0284Z" fill="#FFE46B" />
  <path d="M40.5932 23.7476C40.5019 23.5727 40.2888 23.5071 40.1183 23.6008C32.4387 27.8382 26.2871 34.2927 22.3179 42.2741L15.6641 43.2577C15.4723 43.2858 15.3415 43.467 15.3689 43.6637C15.3932 43.8417 15.5424 43.9697 15.7159 43.9697C15.7311 43.9697 15.7493 43.9697 15.7676 43.9666L22.7806 42.9299L22.8628 42.7644C26.765 34.8391 32.8466 28.4315 40.4532 24.2347C40.6236 24.141 40.6875 23.9224 40.5962 23.7476H40.5932Z" fill="#FFE46B" />
  <path d="M17.3297 42.5993L21.8376 41.9342C25.8251 33.9496 31.9554 27.492 39.6167 23.2015L40.1524 18.5769C36.4024 20.4193 32.9081 22.7612 29.7425 25.5591L29.3224 25.9307L23.3504 24.2882L24.9515 30.421L24.5923 30.8519C21.6185 34.4055 19.1804 38.3525 17.3267 42.5993H17.3297Z" fill="#891717" />
  <g style="mix-blend-mode:screen">
    <path d="M18.5826 40.6818C20.2721 37.2063 22.3785 33.9525 24.8624 30.986L25.5838 30.1242L24.3084 25.2435L29.0601 26.5488L29.9002 25.8056C32.4998 23.5105 35.3338 21.5214 38.3504 19.8757L38.1068 21.9616C30.649 26.2553 24.6189 32.6067 20.6221 40.382L18.5796 40.6849L18.5826 40.6818Z" fill="#891717" />
  </g>
  <g style="mix-blend-mode:screen">
    <path d="M22.4746 37.1312C23.5126 35.4606 24.6481 33.868 25.8778 32.3598L25.1868 30.5986L24.8672 30.9796C23.7379 32.3286 22.6908 33.7431 21.7197 35.2045L22.4746 37.1281V37.1312Z" fill="#3C7DCF" />
  </g>
  <g style="mix-blend-mode:screen">
    <path d="M34.157 22.4741C33.1616 23.1673 32.1936 23.898 31.25 24.6693L31.8923 26.2993C32.8268 25.5218 33.7948 24.7849 34.7932 24.0854L34.1601 22.4741H34.157Z" fill="#3C7DCF" />
  </g>
  <path d="M15.9076 81.5954C13.9625 76.8458 12.7479 71.7872 12.3248 66.5537L12.2792 65.9916L6.23682 62.4131L12.2761 58.8346L12.3218 58.2725C12.7053 53.4418 13.7616 48.7609 15.448 44.3362L19.7217 49.9101C17.2135 58.4786 17.3231 67.4561 20.0322 75.9403L15.9046 81.5985L15.9076 81.5954Z" fill="url(#paint5_linear_6900_4753)" />
  <path d="M18.7403 49.8882L15.9216 46.2129C14.5366 50.2317 13.6751 54.4129 13.3616 58.6722L13.319 59.2374L7.9585 62.4131L13.3251 65.5919L13.3677 66.1571C13.7147 70.8161 14.7131 75.3689 16.3356 79.7124L19.0539 75.984C16.3904 67.478 16.2808 58.4786 18.7403 49.8914V49.8882Z" fill="#891717" />
  <g style="mix-blend-mode:screen">
    <path d="M16.1401 76.8956C14.9378 73.214 14.1798 69.3919 13.8906 65.5043L13.8054 64.3739L9.53467 61.8445L13.8024 59.3184L13.8845 58.1848C14.1402 54.6875 14.7795 51.2308 15.781 47.8833L17.0625 49.5539C14.7521 57.9975 14.8586 66.847 17.3699 75.2125L16.1401 76.8987V76.8956Z" fill="#891717" />
  </g>
  <path d="M12.2525 66.3723C12.3925 66.4567 12.566 66.4285 12.6756 66.3161C12.6969 66.2943 12.7152 66.2693 12.7304 66.2412C12.8278 66.0695 12.7699 65.8509 12.6025 65.7509L6.56628 62.1755C6.39886 62.0756 6.18578 62.1349 6.08837 62.3067C5.99096 62.4784 6.0488 62.697 6.21622 62.7969L12.2525 66.3723Z" fill="#FFE46B" />
  <path d="M19.9419 49.5975C19.7562 49.5413 19.5614 49.6475 19.5066 49.838C16.9983 58.4065 17.0957 67.4308 19.7897 75.9525L15.7624 81.4764C15.6468 81.6357 15.6772 81.8605 15.8325 81.9792C15.9725 82.0885 16.1673 82.0697 16.2891 81.9448C16.3012 81.9323 16.3104 81.9199 16.3225 81.9042L20.5659 76.0837L20.508 75.9057C17.805 67.4715 17.6893 58.5283 20.1732 50.0441C20.228 49.8536 20.1245 49.6538 19.9388 49.5975H19.9419Z" fill="url(#paint6_linear_6900_4753)" />
  <g style="mix-blend-mode:screen">
    <path d="M15.5983 57.6092L13.9728 57.1533C13.9393 57.4968 13.9089 57.8372 13.8845 58.1807L13.8024 59.3142L9.53467 61.8404L13.8054 64.3697L13.8906 65.5001C13.9637 66.4587 14.0641 67.4143 14.192 68.3667L15.9392 68.8569C15.37 65.1316 15.2574 61.3564 15.6014 57.6061L15.5983 57.6092Z" fill="#3C7DCF" />
  </g>
  <path d="M41.7642 16.6033C46.4152 14.5892 51.3736 13.3401 56.5085 12.9061L57.0564 12.8592L60.5112 6.71704L63.966 12.853L64.5139 12.8998C69.2531 13.2933 73.8432 14.3831 78.1807 16.1286L72.7383 20.5253C68.7417 19.2887 64.6234 18.6642 60.4838 18.6642C56.0033 18.6642 51.5653 19.3949 47.2857 20.8407L41.7672 16.6064L41.7642 16.6033Z" fill="url(#paint7_linear_6900_4753)" />
  <path d="M78.5262 16.0749C78.5079 15.9469 78.4257 15.8407 78.307 15.7938C73.9208 14.0296 69.2911 12.9366 64.5427 12.5432L64.1775 12.512L60.8171 6.53837C60.7197 6.36662 60.5066 6.3073 60.3392 6.40722C60.1718 6.50715 60.1139 6.72573 60.2113 6.89748L63.6661 13.0334C63.7239 13.1365 63.8274 13.2021 63.9401 13.2114L64.488 13.2583C68.9624 13.6299 73.3303 14.6322 77.4821 16.2372L72.6637 20.128C68.6915 18.9165 64.5914 18.3044 60.4823 18.3044C55.9682 18.3044 51.4907 19.0414 47.1746 20.4965C46.9919 20.559 46.8915 20.7619 46.9524 20.9493C47.0011 21.0992 47.138 21.196 47.2841 21.196C47.3207 21.196 47.3572 21.1897 47.3937 21.1772C51.6399 19.7471 56.0443 19.0195 60.4853 19.0195C64.5854 19.0195 68.6763 19.6409 72.6394 20.865C72.7489 20.8993 72.8677 20.8743 72.9559 20.8025L78.4014 16.4059C78.4988 16.3278 78.5505 16.1998 78.5322 16.0718L78.5262 16.0749Z" fill="url(#paint8_linear_6900_4753)" />
  <path d="M60.4772 17.7057C64.6199 17.7057 68.7443 18.3209 72.75 19.5324L76.3478 16.6284C72.4091 15.192 68.303 14.3052 64.1238 13.9835L63.5698 13.9398L60.5077 8.49707L57.4425 13.9429L56.8916 13.9867C52.3197 14.3426 47.8575 15.3731 43.5991 17.0531L47.2365 19.8447C51.5375 18.4239 55.9906 17.7026 60.4803 17.7026L60.4772 17.7057Z" fill="#891717" />
  <g style="mix-blend-mode:screen">
    <path d="M45.2578 16.8219C48.8709 15.5729 52.6239 14.7922 56.4439 14.4956L57.5488 14.4113L59.9809 10.0864L62.4129 14.405L63.5178 14.4893C66.9574 14.7516 70.3543 15.4105 73.6416 16.4534L72.001 17.7806C68.0623 16.6408 64.014 16.0631 59.9535 16.0631C55.5369 16.0631 51.1507 16.7439 46.9076 18.0866L45.2609 16.8219H45.2578Z" fill="#891717" />
  </g>
  <g style="mix-blend-mode:screen">
    <path d="M70.8233 15.6629C68.4307 15.0759 65.9925 14.6793 63.5299 14.4919L63.3198 14.4763L63.7521 16.2375C66.2908 16.4623 68.8142 16.912 71.2921 17.5864L70.8202 15.6629H70.8233Z" fill="#3C7DCF" />
  </g>
  <g style="mix-blend-mode:screen">
    <path d="M52.7754 14.9388L53.1833 16.6031C54.3461 16.4189 55.515 16.2784 56.6869 16.1878L56.276 14.511C55.101 14.6078 53.9352 14.7514 52.7754 14.9388Z" fill="#3C7DCF" />
  </g>
  <path d="M98.0413 41.6624C93.9139 33.7653 87.6284 27.4794 79.8179 23.4294L78.8286 16.3972C83.4979 18.3551 87.8658 21.078 91.7984 24.5067L92.2185 24.872L98.9028 23.0328L97.113 29.8901L97.4691 30.321C100.546 34.0369 103.042 38.1338 104.908 42.5024L98.0413 41.6624Z" fill="#BD6018" />
  <path d="M104.907 42.8611C104.907 42.8611 104.879 42.8611 104.864 42.8611L97.9968 42.0211C97.805 41.9961 97.668 41.8181 97.6893 41.6214C97.7137 41.4247 97.8872 41.2841 98.079 41.306L104.334 42.071C102.502 37.9336 100.103 34.0615 97.1962 30.5517L96.8401 30.1207C96.767 30.0302 96.7396 29.9084 96.7701 29.796L98.5599 22.9387C98.6086 22.7482 98.8035 22.6327 98.9891 22.6858C99.1748 22.7357 99.2874 22.9325 99.2357 23.1261L97.4915 29.8022L97.7289 30.0895C100.812 33.8117 103.336 37.9429 105.223 42.3614C105.275 42.4801 105.26 42.6144 105.184 42.7205C105.117 42.8111 105.013 42.8642 104.904 42.8642L104.907 42.8611Z" fill="url(#paint9_linear_6900_4753)" />
  <path d="M91.7979 24.8623C91.7188 24.8623 91.6366 24.8342 91.5727 24.778C88.2547 21.8833 84.5928 19.4758 80.6904 17.6209C80.5138 17.5366 80.4377 17.3243 80.5199 17.1463C80.6021 16.9652 80.8091 16.8871 80.9826 16.9715C84.9428 18.8544 88.6565 21.2994 92.0262 24.2347C92.1723 24.3627 92.1906 24.5907 92.0658 24.7405C91.9958 24.8249 91.8984 24.8654 91.7979 24.8654V24.8623Z" fill="url(#paint10_linear_6900_4753)" />
  <path d="M98.7326 40.9737L103.262 41.5264C101.463 37.6606 99.174 34.0602 96.4406 30.8033L96.0784 30.3724L97.6673 24.2895L91.7379 25.9195L91.3179 25.5479C87.8387 22.4752 83.9731 19.9584 79.8091 18.0474L80.4605 22.6938C88.2527 26.7938 94.5534 33.0953 98.7296 40.9737H98.7326Z" fill="#891717" />
  <g style="mix-blend-mode:screen">
    <path d="M98.8745 39.4044C94.689 31.7384 88.4944 25.54 80.9057 21.4306L80.6074 19.3135C84.0167 21.0559 87.2099 23.2355 90.1169 25.7992L90.957 26.5423L95.6661 25.2465L94.4028 30.0772L95.1273 30.939C97.3768 33.6182 99.3219 36.5441 100.929 39.6574L98.8714 39.4044H98.8745Z" fill="#891717" />
  </g>
  <g style="mix-blend-mode:screen">
    <path d="M90.1207 25.8C88.5012 24.3699 86.7905 23.0646 85.0037 21.8843L84.1514 23.3769C87.1588 25.3535 89.9076 27.6767 92.3489 30.3122L95.1585 25.3847L90.9578 26.5401L90.1176 25.7969L90.1207 25.8Z" fill="#3C7DCF" />
  </g>
  <path d="M57.022 111.907L56.4741 111.86C51.7714 111.46 47.2148 110.373 42.9077 108.643L48.3501 104.25C52.3345 105.477 56.4406 106.099 60.5651 106.099C65.0182 106.099 69.4318 105.374 73.6901 103.95L79.2299 108.203C74.5941 110.199 69.654 111.438 64.5434 111.866L63.9955 111.913L60.5103 118.108L57.022 111.91V111.907Z" fill="#BD6018" />
  <path d="M56.5038 111.499C51.8586 111.105 47.3292 110.031 43.0371 108.304C42.8575 108.232 42.6536 108.323 42.5836 108.507C42.5136 108.691 42.6018 108.901 42.7814 108.972C47.1374 110.721 51.7338 111.811 56.4459 112.214C56.4551 112.214 56.4642 112.214 56.4764 112.214C56.656 112.214 56.8082 112.073 56.8234 111.886C56.8386 111.689 56.6956 111.514 56.5038 111.499Z" fill="url(#paint11_linear_6900_4753)" />
  <path d="M79.4454 107.913L73.9053 103.66C73.75 103.541 73.5309 103.575 73.4152 103.731C73.2995 103.891 73.33 104.115 73.4852 104.234L78.5322 108.106C74.0757 109.955 69.3636 111.098 64.5206 111.504L63.9727 111.55C63.857 111.56 63.7566 111.625 63.6988 111.728L60.2134 117.924C60.116 118.095 60.1738 118.314 60.3412 118.414C60.396 118.445 60.4569 118.461 60.5147 118.461C60.6365 118.461 60.7522 118.395 60.8191 118.283L64.2132 112.25L64.5785 112.219C69.7015 111.791 74.6784 110.548 79.3723 108.528C79.488 108.478 79.5702 108.368 79.5854 108.24C79.6006 108.112 79.5488 107.988 79.4484 107.909L79.4454 107.913Z" fill="url(#paint12_linear_6900_4753)" />
  <path d="M60.5643 107.054C56.4369 107.054 52.3246 106.442 48.3311 105.239L44.7363 108.14C48.6446 109.564 52.7173 110.448 56.863 110.773L57.4139 110.816L60.5126 116.322L63.6082 110.823L64.1591 110.779C68.7066 110.426 73.1506 109.408 77.3937 107.744L73.735 104.937C69.4584 106.342 65.0296 107.054 60.5674 107.054H60.5643Z" fill="#891717" />
  <g style="mix-blend-mode:screen">
    <path d="M57.5203 109.221L56.4184 109.134C53.0154 108.865 49.6519 108.21 46.395 107.182L48.0356 105.858C51.9592 106.989 55.9983 107.563 60.0436 107.563C64.4328 107.563 68.7947 106.892 73.0134 105.562L74.6784 106.839C71.0836 108.072 67.3519 108.843 63.5562 109.137L62.4513 109.221L59.9888 113.599L57.5233 109.218L57.5203 109.221Z" fill="#891717" />
  </g>
  <g style="mix-blend-mode:screen">
    <path d="M68.0894 106.797C65.435 107.302 62.7411 107.559 60.038 107.559C59.2314 107.559 58.4247 107.53 57.6211 107.484L57.7611 109.651L59.9832 113.598L62.4458 109.22L63.5508 109.135C65.1124 109.014 66.6648 108.808 68.199 108.527L68.0864 106.797H68.0894Z" fill="#3C7DCF" />
  </g>
  <path d="M42.1821 108.344C37.5493 106.392 33.218 103.691 29.3157 100.297L28.8957 99.9314L22.1201 101.792L23.9342 94.8415L23.5781 94.4106C20.5282 90.7228 18.0535 86.6602 16.1968 82.3323L23.0424 83.1691C27.1668 91.0194 33.4219 97.274 41.1928 101.312L42.1821 108.344Z" fill="#BD6018" />
  <path d="M42.5363 108.295L41.547 101.263C41.5196 101.066 41.34 100.932 41.1512 100.96C40.9595 100.988 40.8286 101.169 40.856 101.366L41.757 107.77C37.3523 105.847 33.249 103.242 29.5506 100.023L29.1305 99.6576C29.0422 99.5827 28.9235 99.5546 28.8139 99.5858L22.038 101.447C21.8523 101.497 21.7397 101.694 21.7914 101.887C21.8432 102.081 22.0319 102.193 22.2206 102.14L28.82 100.326L29.1 100.569C33.0146 103.973 37.3736 106.702 42.0614 108.676C42.104 108.695 42.1497 108.704 42.1953 108.704C42.2714 108.704 42.3475 108.679 42.4114 108.629C42.5119 108.551 42.5606 108.423 42.5423 108.295H42.5363Z" fill="url(#paint13_linear_6900_4753)" />
  <path d="M22.3535 83.8567L17.8486 83.3071C19.6354 87.1323 21.903 90.6984 24.609 93.9272L24.9712 94.3581L23.358 100.532L29.3757 98.8765L29.7957 99.2481C33.2474 102.29 37.0766 104.788 41.201 106.686L40.5496 102.046C32.8 97.9585 26.5236 91.6883 22.3535 83.8567Z" fill="#891717" />
  <g style="mix-blend-mode:screen">
    <path d="M39.3482 104.288C35.9785 102.558 32.8219 100.403 29.9423 97.8646L29.1021 97.1246L24.3017 98.4423L25.5863 93.5179L24.8649 92.6561C22.6458 90.005 20.722 87.1166 19.127 84.0408L21.1573 84.2906C25.3337 91.9098 31.5038 98.077 39.0499 102.174L39.3452 104.285L39.3482 104.288Z" fill="#891717" />
  </g>
  <g style="mix-blend-mode:screen">
    <path d="M39.0554 102.177C37.4847 101.324 35.9749 100.375 34.529 99.3474L33.835 100.934C35.5974 102.183 37.4391 103.304 39.3537 104.287L39.0585 102.177H39.0554Z" fill="#3C7DCF" />
  </g>
  <g style="mix-blend-mode:screen">
    <path d="M22.3078 86.2454L21.1206 87.5038C22.256 89.3024 23.5071 91.0261 24.8739 92.6561L25.2574 93.1151L26.405 91.8973C24.9043 90.133 23.5345 88.2438 22.3078 86.2454Z" fill="#3C7DCF" />
  </g>
  <path d="M80.7475 100.854C88.4149 96.629 94.5239 90.2026 98.4688 82.2243L105.345 81.2063C103.436 85.9808 100.788 90.4462 97.4552 94.465L97.099 94.8959L98.901 101.797L92.168 99.9452L91.748 100.311C88.141 103.449 84.1657 105.991 79.9287 107.899L80.7475 100.857V100.854Z" fill="#BD6018" />
  <path d="M104.915 83.13C104.994 82.9489 104.918 82.7365 104.742 82.6553C104.568 82.5741 104.358 82.6553 104.279 82.8333C102.453 86.9271 100.069 90.7617 97.1897 94.234L96.8336 94.665C96.7606 94.7555 96.7332 94.8773 96.7636 94.9897L98.4103 101.291L92.2618 99.6018C92.1522 99.5706 92.0335 99.5987 91.9452 99.6736L91.5252 100.039C88.3109 102.834 84.7739 105.176 81.0087 107.002C80.8352 107.087 80.7591 107.302 80.8413 107.48C80.9021 107.608 81.0269 107.686 81.1578 107.686C81.2065 107.686 81.2583 107.674 81.307 107.652C85.124 105.8 88.7157 103.424 91.9756 100.589L92.2557 100.345L98.8121 102.147C98.9308 102.181 99.0617 102.147 99.15 102.053C99.2382 101.963 99.2717 101.831 99.2413 101.706L97.485 94.9866L97.7224 94.6993C100.641 91.177 103.061 87.2862 104.912 83.1331L104.915 83.13Z" fill="url(#paint14_linear_6900_4753)" />
  <path d="M103.725 82.218L99.1777 82.8893C95.1842 90.852 89.06 97.2909 81.4108 101.566L80.8721 106.212C84.619 104.376 88.1073 102.044 91.2698 99.2581L91.6899 98.8897L97.668 100.532L96.0669 94.4056L96.4291 93.9746C99.4152 90.418 101.862 86.4679 103.725 82.2148V82.218Z" fill="#891717" />
  <g style="mix-blend-mode:screen">
    <path d="M81.8721 101.675C89.3146 97.3934 95.3387 91.0607 99.3416 83.3104L101.424 83.0012C99.7251 86.4829 97.6095 89.7399 95.1195 92.7063L94.3951 93.5682L95.6675 98.4426L90.9097 97.1342L90.0695 97.8743C87.473 100.16 84.639 102.143 81.6255 103.782L81.869 101.675H81.8721Z" fill="#891717" />
  </g>
  <g style="mix-blend-mode:screen">
    <path d="M85.2661 99.4992C84.1672 100.271 83.0379 101.001 81.869 101.673L81.6255 103.78C83.1262 102.965 84.5812 102.063 85.9875 101.079L85.2692 99.4961L85.2661 99.4992Z" fill="#3C7DCF" />
  </g>
  <g style="mix-blend-mode:screen">
    <path d="M96.0114 91.6112L94.7421 90.4871C93.6127 91.9328 92.3982 93.3068 91.1045 94.5964L95.357 98.3561L95.6674 98.4404L94.3951 93.566L95.1195 92.7041C95.4239 92.3419 95.7192 91.9765 96.0114 91.6081V91.6112Z" fill="#3C7DCF" />
  </g>
  <path d="M101.317 74.9228C103.843 66.3387 103.746 57.3486 101.031 48.8457L105.177 43.1594C107.137 47.937 108.355 53.0332 108.772 58.3073L108.817 58.8694L114.799 62.4135L108.811 65.9577L108.766 66.5198C108.376 71.3723 107.311 76.075 105.609 80.5185L101.317 74.9228Z" fill="#BD6018" />
  <path d="M114.974 62.1013L109.151 58.6539L109.121 58.2792C108.783 54.0106 107.918 49.82 106.551 45.8231C106.487 45.6357 106.287 45.5389 106.107 45.6045C105.924 45.6701 105.83 45.8761 105.894 46.0604C107.239 50.0011 108.092 54.1324 108.423 58.3385L108.469 58.9006C108.478 59.0193 108.542 59.1223 108.643 59.1817L114.101 62.4136L108.64 65.6486C108.539 65.7079 108.475 65.8141 108.466 65.9296L108.42 66.4917C108.037 71.2849 106.984 75.9595 105.288 80.3874C105.218 80.5716 105.306 80.7808 105.486 80.8527C105.529 80.8683 105.571 80.8777 105.614 80.8777C105.754 80.8777 105.885 80.7902 105.94 80.6497C107.659 76.1563 108.731 71.413 109.121 66.5479L109.151 66.1732L114.98 62.7227C115.09 62.6571 115.154 62.5416 115.154 62.4136C115.154 62.2855 115.087 62.1669 114.98 62.1044L114.974 62.1013Z" fill="url(#paint15_linear_6900_4753)" />
  <path d="M107.754 59.2699L107.712 58.7016C107.371 54.0051 106.369 49.4211 104.732 45.0432L101.992 48.7997C104.659 57.3245 104.756 66.3395 102.278 74.9424L105.118 78.6427C106.519 74.6082 107.389 70.4021 107.706 66.1209L107.748 65.5557L113.057 62.4113L107.751 59.2699H107.754Z" fill="#891717" />
  <g style="mix-blend-mode:screen">
    <path d="M102.909 74.1429C105.237 65.6837 105.14 56.8186 102.625 48.4343L103.874 46.72C105.088 50.4328 105.849 54.2892 106.135 58.2144L106.217 59.3479L110.427 61.8429L106.211 64.3378L106.129 65.4714C105.867 68.9937 105.222 72.4723 104.208 75.8385L102.906 74.1397L102.909 74.1429Z" fill="#891717" />
  </g>
  <g style="mix-blend-mode:screen">
    <path d="M104.756 49.7258L103.228 50.6345C103.505 51.7587 103.739 52.8859 103.934 54.0226L105.492 53.0983C105.288 51.9648 105.045 50.8406 104.759 49.729L104.756 49.7258Z" fill="#3C7DCF" />
  </g>
  <g style="mix-blend-mode:screen">
    <path d="M105.771 68.822C105.932 67.7104 106.057 66.5956 106.142 65.4745L106.224 64.341L110.44 61.8461L109.07 61.0342L104.547 63.7196C104.459 65.8055 104.23 67.8883 103.859 69.9555L105.771 68.822Z" fill="#3C7DCF" />
  </g>
  <defs>
    <linearGradient id="paint0_linear_6900_4753" x1="88.8251" y1="84.7486" x2="49.8504" y2="23.357" gradientUnits="userSpaceOnUse">
      <stop stop-color="#BB7239" />
      <stop offset="0.23" stop-color="#FCEEAE" />
      <stop offset="0.52" stop-color="#E09E5B" />
      <stop offset="0.75" stop-color="#FCE9A4" />
      <stop offset="0.83" stop-color="#F1D693" />
      <stop offset="0.92" stop-color="#E1BD7C" />
      <stop offset="1" stop-color="#D08A4A" />
    </linearGradient>
    <linearGradient id="paint1_linear_6900_4753" x1="83.7867" y1="58.648" x2="19.7702" y2="30.5939" gradientUnits="userSpaceOnUse">
      <stop stop-color="#BB7239" />
      <stop offset="0.23" stop-color="#FCEEAE" />
      <stop offset="0.52" stop-color="#E09E5B" />
      <stop offset="0.75" stop-color="#FCE9A4" />
      <stop offset="0.83" stop-color="#F1D693" />
      <stop offset="0.92" stop-color="#E1BD7C" />
      <stop offset="1" stop-color="#D08A4A" />
    </linearGradient>
    <linearGradient id="paint2_linear_6900_4753" x1="19.1443" y1="57.3838" x2="107.174" y2="45.0868" gradientUnits="userSpaceOnUse">
      <stop stop-color="#BB7239" />
      <stop offset="0.23" stop-color="#FCEEAE" />
      <stop offset="0.52" stop-color="#E09E5B" />
      <stop offset="0.75" stop-color="#FCE9A4" />
      <stop offset="0.83" stop-color="#F1D693" />
      <stop offset="0.92" stop-color="#E1BD7C" />
      <stop offset="1" stop-color="#D08A4A" />
    </linearGradient>
    <linearGradient id="paint3_linear_6900_4753" x1="-7.26905" y1="31.6762" x2="80.4795" y2="19.4151" gradientUnits="userSpaceOnUse">
      <stop stop-color="#BB7239" />
      <stop offset="0.23" stop-color="#FCEEAE" />
      <stop offset="0.52" stop-color="#E09E5B" />
      <stop offset="0.75" stop-color="#FCE9A4" />
      <stop offset="0.83" stop-color="#F1D693" />
      <stop offset="0.92" stop-color="#E1BD7C" />
      <stop offset="1" stop-color="#D08A4A" />
    </linearGradient>
    <linearGradient id="paint4_linear_6900_4753" x1="25.6521" y1="26.9814" x2="3.75091" y2="11.9683" gradientUnits="userSpaceOnUse">
      <stop stop-color="#BB7239" />
      <stop offset="0.23" stop-color="#FCEEAE" />
      <stop offset="0.52" stop-color="#E09E5B" />
      <stop offset="0.75" stop-color="#FCE9A4" />
      <stop offset="0.83" stop-color="#F1D693" />
      <stop offset="0.92" stop-color="#E1BD7C" />
      <stop offset="1" stop-color="#D08A4A" />
    </linearGradient>
    <linearGradient id="paint5_linear_6900_4753" x1="11.6379" y1="58.4034" x2="-4.69148" y2="54.0413" gradientUnits="userSpaceOnUse">
      <stop stop-color="#BB7239" />
      <stop offset="0.23" stop-color="#FCEEAE" />
      <stop offset="0.52" stop-color="#E09E5B" />
      <stop offset="0.75" stop-color="#FCE9A4" />
      <stop offset="0.83" stop-color="#F1D693" />
      <stop offset="0.92" stop-color="#E1BD7C" />
      <stop offset="1" stop-color="#D08A4A" />
    </linearGradient>
    <linearGradient id="paint6_linear_6900_4753" x1="13.4306" y1="55.9517" x2="21.1469" y2="55.7838" gradientUnits="userSpaceOnUse">
      <stop stop-color="#BB7239" />
      <stop offset="0.23" stop-color="#FCEEAE" />
      <stop offset="0.52" stop-color="#E09E5B" />
      <stop offset="0.75" stop-color="#FCE9A4" />
      <stop offset="0.83" stop-color="#F1D693" />
      <stop offset="0.92" stop-color="#E1BD7C" />
      <stop offset="1" stop-color="#D08A4A" />
    </linearGradient>
    <linearGradient id="paint7_linear_6900_4753" x1="56.0216" y1="12.049" x2="45.6697" y2="-7.20991" gradientUnits="userSpaceOnUse">
      <stop stop-color="#BB7239" />
      <stop offset="0.23" stop-color="#FCEEAE" />
      <stop offset="0.52" stop-color="#E09E5B" />
      <stop offset="0.75" stop-color="#FCE9A4" />
      <stop offset="0.83" stop-color="#F1D693" />
      <stop offset="0.92" stop-color="#E1BD7C" />
      <stop offset="1" stop-color="#D08A4A" />
    </linearGradient>
    <linearGradient id="paint8_linear_6900_4753" x1="59.3068" y1="11.96" x2="47.3855" y2="-6.36016" gradientUnits="userSpaceOnUse">
      <stop stop-color="#BB7239" />
      <stop offset="0.23" stop-color="#FCEEAE" />
      <stop offset="0.52" stop-color="#E09E5B" />
      <stop offset="0.75" stop-color="#FCE9A4" />
      <stop offset="0.83" stop-color="#F1D693" />
      <stop offset="0.92" stop-color="#E1BD7C" />
      <stop offset="1" stop-color="#D08A4A" />
    </linearGradient>
    <linearGradient id="paint9_linear_6900_4753" x1="92.815" y1="26.6337" x2="106.223" y2="25.8158" gradientUnits="userSpaceOnUse">
      <stop stop-color="#BB7239" />
      <stop offset="0.23" stop-color="#FCEEAE" />
      <stop offset="0.52" stop-color="#E09E5B" />
      <stop offset="0.75" stop-color="#FCE9A4" />
      <stop offset="0.83" stop-color="#F1D693" />
      <stop offset="0.92" stop-color="#E1BD7C" />
      <stop offset="1" stop-color="#D08A4A" />
    </linearGradient>
    <linearGradient id="paint10_linear_6900_4753" x1="75.0746" y1="18.4927" x2="92.7443" y2="14.7244" gradientUnits="userSpaceOnUse">
      <stop stop-color="#BB7239" />
      <stop offset="0.23" stop-color="#FCEEAE" />
      <stop offset="0.52" stop-color="#E09E5B" />
      <stop offset="0.75" stop-color="#FCE9A4" />
      <stop offset="0.83" stop-color="#F1D693" />
      <stop offset="0.92" stop-color="#E1BD7C" />
      <stop offset="1" stop-color="#D08A4A" />
    </linearGradient>
    <linearGradient id="paint11_linear_6900_4753" x1="35.9393" y1="109.051" x2="53.6436" y2="99.7445" gradientUnits="userSpaceOnUse">
      <stop stop-color="#BB7239" />
      <stop offset="0.23" stop-color="#FCEEAE" />
      <stop offset="0.52" stop-color="#E09E5B" />
      <stop offset="0.75" stop-color="#FCE9A4" />
      <stop offset="0.83" stop-color="#F1D693" />
      <stop offset="0.92" stop-color="#E1BD7C" />
      <stop offset="1" stop-color="#D08A4A" />
    </linearGradient>
    <linearGradient id="paint12_linear_6900_4753" x1="51.1525" y1="106.506" x2="80.8536" y2="100.883" gradientUnits="userSpaceOnUse">
      <stop stop-color="#BB7239" />
      <stop offset="0.23" stop-color="#FCEEAE" />
      <stop offset="0.52" stop-color="#E09E5B" />
      <stop offset="0.75" stop-color="#FCE9A4" />
      <stop offset="0.83" stop-color="#F1D693" />
      <stop offset="0.92" stop-color="#E1BD7C" />
      <stop offset="1" stop-color="#D08A4A" />
    </linearGradient>
    <linearGradient id="paint13_linear_6900_4753" x1="12.1409" y1="101.364" x2="41.8116" y2="91.5806" gradientUnits="userSpaceOnUse">
      <stop stop-color="#BB7239" />
      <stop offset="0.23" stop-color="#FCEEAE" />
      <stop offset="0.52" stop-color="#E09E5B" />
      <stop offset="0.75" stop-color="#FCE9A4" />
      <stop offset="0.83" stop-color="#F1D693" />
      <stop offset="0.92" stop-color="#E1BD7C" />
      <stop offset="1" stop-color="#D08A4A" />
    </linearGradient>
    <linearGradient id="paint14_linear_6900_4753" x1="69.6058" y1="87.5402" x2="107.111" y2="82.3033" gradientUnits="userSpaceOnUse">
      <stop stop-color="#BB7239" />
      <stop offset="0.23" stop-color="#FCEEAE" />
      <stop offset="0.52" stop-color="#E09E5B" />
      <stop offset="0.75" stop-color="#FCE9A4" />
      <stop offset="0.83" stop-color="#F1D693" />
      <stop offset="0.92" stop-color="#E1BD7C" />
      <stop offset="1" stop-color="#D08A4A" />
    </linearGradient>
    <linearGradient id="paint15_linear_6900_4753" x1="100.674" y1="52.5074" x2="116.314" y2="51.872" gradientUnits="userSpaceOnUse">
      <stop stop-color="#BB7239" />
      <stop offset="0.23" stop-color="#FCEEAE" />
      <stop offset="0.52" stop-color="#E09E5B" />
      <stop offset="0.75" stop-color="#FCE9A4" />
      <stop offset="0.83" stop-color="#F1D693" />
      <stop offset="0.92" stop-color="#E1BD7C" />
      <stop offset="1" stop-color="#D08A4A" />
    </linearGradient>
  </defs>
</svg>
