<svg viewBox="0 0 121 124" fill="none" xmlns="http://www.w3.org/2000/svg">
  <path d="M55.0153 114.634C45.0253 113.6 35.6897 109.625 27.9035 103.089L17.8557 105.853L20.5495 95.5451C14.1787 87.5574 10.3038 77.9803 9.29631 67.7318L0.316895 62.414L9.29023 57.0993C10.2856 46.8352 14.1604 37.2394 20.5373 29.2392L17.8557 18.972L27.8548 21.7199C35.6593 15.1499 45.0253 11.1592 55.0518 10.1287L60.202 0.976318L65.3492 10.1225C75.3909 11.1405 84.7721 15.1312 92.5888 21.7074L102.545 18.9689L99.8758 29.183C106.286 37.2019 110.176 46.8258 111.169 57.1274L120.084 62.4078L111.163 67.6912C110.158 77.9772 106.268 87.5855 99.8667 95.5919L102.545 105.85L92.5371 103.099C84.7387 109.641 75.3848 113.616 65.3796 114.637L60.199 123.842L55.0153 114.631V114.634ZM24.5248 80.5003L24.9509 81.3371C28.8775 89.0469 34.9835 95.1516 42.6115 98.9893L43.4394 99.4078L44.0573 103.808L47.4634 101.056L48.3431 101.341C52.221 102.593 56.2267 103.227 60.2507 103.227C64.5791 103.227 68.871 102.493 73.0015 101.05L73.8751 100.744L77.3208 103.389L77.8291 99.008L78.6479 98.5709C86.1784 94.5458 92.1414 88.2787 95.8914 80.444L96.2993 79.5947L100.552 78.967L97.8973 75.5072L98.1774 74.6016C100.746 66.2611 100.649 57.4865 97.9004 49.2271L97.6021 48.331L100.147 44.843L95.934 44.3277L95.5079 43.4878C91.5782 35.7343 85.4448 29.6014 77.7773 25.7481L76.9464 25.3328L76.3406 21.0111L72.9985 23.709L72.1157 23.4249C68.2257 22.1665 64.2078 21.5263 60.1716 21.5263C55.8158 21.5263 51.5026 22.2664 47.3508 23.7278L46.4772 24.0338L43.0802 21.4264L42.578 25.7512L41.7592 26.1884C34.2165 30.2228 28.2505 36.5118 24.5035 44.3683L24.0987 45.2208L19.8494 45.8485L22.5067 49.3115L22.2297 50.2139C19.679 58.5419 19.7855 67.3009 22.5341 75.5415L22.8324 76.4377L20.2573 79.9694L24.5309 80.4909L24.5248 80.5003Z" fill="url(#paint0_linear_6900_4477)" />
  <g style="mix-blend-mode:screen" opacity="0.5">
    <path d="M21.7334 95.8672C21.8369 95.4737 21.7456 95.0553 21.4929 94.7399C15.2926 86.9646 11.4969 77.5842 10.5168 67.6105C10.4772 67.2046 10.255 66.8455 9.91109 66.6425L2.76719 62.4114L9.905 58.1833C10.249 57.9804 10.4712 57.6181 10.5107 57.2122C11.4817 47.2229 15.2774 37.8269 21.4807 30.0391C21.7303 29.7237 21.8216 29.3053 21.7212 28.9118L19.5875 20.7462L27.538 22.932C27.9185 23.0382 28.3263 22.9476 28.6307 22.6884C36.2282 16.2933 45.4053 12.3807 55.1639 11.3783C55.5596 11.3377 55.9097 11.1097 56.1105 10.7569L59.9793 3.88399C60.1345 3.60607 60.0615 3.25322 59.8088 3.06273C59.5136 2.84415 59.0996 2.93471 58.92 3.25634L55.0513 10.1292C45.0249 11.1597 35.659 15.1504 27.8545 21.7204L17.8555 18.9725L20.5371 29.2397C14.1603 37.2399 10.2855 46.8357 9.29014 57.0998L0.316895 62.4145L9.29623 67.7323C10.3037 77.9808 14.1786 87.5579 20.5493 95.5456L18.4217 103.696C18.3151 104.108 18.6317 104.511 19.0487 104.486C19.3105 104.47 19.5357 104.283 19.6027 104.02L21.7303 95.8703L21.7334 95.8672Z" fill="#FFE46B" />
  </g>
  <path d="M120.086 62.4114L111.17 57.131C110.178 46.8295 106.288 37.2055 99.8776 29.1866L101.546 22.804C101.777 21.9234 101.028 21.0959 100.155 21.2677C99.701 21.3551 99.3388 21.7017 99.2171 22.1576L97.1868 29.7987C103.801 37.8675 108.023 48.1566 108.845 58.6517L114.601 62.4114L108.839 66.1741C107.862 76.1853 103.408 87.1863 97.1747 94.9835L98.5535 101.641L91.9453 100.339C84.354 106.709 73.5818 111.024 63.8415 112.021L60.1341 118.06C59.8511 118.522 59.8389 119.109 60.1067 119.584C60.6607 120.567 62.0426 120.567 62.5966 119.584L65.3848 114.637C75.3899 113.616 84.7436 109.641 92.5419 103.099L102.55 105.85L99.8715 95.5924C106.276 87.586 110.166 77.9777 111.167 67.6917L120.089 62.4083L120.086 62.4114Z" fill="url(#paint1_linear_6900_4477)" />
  <path d="M99.2666 75.2551L99.3488 74.9834C101.997 66.3868 101.896 57.3406 99.0627 48.8252L98.9744 48.5566L100.207 46.8267C100.402 46.555 100.344 46.171 100.082 45.9711C99.8175 45.7681 99.4401 45.8243 99.2422 46.096L97.6077 48.3381L97.906 49.2343C100.655 57.4936 100.752 66.2682 98.183 74.6087L97.9029 75.5143L100.557 78.9741L96.3049 79.6018L95.8971 80.4511C92.147 88.2858 86.1842 94.556 78.6537 98.578L77.8349 99.0151L77.3266 103.396L73.8809 100.751L73.0074 101.057C68.8769 102.5 64.5881 103.234 60.2567 103.234C56.2327 103.234 52.227 102.6 48.3492 101.348L47.4695 101.064L45.3571 102.769C45.0923 102.984 45.0466 103.377 45.2536 103.649C45.4636 103.921 45.8471 103.968 46.112 103.755L47.7191 102.459L47.9839 102.544C51.9805 103.833 56.111 104.486 60.2567 104.486C64.722 104.486 69.1447 103.73 73.4 102.241L73.6618 102.15L76.5595 104.374C76.8061 104.564 77.1105 104.673 77.4179 104.645C78.0236 104.592 78.4741 104.121 78.5411 103.54L78.9733 99.8177L79.2198 99.6865C86.9816 95.5397 93.1302 89.0758 96.9959 80.9976L97.1176 80.7415L100.709 80.2107C100.974 80.1732 101.227 80.0577 101.416 79.8641C101.875 79.3863 101.89 78.6712 101.519 78.1904L99.2635 75.252L99.2666 75.2551Z" fill="url(#paint2_linear_6900_4477)" />
  <path d="M21.1424 49.5762L21.0603 49.8478C18.4304 58.4319 18.54 67.4626 21.3738 75.9561L21.462 76.2247L20.3206 77.7891C20.3206 77.7891 20.3115 77.8016 20.3084 77.8047C19.8458 78.4605 20.8411 79.1693 21.3129 78.5229L22.8287 76.4432L22.5304 75.547C19.7818 67.3064 19.6783 58.5475 22.226 50.2194L22.503 49.317L19.8458 45.854L24.095 45.2264L24.4998 44.3739C28.2468 36.5174 34.2127 30.2284 41.7553 26.1939L42.5741 25.7568L43.0764 21.4319L46.4733 24.0393L47.3469 23.7333C51.4987 22.2719 55.8118 21.5319 60.1676 21.5319C64.2037 21.5319 68.2216 22.1689 72.1116 23.4304L72.9943 23.7146L74.8632 22.2063C75.4842 21.7067 74.7658 20.7044 74.1388 21.1946C74.1327 21.1977 74.1266 21.204 74.1236 21.2071L72.7478 22.3188L72.4829 22.2345C68.4742 20.9354 64.3315 20.2797 60.1706 20.2797C55.6809 20.2797 51.2339 21.0447 46.9542 22.5498L46.6925 22.6435L43.8465 20.4577C43.5999 20.2672 43.2955 20.1579 42.9881 20.186C42.3824 20.2391 41.9319 20.7106 41.8649 21.2914L41.4388 24.9605L41.1922 25.0917C33.4152 29.251 27.2636 35.7336 23.404 43.8337L23.2823 44.0897L19.6966 44.6206C19.4318 44.6612 19.1792 44.7736 18.9904 44.9672C18.5308 45.4449 18.5156 46.1569 18.8869 46.6409L21.1455 49.5855L21.1424 49.5762Z" fill="url(#paint3_linear_6900_4477)" />
  <path d="M15.4063 43.612C17.3087 38.8437 19.9446 34.3815 23.2655 30.3658L23.6216 29.9348L21.8166 23.0276L28.5435 24.8762L28.9635 24.5108C32.5735 21.3632 36.5518 18.8089 40.7919 16.8948L39.9761 23.9176C32.2965 28.1581 26.1815 34.6001 22.2397 42.6033L15.4063 43.6151V43.612Z" fill="url(#paint4_linear_6900_4477)" />
  <path d="M23.2806 30.0292C23.3232 30.1884 23.4632 30.2946 23.6185 30.2946C23.6489 30.2946 23.6793 30.2915 23.7098 30.2821C23.8955 30.2321 24.0081 30.0354 23.9563 29.8418L22.1513 22.9346C22.1026 22.7441 21.9108 22.6285 21.7221 22.6816C21.5364 22.7316 21.4237 22.9283 21.4755 23.1219L23.2806 30.0292Z" fill="#FFE46B" />
  <path d="M40.2861 23.7485C40.1947 23.5737 39.9817 23.5081 39.8112 23.6018C32.1316 27.8392 25.98 34.2937 22.0108 42.2751L15.357 43.2587C15.1652 43.2868 15.0343 43.4679 15.0617 43.6647C15.0861 43.8426 15.2352 43.9707 15.4087 43.9707C15.4239 43.9707 15.4422 43.9707 15.4605 43.9675L22.4735 42.9308L22.5557 42.7653C26.4579 34.8401 32.5395 28.4325 40.146 24.2357C40.3165 24.142 40.3804 23.9234 40.2891 23.7485H40.2861Z" fill="#FFE46B" />
  <path d="M17.0231 42.6002L21.531 41.9351C25.5184 33.9506 31.6487 27.493 39.3101 23.2025L39.8458 18.5779C36.0958 20.4202 32.6014 22.7622 29.4359 25.5601L29.0158 25.9317L23.0438 24.2892L24.6448 30.422L24.2857 30.8529C21.3118 34.4065 18.8737 38.3535 17.02 42.6002H17.0231Z" fill="#3B1789" />
  <g style="mix-blend-mode:screen">
    <path d="M18.2755 40.6825C19.9649 37.207 22.0714 33.9533 24.5553 30.9868L25.2767 30.1249L24.0013 25.2443L28.7529 26.5495L29.5931 25.8063C32.1927 23.5112 35.0266 21.5221 38.0432 19.8765L37.7997 21.9624C30.3419 26.256 24.3118 32.6074 20.315 40.3827L18.2725 40.6857L18.2755 40.6825Z" fill="#3B1789" />
  </g>
  <g style="mix-blend-mode:screen">
    <path d="M22.1675 37.1322C23.2055 35.4616 24.3409 33.869 25.5707 32.3608L24.8797 30.5996L24.5601 30.9806C23.4308 32.3296 22.3836 33.7441 21.4126 35.2055L22.1675 37.129V37.1322Z" fill="#3C7DCF" />
  </g>
  <g style="mix-blend-mode:screen">
    <path d="M33.8504 22.4751C32.855 23.1683 31.887 23.899 30.9434 24.6703L31.5856 26.3003C32.5202 25.5228 33.4881 24.7858 34.4866 24.0864L33.8534 22.4751H33.8504Z" fill="#3C7DCF" />
  </g>
  <path d="M15.6 81.5958C13.6549 76.8463 12.4403 71.7877 12.0172 66.5542L11.9715 65.9921L5.9292 62.4136L11.9685 58.835L12.0142 58.273C12.3977 53.4422 13.454 48.7614 15.1403 44.3367L19.4141 49.9106C16.9059 58.4791 17.0154 67.4566 19.7246 75.9408L15.5969 81.599L15.6 81.5958Z" fill="url(#paint5_linear_6900_4477)" />
  <path d="M18.4322 49.8882L15.6135 46.2129C14.2285 50.2317 13.367 54.4129 13.0535 58.6722L13.0109 59.2374L7.65039 62.4131L13.017 65.5919L13.0596 66.1571C13.4066 70.8161 14.405 75.3689 16.0275 79.7124L18.7458 75.984C16.0823 67.478 15.9727 58.4786 18.4322 49.8914V49.8882Z" fill="#3B1789" />
  <g style="mix-blend-mode:screen">
    <path d="M15.8315 76.8959C14.6292 73.2143 13.8712 69.3922 13.582 65.5045L13.4968 64.3741L9.22607 61.8448L13.4938 59.3186L13.5759 58.1851C13.8316 54.6877 14.4709 51.231 15.4724 47.8835L16.7539 49.5541C14.4435 57.9977 14.55 66.8472 17.0613 75.2128L15.8315 76.899V76.8959Z" fill="#3B1789" />
  </g>
  <path d="M11.9448 66.3723C12.0849 66.4567 12.2584 66.4285 12.368 66.3161C12.3893 66.2943 12.4075 66.2693 12.4228 66.2412C12.5202 66.0695 12.4623 65.8509 12.2949 65.7509L6.25866 62.1755C6.09125 62.0756 5.87816 62.1349 5.78076 62.3067C5.68335 62.4784 5.74118 62.697 5.9086 62.7969L11.9448 66.3723Z" fill="#FFE46B" />
  <path d="M19.6333 49.5997C19.4476 49.5435 19.2528 49.6497 19.198 49.8402C16.6897 58.4087 16.7871 67.433 19.4811 75.9547L15.4539 81.4786C15.3382 81.6379 15.3686 81.8627 15.5239 81.9814C15.6639 82.0907 15.8587 82.0719 15.9805 81.947C15.9926 81.9345 16.0018 81.9221 16.0139 81.9064L20.2573 76.0859L20.1994 75.9079C17.4964 67.4737 17.3807 58.5304 19.8646 50.0463C19.9194 49.8558 19.8159 49.6559 19.6302 49.5997H19.6333Z" fill="url(#paint6_linear_6900_4477)" />
  <g style="mix-blend-mode:screen">
    <path d="M15.2897 57.6104L13.6642 57.1545C13.6307 57.498 13.6003 57.8384 13.5759 58.1819L13.4938 59.3154L9.22607 61.8416L13.4968 64.3709L13.582 65.5013C13.6551 66.46 13.7555 67.4155 13.8834 68.3679L15.6306 68.8581C15.0614 65.1328 14.9488 61.3576 15.2928 57.6073L15.2897 57.6104Z" fill="#3C7DCF" />
  </g>
  <path d="M41.4438 16.603C46.0948 14.5889 51.0533 13.3399 56.1882 12.9058L56.7361 12.859L60.1909 6.7168L63.6456 12.8528L64.1935 12.8996C68.9328 13.293 73.5229 14.3828 77.8604 16.1284L72.418 20.5251C68.4214 19.2885 64.3031 18.664 60.1635 18.664C55.683 18.664 51.245 19.3947 46.9654 20.8404L41.4469 16.6061L41.4438 16.603Z" fill="url(#paint7_linear_6900_4477)" />
  <path d="M78.2063 16.0744C78.1881 15.9464 78.1059 15.8402 77.9872 15.7933C73.601 14.0291 68.9713 12.9362 64.2229 12.5427L63.8577 12.5115L60.4973 6.53788C60.3999 6.36614 60.1868 6.30681 60.0194 6.40674C59.852 6.50666 59.7941 6.72525 59.8915 6.89699L63.3463 13.0329C63.4041 13.136 63.5076 13.2016 63.6202 13.2109L64.1681 13.2578C68.6426 13.6294 73.0105 14.6317 77.1623 16.2368L72.3439 20.1276C68.3717 18.916 64.2716 18.3039 60.1624 18.3039C55.6484 18.3039 51.1709 19.0409 46.8548 20.496C46.6721 20.5585 46.5717 20.7615 46.6325 20.9488C46.6812 21.0987 46.8182 21.1955 46.9643 21.1955C47.0009 21.1955 47.0374 21.1892 47.0739 21.1768C51.3201 19.7466 55.7245 19.019 60.1655 19.019C64.2655 19.019 68.3565 19.6404 72.3195 20.8645C72.4291 20.8988 72.5478 20.8739 72.6361 20.802L78.0815 16.4054C78.1789 16.3273 78.2307 16.1993 78.2124 16.0713L78.2063 16.0744Z" fill="url(#paint8_linear_6900_4477)" />
  <path d="M60.1569 17.7052C64.2996 17.7052 68.424 18.3204 72.4297 19.532L76.0275 16.6279C72.0888 15.1915 67.9826 14.3047 63.8034 13.983L63.2495 13.9393L60.1874 8.49658L57.1222 13.9424L56.5713 13.9862C51.9994 14.3421 47.5371 15.3726 43.2788 17.0526L46.9162 19.8442C51.2172 18.4234 55.6703 17.7021 60.16 17.7021L60.1569 17.7052Z" fill="#3B1789" />
  <g style="mix-blend-mode:screen">
    <path d="M44.9375 16.8214C48.5505 15.5724 52.3036 14.7917 56.1236 14.4951L57.2285 14.4108L59.6606 10.0859L62.0926 14.4045L63.1975 14.4888C66.6371 14.7511 70.034 15.41 73.3213 16.453L71.6807 17.7801C67.742 16.6403 63.6937 16.0626 59.6332 16.0626C55.2166 16.0626 50.8304 16.7434 46.5873 18.0861L44.9405 16.8214H44.9375Z" fill="#3B1789" />
  </g>
  <g style="mix-blend-mode:screen">
    <path d="M70.5025 15.6622C68.1099 15.0751 65.6717 14.6786 63.2091 14.4912L62.999 14.4756L63.4313 16.2367C65.97 16.4616 68.4934 16.9112 70.9713 17.5857L70.4994 15.6622H70.5025Z" fill="#3C7DCF" />
  </g>
  <g style="mix-blend-mode:screen">
    <path d="M52.4556 14.9383L52.8635 16.6027C54.0263 16.4184 55.1952 16.2779 56.3671 16.1873L55.9562 14.5105C54.7812 14.6073 53.6153 14.7509 52.4556 14.9383Z" fill="#3C7DCF" />
  </g>
  <path d="M97.7269 41.6624C93.5994 33.7653 87.3139 27.4794 79.5034 23.4294L78.5142 16.3972C83.1834 18.3551 87.5513 21.078 91.484 24.5067L91.904 24.872L98.5883 23.0328L96.7985 29.8901L97.1547 30.321C100.232 34.0369 102.728 38.1338 104.594 42.5024L97.7269 41.6624Z" fill="#BD6018" />
  <path d="M104.593 42.8611C104.593 42.8611 104.565 42.8611 104.55 42.8611L97.6828 42.0211C97.4911 41.9961 97.3541 41.8181 97.3754 41.6214C97.3997 41.4247 97.5732 41.2841 97.765 41.306L104.02 42.071C102.188 37.9336 99.7893 34.0615 96.8823 30.5517L96.5261 30.1207C96.453 30.0302 96.4257 29.9084 96.4561 29.796L98.246 22.9387C98.2947 22.7482 98.4895 22.6327 98.6752 22.6858C98.8609 22.7357 98.9735 22.9325 98.9217 23.1261L97.1775 29.8022L97.415 30.0895C100.499 33.8117 103.022 37.9429 104.909 42.3614C104.961 42.4801 104.946 42.6144 104.87 42.7205C104.803 42.8111 104.699 42.8642 104.59 42.8642L104.593 42.8611Z" fill="url(#paint9_linear_6900_4477)" />
  <path d="M91.4835 24.8623C91.4043 24.8623 91.3221 24.8342 91.2582 24.778C87.9403 21.8833 84.2783 19.4758 80.3759 17.6209C80.1994 17.5366 80.1233 17.3243 80.2055 17.1463C80.2876 16.9652 80.4946 16.8871 80.6682 16.9715C84.6284 18.8544 88.3421 21.2994 91.7118 24.2347C91.8579 24.3627 91.8762 24.5907 91.7513 24.7405C91.6813 24.8249 91.5839 24.8654 91.4835 24.8654V24.8623Z" fill="url(#paint10_linear_6900_4477)" />
  <path d="M98.4187 40.9737L102.948 41.5264C101.149 37.6606 98.86 34.0602 96.1267 30.8033L95.7645 30.3724L97.3533 24.2895L91.4239 25.9195L91.0039 25.5479C87.5248 22.4752 83.6591 19.9584 79.4951 18.0474L80.1465 22.6938C87.9387 26.7938 94.2395 33.0953 98.4156 40.9737H98.4187Z" fill="#3B1789" />
  <g style="mix-blend-mode:screen">
    <path d="M98.5605 39.4044C94.375 31.7384 88.1805 25.54 80.5918 21.4306L80.2935 19.3135C83.7027 21.0559 86.8959 23.2355 89.8029 25.7992L90.643 26.5423L95.3521 25.2465L94.0889 30.0772L94.8133 30.939C97.0628 33.6182 99.008 36.5441 100.615 39.6574L98.5574 39.4044H98.5605Z" fill="#3B1789" />
  </g>
  <g style="mix-blend-mode:screen">
    <path d="M89.8062 25.8C88.1868 24.3699 86.4761 23.0646 84.6892 21.8843L83.8369 23.3769C86.8444 25.3535 89.5931 27.6767 92.0344 30.3122L94.844 25.3847L90.6433 26.5401L89.8032 25.7969L89.8062 25.8Z" fill="#3C7DCF" />
  </g>
  <path d="M56.691 111.907L56.1431 111.86C51.4403 111.46 46.8837 110.373 42.5767 108.643L48.0191 104.25C52.0034 105.477 56.1096 106.099 60.234 106.099C64.6871 106.099 69.1007 105.374 73.359 103.95L78.8988 108.203C74.2631 110.199 69.3229 111.438 64.2123 111.866L63.6644 111.913L60.1792 118.108L56.691 111.91V111.907Z" fill="#BD6018" />
  <path d="M56.1727 111.499C51.5276 111.105 46.9981 110.031 42.7061 108.304C42.5265 108.232 42.3225 108.323 42.2525 108.507C42.1825 108.691 42.2708 108.901 42.4504 108.972C46.8063 110.721 51.4028 111.811 56.1149 112.214C56.124 112.214 56.1332 112.214 56.1453 112.214C56.3249 112.214 56.4771 112.073 56.4923 111.886C56.5076 111.689 56.3645 111.514 56.1727 111.499Z" fill="url(#paint11_linear_6900_4477)" />
  <path d="M79.1143 107.913L73.5742 103.66C73.419 103.541 73.1998 103.575 73.0841 103.731C72.9685 103.891 72.9989 104.115 73.1541 104.234L78.2011 108.106C73.7447 109.955 69.0326 111.098 64.1896 111.504L63.6417 111.55C63.526 111.56 63.4255 111.625 63.3677 111.728L59.8823 117.924C59.7849 118.095 59.8427 118.314 60.0102 118.414C60.065 118.445 60.1258 118.461 60.1837 118.461C60.3054 118.461 60.4211 118.395 60.4881 118.283L63.8821 112.25L64.2474 112.219C69.3705 111.791 74.3474 110.548 79.0412 108.528C79.1569 108.478 79.2391 108.368 79.2543 108.24C79.2695 108.112 79.2178 107.988 79.1173 107.909L79.1143 107.913Z" fill="url(#paint12_linear_6900_4477)" />
  <path d="M60.2333 107.054C56.1058 107.054 51.9936 106.442 48.0001 105.239L44.4053 108.14C48.3136 109.564 52.3862 110.448 56.5319 110.773L57.0829 110.816L60.1815 116.322L63.2771 110.823L63.828 110.779C68.3755 110.426 72.8195 109.408 77.0627 107.744L73.404 104.937C69.1274 106.342 64.6986 107.054 60.2363 107.054H60.2333Z" fill="#3B1789" />
  <g style="mix-blend-mode:screen">
    <path d="M57.1892 109.221L56.0873 109.134C52.6843 108.865 49.3209 108.21 46.064 107.182L47.7046 105.858C51.6281 106.989 55.6673 107.563 59.7126 107.563C64.1018 107.563 68.4636 106.892 72.6824 105.562L74.3473 106.839C70.7526 108.072 67.0208 108.843 63.2251 109.137L62.1202 109.221L59.6578 113.599L57.1923 109.218L57.1892 109.221Z" fill="#3B1789" />
  </g>
  <g style="mix-blend-mode:screen">
    <path d="M67.7593 106.797C65.105 107.302 62.411 107.559 59.708 107.559C58.9013 107.559 58.0946 107.53 57.291 107.484L57.431 109.651L59.6532 113.598L62.1158 109.22L63.2207 109.135C64.7823 109.014 66.3347 108.808 67.8689 108.527L67.7563 106.797H67.7593Z" fill="#3C7DCF" />
  </g>
  <path d="M41.8676 108.345C37.2349 106.393 32.9035 103.692 29.0013 100.298L28.5812 99.9324L21.8056 101.793L23.6198 94.8425L23.2636 94.4116C20.2137 90.7237 17.7391 86.6612 15.8823 82.3333L22.7279 83.1701C26.8523 91.0204 33.1074 97.275 40.8784 101.313L41.8676 108.345Z" fill="#BD6018" />
  <path d="M42.2223 108.296L41.233 101.264C41.2056 101.067 41.026 100.933 40.8373 100.961C40.6455 100.989 40.5146 101.17 40.542 101.367L41.443 107.771C37.0384 105.848 32.9351 103.243 29.2366 100.024L28.8165 99.6586C28.7282 99.5837 28.6095 99.5556 28.4999 99.5868L21.724 101.448C21.5383 101.498 21.4257 101.695 21.4774 101.888C21.5292 102.082 21.7179 102.194 21.9066 102.141L28.506 100.327L28.7861 100.57C32.7007 103.974 37.0597 106.703 41.7474 108.677C41.79 108.695 41.8357 108.705 41.8814 108.705C41.9575 108.705 42.0336 108.68 42.0975 108.63C42.1979 108.552 42.2466 108.424 42.2284 108.296H42.2223Z" fill="url(#paint13_linear_6900_4477)" />
  <path d="M22.0386 83.8572L17.5337 83.3076C19.3204 87.1328 21.5881 90.6989 24.2941 93.9277L24.6563 94.3586L23.043 100.532L29.0607 98.877L29.4808 99.2486C32.9325 102.29 36.7616 104.788 40.8861 106.687L40.2347 102.047C32.485 97.959 26.2086 91.6888 22.0386 83.8572Z" fill="#3B1789" />
  <g style="mix-blend-mode:screen">
    <path d="M39.0338 104.288C35.6641 102.558 32.5074 100.404 29.6278 97.8651L28.7877 97.1251L23.9873 98.4428L25.2719 93.5184L24.5504 92.6566C22.3314 90.0055 20.4076 87.117 18.8125 84.0413L20.8428 84.2911C25.0192 91.9103 31.1894 98.0775 38.7355 102.174L39.0307 104.285L39.0338 104.288Z" fill="#3B1789" />
  </g>
  <g style="mix-blend-mode:screen">
    <path d="M38.741 102.177C37.1703 101.325 35.6604 100.375 34.2145 99.3479L33.5205 100.934C35.283 102.183 37.1246 103.304 39.0393 104.288L38.744 102.177H38.741Z" fill="#3C7DCF" />
  </g>
  <g style="mix-blend-mode:screen">
    <path d="M21.9928 86.2458L20.8057 87.5043C21.9411 89.3029 23.1922 91.0266 24.5589 92.6566L24.9425 93.1156L26.09 91.8978C24.5894 90.1335 23.2196 88.2443 21.9928 86.2458Z" fill="#3C7DCF" />
  </g>
  <path d="M80.4335 100.854C88.101 96.629 94.21 90.2026 98.1548 82.2243L105.031 81.2063C103.122 85.9808 100.474 90.4462 97.1412 94.465L96.7851 94.8959L98.587 101.797L91.854 99.9452L91.434 100.311C87.827 103.449 83.8518 105.991 79.6147 107.899L80.4335 100.857V100.854Z" fill="#BD6018" />
  <path d="M104.601 83.13C104.68 82.9489 104.604 82.7365 104.428 82.6553C104.254 82.5741 104.044 82.6553 103.965 82.8333C102.139 86.9271 99.7553 90.7617 96.8758 94.234L96.5196 94.665C96.4466 94.7555 96.4192 94.8773 96.4496 94.9897L98.0964 101.291L91.9478 99.6018C91.8382 99.5706 91.7195 99.5987 91.6312 99.6736L91.2112 100.039C87.9969 102.834 84.4599 105.176 80.6947 107.002C80.5212 107.087 80.4451 107.302 80.5273 107.48C80.5882 107.608 80.713 107.686 80.8439 107.686C80.8926 107.686 80.9443 107.674 80.993 107.652C84.81 105.8 88.4017 103.424 91.6617 100.589L91.9417 100.345L98.4981 102.147C98.6169 102.181 98.7477 102.147 98.836 102.053C98.9243 101.963 98.9578 101.831 98.9273 101.706L97.171 94.9866L97.4084 94.6993C100.327 91.177 102.747 87.2862 104.598 83.1331L104.601 83.13Z" fill="url(#paint14_linear_6900_4477)" />
  <path d="M103.411 82.218L98.8633 82.8893C94.8698 90.852 88.7456 97.2909 81.0964 101.566L80.5576 106.212C84.3046 104.376 87.7928 102.044 90.9554 99.2581L91.3754 98.8897L97.3535 100.532L95.7525 94.4056L96.1147 93.9746C99.1007 90.418 101.548 86.4679 103.411 82.2148V82.218Z" fill="#3B1789" />
  <g style="mix-blend-mode:screen">
    <path d="M81.5581 101.675C89.0007 97.3934 95.0247 91.0607 99.0276 83.3104L101.11 83.0012C99.4111 86.4829 97.2956 89.7399 94.8056 92.7063L94.0811 93.5682L95.3535 98.4426L90.5957 97.1342L89.7556 97.8743C87.159 100.16 84.3251 102.143 81.3115 103.782L81.555 101.675H81.5581Z" fill="#3B1789" />
  </g>
  <g style="mix-blend-mode:screen">
    <path d="M84.9521 99.4992C83.8533 100.271 82.7239 101.001 81.555 101.673L81.3115 103.78C82.8122 102.965 84.2672 102.063 85.6736 101.079L84.9552 99.4961L84.9521 99.4992Z" fill="#3C7DCF" />
  </g>
  <g style="mix-blend-mode:screen">
    <path d="M95.6975 91.6112L94.4281 90.4871C93.2988 91.9328 92.0842 93.3068 90.7905 94.5964L95.043 98.3561L95.3535 98.4404L94.0811 93.566L94.8056 92.7041C95.11 92.3419 95.4052 91.9765 95.6975 91.6081V91.6112Z" fill="#3C7DCF" />
  </g>
  <path d="M100.997 74.9228C103.524 66.3387 103.426 57.3486 100.711 48.8457L104.857 43.1594C106.817 47.937 108.035 53.0332 108.452 58.3073L108.497 58.8694L114.479 62.4135L108.491 65.9577L108.446 66.5198C108.056 71.3723 106.991 76.075 105.289 80.5185L100.997 74.9228Z" fill="#BD6018" />
  <path d="M114.655 62.1013L108.832 58.6539L108.801 58.2792C108.463 54.0106 107.599 49.82 106.232 45.8231C106.168 45.6357 105.967 45.5389 105.788 45.6045C105.605 45.6701 105.511 45.8761 105.575 46.0604C106.92 50.0011 107.772 54.1324 108.104 58.3385L108.15 58.9006C108.159 59.0193 108.223 59.1223 108.323 59.1817L113.781 62.4136L108.32 65.6486C108.22 65.7079 108.156 65.8141 108.147 65.9296L108.101 66.4917C107.718 71.2849 106.664 75.9595 104.969 80.3874C104.899 80.5716 104.987 80.7808 105.167 80.8527C105.209 80.8683 105.252 80.8777 105.295 80.8777C105.435 80.8777 105.565 80.7902 105.62 80.6497C107.34 76.1563 108.412 71.413 108.801 66.5479L108.832 66.1732L114.661 62.7227C114.771 62.6571 114.834 62.5416 114.834 62.4136C114.834 62.2855 114.767 62.1669 114.661 62.1044L114.655 62.1013Z" fill="url(#paint15_linear_6900_4477)" />
  <path d="M107.435 59.2689L107.392 58.7006C107.051 54.0042 106.05 49.4202 104.412 45.0422L101.672 48.7988C104.339 57.3235 104.436 66.3385 101.958 74.9414L104.799 78.6417C106.199 74.6073 107.069 70.4011 107.386 66.12L107.429 65.5548L112.737 62.4103L107.432 59.2689H107.435Z" fill="#3B1789" />
  <g style="mix-blend-mode:screen">
    <path d="M102.589 74.1429C104.917 65.6837 104.82 56.8186 102.306 48.4343L103.554 46.72C104.768 50.4328 105.529 54.2892 105.815 58.2144L105.898 59.3479L110.107 61.8429L105.891 64.3378L105.809 65.4714C105.548 68.9937 104.902 72.4723 103.889 75.8385L102.586 74.1397L102.589 74.1429Z" fill="#3B1789" />
  </g>
  <g style="mix-blend-mode:screen">
    <path d="M104.435 49.7258L102.907 50.6345C103.184 51.7587 103.419 52.8859 103.613 54.0226L105.172 53.0983C104.968 51.9648 104.725 50.8406 104.438 49.729L104.435 49.7258Z" fill="#3C7DCF" />
  </g>
  <g style="mix-blend-mode:screen">
    <path d="M105.452 68.822C105.613 67.7104 105.738 66.5956 105.823 65.4745L105.905 64.341L110.121 61.8461L108.751 61.0342L104.228 63.7196C104.14 65.8055 103.911 67.8883 103.54 69.9555L105.452 68.822Z" fill="#3C7DCF" />
  </g>
  <defs>
    <linearGradient id="paint0_linear_6900_4477" x1="88.5106" y1="84.7486" x2="49.536" y2="23.357" gradientUnits="userSpaceOnUse">
      <stop stop-color="#BB7239" />
      <stop offset="0.23" stop-color="#FCEEAE" />
      <stop offset="0.52" stop-color="#E09E5B" />
      <stop offset="0.75" stop-color="#FCE9A4" />
      <stop offset="0.83" stop-color="#F1D693" />
      <stop offset="0.92" stop-color="#E1BD7C" />
      <stop offset="1" stop-color="#D08A4A" />
    </linearGradient>
    <linearGradient id="paint1_linear_6900_4477" x1="83.4727" y1="58.648" x2="19.4562" y2="30.5939" gradientUnits="userSpaceOnUse">
      <stop stop-color="#BB7239" />
      <stop offset="0.23" stop-color="#FCEEAE" />
      <stop offset="0.52" stop-color="#E09E5B" />
      <stop offset="0.75" stop-color="#FCE9A4" />
      <stop offset="0.83" stop-color="#F1D693" />
      <stop offset="0.92" stop-color="#E1BD7C" />
      <stop offset="1" stop-color="#D08A4A" />
    </linearGradient>
    <linearGradient id="paint2_linear_6900_4477" x1="18.8303" y1="57.3838" x2="106.86" y2="45.0868" gradientUnits="userSpaceOnUse">
      <stop stop-color="#BB7239" />
      <stop offset="0.23" stop-color="#FCEEAE" />
      <stop offset="0.52" stop-color="#E09E5B" />
      <stop offset="0.75" stop-color="#FCE9A4" />
      <stop offset="0.83" stop-color="#F1D693" />
      <stop offset="0.92" stop-color="#E1BD7C" />
      <stop offset="1" stop-color="#D08A4A" />
    </linearGradient>
    <linearGradient id="paint3_linear_6900_4477" x1="-7.58448" y1="31.6762" x2="80.1641" y2="19.4151" gradientUnits="userSpaceOnUse">
      <stop stop-color="#BB7239" />
      <stop offset="0.23" stop-color="#FCEEAE" />
      <stop offset="0.52" stop-color="#E09E5B" />
      <stop offset="0.75" stop-color="#FCE9A4" />
      <stop offset="0.83" stop-color="#F1D693" />
      <stop offset="0.92" stop-color="#E1BD7C" />
      <stop offset="1" stop-color="#D08A4A" />
    </linearGradient>
    <linearGradient id="paint4_linear_6900_4477" x1="25.345" y1="26.9822" x2="3.44378" y2="11.969" gradientUnits="userSpaceOnUse">
      <stop stop-color="#BB7239" />
      <stop offset="0.23" stop-color="#FCEEAE" />
      <stop offset="0.52" stop-color="#E09E5B" />
      <stop offset="0.75" stop-color="#FCE9A4" />
      <stop offset="0.83" stop-color="#F1D693" />
      <stop offset="0.92" stop-color="#E1BD7C" />
      <stop offset="1" stop-color="#D08A4A" />
    </linearGradient>
    <linearGradient id="paint5_linear_6900_4477" x1="11.3302" y1="58.4039" x2="-4.99909" y2="54.0418" gradientUnits="userSpaceOnUse">
      <stop stop-color="#BB7239" />
      <stop offset="0.23" stop-color="#FCEEAE" />
      <stop offset="0.52" stop-color="#E09E5B" />
      <stop offset="0.75" stop-color="#FCE9A4" />
      <stop offset="0.83" stop-color="#F1D693" />
      <stop offset="0.92" stop-color="#E1BD7C" />
      <stop offset="1" stop-color="#D08A4A" />
    </linearGradient>
    <linearGradient id="paint6_linear_6900_4477" x1="13.122" y1="55.9539" x2="20.8383" y2="55.786" gradientUnits="userSpaceOnUse">
      <stop stop-color="#BB7239" />
      <stop offset="0.23" stop-color="#FCEEAE" />
      <stop offset="0.52" stop-color="#E09E5B" />
      <stop offset="0.75" stop-color="#FCE9A4" />
      <stop offset="0.83" stop-color="#F1D693" />
      <stop offset="0.92" stop-color="#E1BD7C" />
      <stop offset="1" stop-color="#D08A4A" />
    </linearGradient>
    <linearGradient id="paint7_linear_6900_4477" x1="55.7013" y1="12.0487" x2="45.3494" y2="-7.21015" gradientUnits="userSpaceOnUse">
      <stop stop-color="#BB7239" />
      <stop offset="0.23" stop-color="#FCEEAE" />
      <stop offset="0.52" stop-color="#E09E5B" />
      <stop offset="0.75" stop-color="#FCE9A4" />
      <stop offset="0.83" stop-color="#F1D693" />
      <stop offset="0.92" stop-color="#E1BD7C" />
      <stop offset="1" stop-color="#D08A4A" />
    </linearGradient>
    <linearGradient id="paint8_linear_6900_4477" x1="58.987" y1="11.9595" x2="47.0657" y2="-6.36065" gradientUnits="userSpaceOnUse">
      <stop stop-color="#BB7239" />
      <stop offset="0.23" stop-color="#FCEEAE" />
      <stop offset="0.52" stop-color="#E09E5B" />
      <stop offset="0.75" stop-color="#FCE9A4" />
      <stop offset="0.83" stop-color="#F1D693" />
      <stop offset="0.92" stop-color="#E1BD7C" />
      <stop offset="1" stop-color="#D08A4A" />
    </linearGradient>
    <linearGradient id="paint9_linear_6900_4477" x1="92.501" y1="26.6337" x2="105.909" y2="25.8158" gradientUnits="userSpaceOnUse">
      <stop stop-color="#BB7239" />
      <stop offset="0.23" stop-color="#FCEEAE" />
      <stop offset="0.52" stop-color="#E09E5B" />
      <stop offset="0.75" stop-color="#FCE9A4" />
      <stop offset="0.83" stop-color="#F1D693" />
      <stop offset="0.92" stop-color="#E1BD7C" />
      <stop offset="1" stop-color="#D08A4A" />
    </linearGradient>
    <linearGradient id="paint10_linear_6900_4477" x1="74.7602" y1="18.4927" x2="92.4299" y2="14.7244" gradientUnits="userSpaceOnUse">
      <stop stop-color="#BB7239" />
      <stop offset="0.23" stop-color="#FCEEAE" />
      <stop offset="0.52" stop-color="#E09E5B" />
      <stop offset="0.75" stop-color="#FCE9A4" />
      <stop offset="0.83" stop-color="#F1D693" />
      <stop offset="0.92" stop-color="#E1BD7C" />
      <stop offset="1" stop-color="#D08A4A" />
    </linearGradient>
    <linearGradient id="paint11_linear_6900_4477" x1="35.6083" y1="109.051" x2="53.3126" y2="99.7445" gradientUnits="userSpaceOnUse">
      <stop stop-color="#BB7239" />
      <stop offset="0.23" stop-color="#FCEEAE" />
      <stop offset="0.52" stop-color="#E09E5B" />
      <stop offset="0.75" stop-color="#FCE9A4" />
      <stop offset="0.83" stop-color="#F1D693" />
      <stop offset="0.92" stop-color="#E1BD7C" />
      <stop offset="1" stop-color="#D08A4A" />
    </linearGradient>
    <linearGradient id="paint12_linear_6900_4477" x1="50.8214" y1="106.506" x2="80.5225" y2="100.883" gradientUnits="userSpaceOnUse">
      <stop stop-color="#BB7239" />
      <stop offset="0.23" stop-color="#FCEEAE" />
      <stop offset="0.52" stop-color="#E09E5B" />
      <stop offset="0.75" stop-color="#FCE9A4" />
      <stop offset="0.83" stop-color="#F1D693" />
      <stop offset="0.92" stop-color="#E1BD7C" />
      <stop offset="1" stop-color="#D08A4A" />
    </linearGradient>
    <linearGradient id="paint13_linear_6900_4477" x1="11.8269" y1="101.365" x2="41.4976" y2="91.5815" gradientUnits="userSpaceOnUse">
      <stop stop-color="#BB7239" />
      <stop offset="0.23" stop-color="#FCEEAE" />
      <stop offset="0.52" stop-color="#E09E5B" />
      <stop offset="0.75" stop-color="#FCE9A4" />
      <stop offset="0.83" stop-color="#F1D693" />
      <stop offset="0.92" stop-color="#E1BD7C" />
      <stop offset="1" stop-color="#D08A4A" />
    </linearGradient>
    <linearGradient id="paint14_linear_6900_4477" x1="69.2919" y1="87.5402" x2="106.797" y2="82.3033" gradientUnits="userSpaceOnUse">
      <stop stop-color="#BB7239" />
      <stop offset="0.23" stop-color="#FCEEAE" />
      <stop offset="0.52" stop-color="#E09E5B" />
      <stop offset="0.75" stop-color="#FCE9A4" />
      <stop offset="0.83" stop-color="#F1D693" />
      <stop offset="0.92" stop-color="#E1BD7C" />
      <stop offset="1" stop-color="#D08A4A" />
    </linearGradient>
    <linearGradient id="paint15_linear_6900_4477" x1="100.355" y1="52.5074" x2="115.995" y2="51.872" gradientUnits="userSpaceOnUse">
      <stop stop-color="#BB7239" />
      <stop offset="0.23" stop-color="#FCEEAE" />
      <stop offset="0.52" stop-color="#E09E5B" />
      <stop offset="0.75" stop-color="#FCE9A4" />
      <stop offset="0.83" stop-color="#F1D693" />
      <stop offset="0.92" stop-color="#E1BD7C" />
      <stop offset="1" stop-color="#D08A4A" />
    </linearGradient>
  </defs>
</svg>
